<svg width="34" height="34" viewBox="0 0 34 34" fill="none" xmlns="http://www.w3.org/2000/svg">
<path d="M31.5479 0H2.4521C1.09778 0 0 1.09778 0 2.4521V31.5479C0 32.9022 1.09778 34 2.4521 34H31.5479C32.9022 34 34 32.9022 34 31.5479V2.4521C34 1.09778 32.9022 0 31.5479 0V0ZM12.06 25.6992H7.91972V13.2431H12.06V25.6992ZM9.98999 11.5422H9.96301C8.57367 11.5422 7.67511 10.5858 7.67511 9.39052C7.67511 8.16823 8.60117 7.23828 10.0175 7.23828C11.4338 7.23828 12.3054 8.16823 12.3324 9.39052C12.3324 10.5858 11.4338 11.5422 9.98999 11.5422ZM26.989 25.6992H22.8492V19.0355C22.8492 17.3608 22.2497 16.2187 20.7517 16.2187C19.608 16.2187 18.9268 16.9891 18.6275 17.7328C18.518 17.9989 18.4913 18.3709 18.4913 18.7432V25.6992H14.3513C14.3513 25.6992 14.4055 14.4117 14.3513 13.2431H18.4913V15.0068C19.0415 14.158 20.0259 12.9508 22.2225 12.9508C24.9464 12.9508 26.989 14.731 26.989 18.5569V25.6992Z" fill="black"/>
</svg>
