<svg id="Layer_1" data-name="Layer 1" xmlns="http://www.w3.org/2000/svg" xmlns:xlink="http://www.w3.org/1999/xlink" viewBox="0 0 60 45"><defs><style>.cls-1{fill:none;}.cls-2{clip-path:url(#clip-path);}.cls-3{fill:#2b3130;}</style><clipPath id="clip-path"><rect class="cls-1" x="0.29" y="19.83" width="59.43" height="5.34"/></clipPath></defs><g class="cls-2"><path class="cls-3" d="M2.22,24.76a1,1,0,0,1-.36.19,1.33,1.33,0,0,1-.45.07,1.13,1.13,0,0,1-.83-.28A1,1,0,0,1,.29,24V20.53H.81v.8H2v.42H.81v2.18a.67.67,0,0,0,.16.49.65.65,0,0,0,.49.17A.85.85,0,0,0,2,24.41Z"/><path class="cls-3" d="M6.27,21.7a1.55,1.55,0,0,1,.43,1.16V25H6.18V22.91a1.18,1.18,0,0,0-.3-.87A1.21,1.21,0,0,0,5,21.75a1.32,1.32,0,0,0-1,.35,1.28,1.28,0,0,0-.36,1V25H3.16V19.83h.52V22a1.33,1.33,0,0,1,.58-.49,2,2,0,0,1,.86-.18A1.61,1.61,0,0,1,6.27,21.7Z"/><path class="cls-3" d="M10.19,24.46a1.32,1.32,0,0,0,.51-.36l.29.32a1.67,1.67,0,0,1-.63.44,2.13,2.13,0,0,1-.84.16,2.27,2.27,0,0,1-1.06-.24,1.76,1.76,0,0,1-.71-.67,1.92,1.92,0,0,1,0-1.91,1.64,1.64,0,0,1,.67-.66,2,2,0,0,1,1-.24,2.06,2.06,0,0,1,.93.22A1.76,1.76,0,0,1,11.23,23l-3.15.59a1.27,1.27,0,0,0,.53.7,1.59,1.59,0,0,0,.91.25A1.85,1.85,0,0,0,10.19,24.46ZM8.67,21.9a1.24,1.24,0,0,0-.49.5,1.43,1.43,0,0,0-.18.72v.15l2.72-.5a1.28,1.28,0,0,0-.45-.75,1.32,1.32,0,0,0-.88-.29A1.42,1.42,0,0,0,8.67,21.9Z"/><path class="cls-3" d="M12.87,24.79a1.82,1.82,0,0,1-1-1.66,1.79,1.79,0,0,1,1-1.65,2.47,2.47,0,0,1,2.1,0,1.57,1.57,0,0,1,.66.64l-.7.39a1.16,1.16,0,0,0-.42-.38A1.18,1.18,0,0,0,14,22a1.16,1.16,0,0,0-.84.31,1.23,1.23,0,0,0,0,1.69,1.19,1.19,0,0,0,1.83-.2l.7.39a1.53,1.53,0,0,1-.66.65A2.18,2.18,0,0,1,14,25,2.42,2.42,0,0,1,12.87,24.79Z"/><path class="cls-3" d="M17,24.79a1.87,1.87,0,0,1-.74-.68,1.82,1.82,0,0,1-.26-1,1.8,1.8,0,0,1,.26-1,1.84,1.84,0,0,1,.74-.67,2.44,2.44,0,0,1,2.15,0,1.84,1.84,0,0,1,.74.67,1.89,1.89,0,0,1,.26,1,1.91,1.91,0,0,1-.26,1,1.87,1.87,0,0,1-.74.68,2.53,2.53,0,0,1-2.15,0Zm1.9-.82a1.15,1.15,0,1,0-1.66,0,1.16,1.16,0,0,0,.83.32A1.15,1.15,0,0,0,18.94,24Z"/><path class="cls-3" d="M24.89,19.83V25H24V24.5a1.48,1.48,0,0,1-.56.4,2,2,0,0,1-.74.13,2.24,2.24,0,0,1-1-.23,1.9,1.9,0,0,1-.71-.67,2,2,0,0,1-.25-1,1.87,1.87,0,0,1,.25-1,1.83,1.83,0,0,1,.71-.67,2.12,2.12,0,0,1,1-.24,1.8,1.8,0,0,1,.71.13,1.41,1.41,0,0,1,.55.37v-1.9Zm-1.47,4.32a1,1,0,0,0,.42-.41,1.23,1.23,0,0,0,.15-.61,1.2,1.2,0,0,0-.15-.61,1,1,0,0,0-.42-.41,1.25,1.25,0,0,0-.59-.14,1.28,1.28,0,0,0-.59.14,1.1,1.1,0,0,0-.42.41,1.2,1.2,0,0,0-.15.61,1.23,1.23,0,0,0,.15.61,1.1,1.1,0,0,0,.42.41,1.28,1.28,0,0,0,.59.14A1.25,1.25,0,0,0,23.42,24.15Z"/><path class="cls-3" d="M29,23.89l.48.54a1.56,1.56,0,0,1-.66.45,2.8,2.8,0,0,1-2-.09,1.77,1.77,0,0,1-.75-.68,1.83,1.83,0,0,1-.27-1,1.91,1.91,0,0,1,.26-1,1.73,1.73,0,0,1,.72-.67,2,2,0,0,1,1-.25,2.23,2.23,0,0,1,1,.23,1.75,1.75,0,0,1,.71.64,1.87,1.87,0,0,1,.26,1l-3,.55a1,1,0,0,0,.45.49,1.53,1.53,0,0,0,.74.17A1.5,1.5,0,0,0,29,23.89ZM27,22.24a1.17,1.17,0,0,0-.31.84h0l2.21-.41a1,1,0,0,0-.38-.54,1.18,1.18,0,0,0-.7-.21A1.1,1.1,0,0,0,27,22.24Z"/><path class="cls-3" d="M38.66,24.78a1.74,1.74,0,0,1-.7-.67,1.88,1.88,0,0,1,0-1.91,1.65,1.65,0,0,1,.7-.66,2.08,2.08,0,0,1,1-.24,2.05,2.05,0,0,1,1,.24,1.65,1.65,0,0,1,.7.66,1.95,1.95,0,0,1,0,1.91,1.74,1.74,0,0,1-.7.67,2.05,2.05,0,0,1-1,.24A2.08,2.08,0,0,1,38.66,24.78Zm1.74-.38a1.27,1.27,0,0,0,.5-.5,1.56,1.56,0,0,0,0-1.49,1.33,1.33,0,0,0-.5-.5,1.53,1.53,0,0,0-.74-.18,1.46,1.46,0,0,0-.73.18,1.29,1.29,0,0,0-.51.5,1.56,1.56,0,0,0,0,1.49,1.23,1.23,0,0,0,.51.5,1.46,1.46,0,0,0,.73.18A1.53,1.53,0,0,0,40.4,24.4Z"/><path class="cls-3" d="M43.71,21.49a1.87,1.87,0,0,1,.9-.19v.48h-.13a1.26,1.26,0,0,0-.95.36,1.35,1.35,0,0,0-.34,1V25h-.52V21.33h.5v.72A1.18,1.18,0,0,1,43.71,21.49Z"/><path class="cls-3" d="M47,23.15l-.91.79v1h-.52V19.83h.52v3.49l2.3-2H49l-1.64,1.49L49.15,25h-.63Z"/><path class="cls-3" d="M52.09,24.46a1.32,1.32,0,0,0,.51-.36l.3.32a1.79,1.79,0,0,1-.64.44,2.06,2.06,0,0,1-.84.16,2.2,2.2,0,0,1-1.05-.24,1.73,1.73,0,0,1-.72-.67,1.8,1.8,0,0,1-.25-.95,1.9,1.9,0,0,1,.24-1,1.6,1.6,0,0,1,.68-.66,1.94,1.94,0,0,1,1-.24,2,2,0,0,1,.93.22A1.74,1.74,0,0,1,53.14,23L50,23.63a1.32,1.32,0,0,0,.53.7,1.63,1.63,0,0,0,.92.25A1.76,1.76,0,0,0,52.09,24.46ZM50.58,21.9a1.21,1.21,0,0,0-.5.5,1.43,1.43,0,0,0-.18.72.58.58,0,0,0,0,.15l2.71-.5a1.28,1.28,0,0,0-.45-.75,1.32,1.32,0,0,0-.88-.29A1.41,1.41,0,0,0,50.58,21.9Z"/><path class="cls-3" d="M55.24,21.49a1.86,1.86,0,0,1,.89-.19v.48H56a1.24,1.24,0,0,0-.95.36,1.36,1.36,0,0,0-.35,1V25H54.2V21.33h.49v.72A1.2,1.2,0,0,1,55.24,21.49Z"/><path class="cls-3" d="M57.23,24.89a2.09,2.09,0,0,1-.67-.32l.24-.39a1.86,1.86,0,0,0,.6.29,2.46,2.46,0,0,0,.76.12,1.57,1.57,0,0,0,.78-.16.48.48,0,0,0,.25-.44.41.41,0,0,0-.13-.32,1.14,1.14,0,0,0-.35-.17,4.13,4.13,0,0,0-.57-.11c-.31-.06-.56-.12-.75-.17a1.18,1.18,0,0,1-.49-.3.82.82,0,0,1-.2-.58.92.92,0,0,1,.4-.75,1.93,1.93,0,0,1,1.12-.29,2.76,2.76,0,0,1,.75.1,2,2,0,0,1,.61.24l-.22.4a2,2,0,0,0-1.14-.31,1.39,1.39,0,0,0-.75.16.52.52,0,0,0-.25.44.42.42,0,0,0,.14.33.89.89,0,0,0,.36.19,5.15,5.15,0,0,0,.58.12,4.88,4.88,0,0,1,.74.17,1.11,1.11,0,0,1,.48.28.76.76,0,0,1,.19.56.87.87,0,0,1-.42.76,2.14,2.14,0,0,1-1.16.28A3,3,0,0,1,57.23,24.89Z"/><path class="cls-3" d="M36.16,21.33v2a1.4,1.4,0,0,1-.27,1,1,1,0,0,1-.82.31,1,1,0,0,1-.84-.31,1.45,1.45,0,0,1-.27-1v-2h-.52v2a1.45,1.45,0,0,1-.27,1,1,1,0,0,1-.84.31,1,1,0,0,1-.83-.31.82.82,0,0,1-.15-.24l-.24.56h0a1.56,1.56,0,0,0,1.2.43,1.67,1.67,0,0,0,.85-.19,1.23,1.23,0,0,0,.52-.58,1.14,1.14,0,0,0,.52.58,1.68,1.68,0,0,0,.84.19,1.57,1.57,0,0,0,1.21-.43,1.73,1.73,0,0,0,.41-1.24v-2Z"/><path class="cls-3" d="M32,21.3l-.05,0h-.35a.05.05,0,0,0-.05,0l-.82,1.91-.39.91-.42,1a.11.11,0,0,0,0,0,.05.05,0,0,0,0,0h.35a.05.05,0,0,0,.05,0l.24-.56L30.8,24,32,21.35A0,0,0,0,0,32,21.3Z"/></g></svg>