<svg id="Layer_1" data-name="Layer 1" xmlns="http://www.w3.org/2000/svg" xmlns:xlink="http://www.w3.org/1999/xlink" viewBox="0 0 60 45"><defs><style>.cls-1{fill:none;}.cls-2{clip-path:url(#clip-path);}.cls-3,.cls-4{fill:#fff;}.cls-4,.cls-5{fill-rule:evenodd;}.cls-5,.cls-6{fill:#2b3130;}</style><clipPath id="clip-path"><rect class="cls-1" x="-0.04" y="12.2" width="60.08" height="20.6"/></clipPath></defs><g class="cls-2"><path class="cls-3" d="M41.23,23h-25V32.8h25Z"/><path class="cls-4" d="M12.56,23H29.42V32.8h-25V23H9.14l.57-1.22,1,.28A2.39,2.39,0,0,1,12.56,23Z"/><path class="cls-5" d="M16.28,28.23h.29L17.11,27h1.73l.52,1.19h.48l-1.76-3.92h0ZM18,25.09l.77,1.77H17.19Z"/><path class="cls-5" d="M20,24v3.89c0,.17.08.31.39.31h.56V28.1h-.26c-.2,0-.26-.09-.26-.25V24Z"/><path class="cls-5" d="M21.66,28.23v-2.4h.54V25.7h-.54V24.51a.33.33,0,0,1,.38-.35.71.71,0,0,1,.31.08v-.16A1.27,1.27,0,0,0,22,24c-.53,0-.77.27-.77.69v3.51Z"/><path class="cls-5" d="M22.07,27a1.39,1.39,0,0,0,1.38,1.33A1.28,1.28,0,0,0,24.82,27a1.38,1.38,0,0,0-1.37-1.32A1.29,1.29,0,0,0,22.07,27Zm.43,0c0-.78.43-1.19.95-1.19s.94.41.94,1.19-.43,1.2-.94,1.2S22.5,27.75,22.5,27Z"/><path class="cls-5" d="M25.43,28.23V26.09c0-.09,0-.12.06-.12s.12.05.17.13L27,28c.1.13.15.26.25.26s.09,0,.09-.12V25.7h-.17v1.94h0L26.07,26c-.17-.24-.24-.33-.48-.33s-.34.05-.34.26v2.27Z"/><path class="cls-5" d="M28.89,25.86l-1.24,2.37h1.88v-.16H28.15l.94-1.78a1,1,0,0,0,.14-.39c0-.13-.11-.2-.46-.2h-1.1v.16Z"/><path class="cls-5" d="M29.38,27a1.38,1.38,0,0,0,1.37,1.33A1.28,1.28,0,0,0,32.12,27a1.38,1.38,0,0,0-1.37-1.32A1.28,1.28,0,0,0,29.38,27Zm.42,0c0-.78.43-1.19.95-1.19s.95.41.95,1.19-.43,1.2-.95,1.2S29.8,27.75,29.8,27Z"/><path class="cls-5" d="M34.48,28.23V24.58h.75c.51,0,1.14.2,1.14.91s-.62.76-1.33.76h-.32l1.56,2h.58l-1.44-1.82h.09c1,0,1.36-.42,1.36-.92s-.55-1.07-1.61-1.07H34v3.81Z"/><path class="cls-5" d="M37.61,25.7h-.43v2.53h.43Zm-.21-.53a.22.22,0,0,0,.23-.21.22.22,0,0,0-.23-.2.22.22,0,0,0-.24.2A.23.23,0,0,0,37.4,25.17Z"/><path class="cls-5" d="M37.83,25.7,38.77,28c.07.18.09.34.27.34s.2-.13.27-.3l1-2.29h-.2l-.76,1.78c0,.13-.07.25-.19.25s-.1-.13-.16-.25l-.75-1.78Z"/><path class="cls-5" d="M40.34,28.23l.23-.71h1.22l.29.71h.43l-.82-2.05c-.08-.21-.15-.54-.44-.54s-.34.18-.4.37l-.7,2.22Zm.28-.84L41,26.17c0-.1,0-.14.11-.14s.1.06.13.14l.48,1.22Z"/><path class="cls-5" d="M44,25.7h-.59c-.72,0-1,.41-1,.69,0,.94,1.42.46,1.42,1.24,0,.36-.32.44-.63.44h-.7v.16h.75c.78,0,1-.39,1-.7,0-1-1.42-.54-1.42-1.27,0-.32.38-.4.55-.4H44Z"/><path class="cls-5" d="M47.33,25.74c.26-.21.57-.45.57-.79a.69.69,0,0,0-.76-.64.82.82,0,0,0-.82.72l.47.6c-.61.39-1,.67-1,1.4a1.38,1.38,0,0,0,1.47,1.31,1.88,1.88,0,0,0,1.32-.48l.26.37h.49l-.54-.69a1.42,1.42,0,0,0,.16-.67,1.79,1.79,0,0,0-.12-.61H48.6a2.48,2.48,0,0,1,.13.61,1.44,1.44,0,0,1-.11.52Zm1.07,2a1.44,1.44,0,0,1-1.09.43,1.1,1.1,0,0,1-1.13-1.1c0-.61.32-.8.82-1.15Zm-1.78-2.91a.47.47,0,0,1,.52-.37.43.43,0,0,1,.47.45c0,.25-.28.48-.49.58Z"/><path class="cls-5" d="M54.37,25.15a1.64,1.64,0,0,0-1.54-.84,2,2,0,1,0,0,4,1.69,1.69,0,0,0,1.59-.85l-.25-.14a1.34,1.34,0,0,1-1.34.8,1.63,1.63,0,0,1-1.58-1.82c0-1.3.77-1.86,1.58-1.86a1.33,1.33,0,0,1,1.31.8Z"/><path class="cls-6" d="M55.18,25.7h-.43v2.53h.43Z"/><path class="cls-5" d="M55.64,28.23l.23-.71h1.22l.28.71h.44L57,26.18c-.09-.21-.16-.54-.44-.54s-.34.18-.4.37l-.71,2.22Zm.28-.84.38-1.22c0-.1,0-.14.12-.14s.1.06.13.14L57,27.39Z"/><path class="cls-5" d="M58.27,28.08a.24.24,0,1,0,.24-.21A.21.21,0,0,0,58.27,28.08Z"/><path class="cls-6" d="M60,28.68H4.31v2.66H60Z"/><path class="cls-4" d="M18.5,30.63l.29-.49h-.07a1,1,0,0,1-.18.17.69.69,0,0,1-.24.15,1.13,1.13,0,0,1-.6.09s0,0-.05,0,0,0,0-.06l.36-.68c.19,0,.4,0,.34.22a.56.56,0,0,1,0,.12h.07l.38-.69h-.08c-.19.28-.33.26-.62.27l.29-.53c.06-.12.08-.15.22-.15h.15c.25,0,.32.12.25.38H19l.24-.48H17.8l0,.07c.1,0,.2,0,.17.11l-.7,1.29c0,.07-.06.1-.1.12a.37.37,0,0,1-.14,0v.06Z"/><path class="cls-4" d="M21,30.32c-.06,0-.15.16-.23.15s0-.35,0-.53.18-.24.31-.24.1.05.15.05a.21.21,0,0,0,.18-.14c0-.07,0-.15-.11-.15s-.43.26-.52.35a1,1,0,0,0,0-.35l-.47.07,0,.07a.49.49,0,0,1,.17,0c.05.05,0,.12,0,.19l0,.35c-.15.16-.24.28-.31.28a.36.36,0,0,0-.2,0,.21.21,0,0,0-.13.13.11.11,0,0,0,.11.14c.19,0,.38-.21.53-.39,0,.25,0,.39.18.39s.34-.18.48-.3Z"/><path class="cls-4" d="M23.07,29.68s0,.08,0,.13-.44.85-.69.76c-.05,0-.07-.09,0-.16l.27-.48a.55.55,0,0,1,.36-.28S23.06,29.65,23.07,29.68Zm-.85,1.47,0-.07c-.08,0-.18,0-.16-.08l.2-.39a.38.38,0,0,0,.19.05.75.75,0,0,0,.42-.16,1.45,1.45,0,0,0,.54-.71c0-.19,0-.33-.23-.33a.74.74,0,0,0-.47.27l.15-.27-.54.07,0,.07c.08,0,.16,0,.13.07l-.64,1.23c-.06.11-.11.2-.25.18v.07Z"/><path class="cls-4" d="M25.08,30.27a.61.61,0,0,1-.36.23c-.25,0-.12-.28-.1-.33.33,0,.76-.24.82-.48s-.08-.23-.23-.23a1.21,1.21,0,0,0-1,.81.29.29,0,0,0,.32.39.84.84,0,0,0,.6-.35Zm-.42-.18c.07-.13.33-.6.53-.54S25.12,30,24.66,30.09Z"/><path class="cls-4" d="M26.45,30.63a3.41,3.41,0,0,1,.66-.91h.05c.05.06.06.09.12.09a.22.22,0,0,0,.21-.19c0-.09,0-.16-.11-.16s-.44.32-.54.46h0l.26-.45-.56.07,0,.07h.12s0,.08,0,.17l-.47.85Z"/><path class="cls-4" d="M28.94,29.46l-.56.07,0,.07c.13,0,.18,0,.11.15l-.35.64c-.11.2,0,.27.1.27s.4-.19.55-.35l-.05,0-.2.19c-.06,0-.08,0-.1,0a.19.19,0,0,1,0-.08Zm0-.21a.24.24,0,0,0,.22-.17.14.14,0,0,0-.14-.17.25.25,0,0,0-.22.17A.13.13,0,0,0,28.92,29.25Z"/><path class="cls-4" d="M30.55,30.27a.61.61,0,0,1-.36.23c-.25,0-.12-.28-.09-.33.32,0,.76-.24.81-.48s-.07-.23-.23-.23a1.21,1.21,0,0,0-1,.81.3.3,0,0,0,.32.39.84.84,0,0,0,.6-.35Zm-.41-.18c.06-.13.32-.6.52-.54S30.59,30,30.14,30.09Z"/><path class="cls-4" d="M32,30.63c.08-.15.16-.3.26-.45s.43-.53.56-.53.07,0,.06.06l-.4.68c-.08.15,0,.27.1.27a.74.74,0,0,0,.52-.33l0,0a1.29,1.29,0,0,1-.21.19s-.06,0-.06,0l.41-.72c.09-.15,0-.26-.13-.26s-.53.3-.69.48h0l.27-.47-.56.07,0,.07c.07,0,.18,0,.13.07l-.51,1Z"/><path class="cls-4" d="M34.94,30.27a.61.61,0,0,1-.38.23c-.15,0-.18-.12-.14-.24s.34-.71.56-.71.05.06,0,.09,0,.23,0,.23a.23.23,0,0,0,.22-.17c.05-.16-.1-.24-.26-.24a1.19,1.19,0,0,0-1,.81.29.29,0,0,0,.3.39.89.89,0,0,0,.64-.34Z"/><path class="cls-4" d="M36.9,29.46l-.57.07v.07c.13,0,.18,0,.11.15l-.35.64c-.11.2,0,.27.1.27s.39-.19.55-.35l0,0a2,2,0,0,1-.21.19c-.06,0-.07,0-.09,0a.19.19,0,0,1,0-.08Zm0-.21a.24.24,0,0,0,.22-.17.14.14,0,0,0-.14-.17.25.25,0,0,0-.22.17A.13.13,0,0,0,36.88,29.25Z"/><path class="cls-4" d="M38.72,29.64c0-.12,0-.18-.16-.18-.37,0-.88.55-1,.86s0,.34.22.34a.8.8,0,0,0,.51-.32c-.14.16-.09.33.07.33s.37-.2.49-.32l0,0c-.05,0-.19.2-.25.17a.25.25,0,0,1,0-.15l.48-.84H38.8Zm-.7.84c-.09,0-.1-.08-.08-.15s.41-.76.62-.76.09.09.08.14S38.26,30.48,38,30.48Z"/><path class="cls-4" d="M42.54,30.68l.8-1.47a.33.33,0,0,1,.28-.2l0-.07h-.57l0,.07c.12,0,.24,0,.17.19l-.49.91-.3-1.17H41.9V29a.15.15,0,0,1,.19.14l-.68,1.17a.4.4,0,0,1-.28.25v.06h.56l0-.06c-.21,0-.22-.11-.17-.21l.59-1.08.35,1.4Z"/><path class="cls-4" d="M44.21,30.32c-.17.31,0,.34.1.34s.47-.26.63-.41h0a.7.7,0,0,0-.14.32c0,.07.09.09.15.09a.78.78,0,0,0,.52-.33l0,0a.56.56,0,0,1-.25.18c-.06,0,0-.08,0-.14l.47-.85h-.32a4.32,4.32,0,0,1-.42.66c-.07.09-.3.34-.41.33s-.07-.06,0-.15l.5-.87a5.6,5.6,0,0,1-.59.07v.07c.1,0,.13,0,.14,0a.31.31,0,0,1,0,.08Z"/><path class="cls-4" d="M46.49,30.27c-.23.36-.06.4,0,.4a.81.81,0,0,0,.56-.35l0,0a.86.86,0,0,1-.26.21s0,0,0-.1l.43-.8h.22l0-.1h-.19l.19-.37h-.09a1.42,1.42,0,0,1-.6.39l0,.08h.14Z"/><path class="cls-4" d="M48.23,30.63a3.41,3.41,0,0,1,.66-.91h0c0,.06.06.09.12.09a.22.22,0,0,0,.21-.19c0-.09,0-.16-.12-.16s-.43.32-.53.46h0l.26-.45-.56.07,0,.07h.12s0,.08,0,.17l-.47.85Z"/><path class="cls-4" d="M50.72,29.46l-.57.07v.07c.13,0,.18,0,.11.15l-.35.64c-.12.2,0,.27.1.27s.39-.19.55-.35l0,0a2,2,0,0,1-.21.19c-.06,0-.07,0-.09,0a.19.19,0,0,1,0-.08Zm0-.21a.24.24,0,0,0,.22-.17.14.14,0,0,0-.14-.17.26.26,0,0,0-.23.17A.14.14,0,0,0,50.7,29.25Z"/><path class="cls-4" d="M51.51,30.27c-.23.36-.06.4,0,.4a.85.85,0,0,0,.56-.35l-.05,0a.86.86,0,0,1-.26.21c-.05,0,0,0,0-.1l.43-.8h.22l0-.1h-.2l.2-.37h-.1a1.45,1.45,0,0,1-.59.39l0,.08h.14Z"/><path class="cls-4" d="M53.86,29.46l-.57.07v.07c.13,0,.18,0,.11.15l-.35.64c-.12.2,0,.27.1.27s.39-.19.55-.35l0,0a2,2,0,0,1-.21.19c-.06,0-.07,0-.09,0a.19.19,0,0,1,0-.08Zm0-.21a.24.24,0,0,0,.22-.17.14.14,0,0,0-.14-.17.25.25,0,0,0-.22.17C53.67,29.17,53.73,29.25,53.84,29.25Z"/><path class="cls-4" d="M54.85,30.66c.53-.39,1-.78,1.06-1.05,0-.09,0-.15-.14-.15a.21.21,0,0,0-.18.15c0,.08.08.16.07.22a.59.59,0,0,1-.14.18l-.33.3.12-.6a1.85,1.85,0,0,0,0-.25,2.34,2.34,0,0,1-.45.07v.07H55c.07,0,0,.32,0,.6l-.13.45Z"/><path class="cls-4" d="M57.71,29.64c0-.12,0-.18-.16-.18-.37,0-.88.55-1,.86s0,.34.23.34a.8.8,0,0,0,.51-.32c-.14.16-.1.33.06.33s.37-.2.49-.32l0,0c-.06,0-.19.2-.26.17a.37.37,0,0,1,0-.15l.48-.84h-.31Zm-.7.84c-.09,0-.1-.08-.09-.15s.42-.76.63-.76.09.09.08.14S57.24,30.48,57,30.48Z"/><path class="cls-5" d="M6.47,16a.36.36,0,0,1,.11-.33l.12.11a5.2,5.2,0,0,0,.11-2.42l.33-1.17A1.35,1.35,0,0,0,5.65,13a.67.67,0,0,0-.67.34,1.49,1.49,0,0,0-.82,1.06s-.59.52-.55.94a1.8,1.8,0,0,0-.38,1.32s-.22.42,0,.68l-.38.3.27.38-.34.49.15.23s-.48.26-.37.64l.15.19-.26.3.07.26s-.3.46-.19.65A2.53,2.53,0,0,1,2,21.82l.15.26L2,22.27l.12.31L2,22.91l.19.34-.11.61.22.07-.1.25.25.43,0,.38.3.15s.17.45.83.14l.24.13.23-.19.18.3.15-.23.45.08S3.68,26.65,0,26.31a4,4,0,0,0,1.3,1.47l0,.42s.41.11.48.26l-.07.27H2l.15.34.67-.19s.11.23.26.23a4,4,0,0,0,2-1.4A2.38,2.38,0,0,0,5,27.26V27a.46.46,0,0,0-.1-.34c-.32.18-.32.54-.68.37a.76.76,0,0,1-.37.46,2.11,2.11,0,0,0-.15-.19l-.11.11a.36.36,0,0,0-.32-.11c-.16,0-.2.16-.39.16,0,0-.12-.12-.26,0a.84.84,0,0,1-.44.07l-.08-.1v-.12S1,27.58.63,26.63a8.66,8.66,0,0,0,3.94-.7,1,1,0,0,0,.19.16L5,25.9l-.11.41.18-.09.21-.16a1,1,0,0,1,.09.38c0,.19-.3.13-.11.74s.08.74.63,1a6,6,0,0,0,.6.11c.07,0,.11-.08.11-.15,0-.27-.37-.15-.53-.26a1.8,1.8,0,0,1-.4-1.06c0-.22,0-.61,0-.65V26c0-.08.06-.17.06-.25A.44.44,0,0,1,6,25.37a.37.37,0,0,0,.11-.31c0-.16-.18-.26-.15-.41s.07-.13.28-.15c0,.46-.06.33.23.64.06.06-.07.18-.14.23A.73.73,0,0,0,6,26c0,.3,0,.75,0,1.07a1.5,1.5,0,0,0,.34.63c.15.08.42.33.68.22s.07,1.12.91.85c.18,0,.19,0,.43-.37l.18.05v.23c0,.09,0,.18.16.18s.4-.3.65-.44c.07,0,.18.19.26.18s.08-.24.22-.24.18.26.46.24.14-.15.29-.15a.91.91,0,0,1,.26.19c.15-.12.17-.21.31-.26s.54.13.73.13c.38,0,.33-.39.37-.72a3.74,3.74,0,0,0,1.64.59A4.08,4.08,0,0,1,12,26.5s1.49,1.62,2.68,1.62c0,0-1.57-1.25-1.6-1.59,0,0,1.67,1.4,2.42,1.14L14.66,27a2,2,0,0,1-1.31-.68,2.46,2.46,0,0,1-1.74-.53v-.3s1.08.9,1.86.53a3.47,3.47,0,0,0,2.12.94,6.74,6.74,0,0,1-1.45-1.09A2.55,2.55,0,0,1,13,25.33s-.82.11-1.08-.27l.15-.11a2,2,0,0,0,1,.15,2.45,2.45,0,0,0,2.23.57,12.29,12.29,0,0,1-2.42-1.47,1.53,1.53,0,0,0-.86-.42,1.69,1.69,0,0,0-1.82-1.28l-1.52,0s-.71.19-1.31-.87c0,0-.22-.68-.41-.79a6.61,6.61,0,0,1-.26-2.53,3.67,3.67,0,0,0-.22-2.15C6.36,15.89,6.47,16,6.47,16ZM4.84,27.3a10.32,10.32,0,0,1-1.52,1s-.32.21-.28.3a2,2,0,0,0,.6-.22,5.83,5.83,0,0,0,1.26-.87s0-.2-.05-.26Zm-1.24.47s.06-.08-.07-.13a7.6,7.6,0,0,1-1.36.81s-.35.15.22.2a2.39,2.39,0,0,0,1.2-.87C3.65,27.7,3.6,27.77,3.6,27.77Zm-.37-.21a2.24,2.24,0,0,1-.63.06,4.6,4.6,0,0,1-.75.44s-.21.08.09.18a2.68,2.68,0,0,0,1.3-.7Zm-1.37.11a.27.27,0,0,0,.07-.14.21.21,0,0,0-.13-.07.5.5,0,0,0-.19.11s-.06,0-.1,0l0,.09,0,.14h0a.42.42,0,0,0,.2,0A1.11,1.11,0,0,0,1.86,27.67Zm6.87.38s-.19-.76-.7-.71a3.63,3.63,0,0,1-.48.09H7.13s-.26.06-.1.32a.78.78,0,0,1,.24.57.22.22,0,0,0,.26.16s.1-.08-.07-.19a.67.67,0,0,0,0-.29h.32s0,.12.17.1a.17.17,0,0,0,0-.19s-.12-.13-.2-.11V27.7h.38a.36.36,0,0,0,.27.22.45.45,0,0,1,.13.24s.22.17.22-.09v0ZM7.08,27.3c0-.08-.09-.08-.09-.17s0-.17,0-.27.14-.14.14-.21-.13-.2-.13-.34l.2,0,0-.1h.06c.06,0,.09.09.15.09s.18-.17.19-.27.25-.3.44-.32c0,.14,0,.24.08.24a1.36,1.36,0,0,0,.21-.1c.05,0,.09-.14.14-.14s0-.15.17-.15l.11.07c.13,0,.21-.11.32-.18s-.06,0-.1,0,0,.05,0,.05H8.92c0-.09,0-.22-.06-.22s-.1.09-.13.1c-.19.1-.24.2-.43.26l0-.11a2.29,2.29,0,0,1-.51.15c0,.16-.07.33-.23.33s-.07-.07-.12-.09c-.16.23-.54.17-.49.5s-.15.47-.15.74c0,.09.2.25.33.25Zm1.36-.74s0-.09-.09-.09-.18.47-.24.63.14.22.19.22.09-.24.11-.35A3.58,3.58,0,0,0,8.44,26.56Zm.43-.13V26.3H8.76a.59.59,0,0,1-.17,0v.28l-.05.18V27l0,.14c0,.17.06.47.21.47s.07-.27.09-.36l.06-.81Zm.32-.05c0-.07,0-.17,0-.17s-.18.34-.2.48V27a2.49,2.49,0,0,1-.07.68V28a.23.23,0,0,0,.21.18A.15.15,0,0,0,9.22,28c0-.07-.08-.14-.08-.18a2.36,2.36,0,0,1,0-.46v-.92Zm.2.15v-.28H9.33c-.14.15-.08.65-.08.9,0,.41,0,1,.29,1h.05V28a2.62,2.62,0,0,1-.13-.5v-.46l0-.23v-.27Zm.51.36a1.49,1.49,0,0,1-.09-.23c-.05-.24,0-.59-.22-.59,0,0-.09.11-.09.11l0,.63a1.53,1.53,0,0,0,.06.75v.22c0,.15.1.3.25.3s.09-.14.09-.2c0-.22-.19-.32-.19-.54s.07-.25.15-.41Zm.09.31a.27.27,0,0,0-.14.23c0,.09.06.13.08.18l.28.68a.29.29,0,0,0,.12-.23c0-.17-.11-.19-.13-.27A2.39,2.39,0,0,1,10,27.2Zm.1-.9.08-.14c0-.08-.07-.17-.15-.17s-.13.09-.12.15c.09.41.08.76.19,1.1s.12.33.2.55.15.13.22.27.2.16.2.11a2.24,2.24,0,0,0-.29-.8c-.1-.27-.15-.45-.24-.68s0-.25-.06-.42Zm.51,0h-.11c0-.17-.05-.27-.2-.27s-.06.14-.06.18a2.73,2.73,0,0,0,.3,1.06,2.18,2.18,0,0,0,.74,1h.14v0l-.68-1.33v-.14h.09c.08,0,.17.3.19.45s.2.29.25.41.44.7.63.7a.11.11,0,0,0,.12-.12v-.5c0-.08-.1-.1-.14-.16s-.2-.16-.29-.29a2.5,2.5,0,0,0-.36-.41c-.16-.11-.29-.82-.51-.82s-.05.32-.15.32-.05,0-.07-.06ZM7.72,28.54s0,0,0-.05v-.27l-.08-.08h0l0,.24a.88.88,0,0,1-.06.18l0,0,.09-.06Zm.25.08a.13.13,0,0,1-.13-.13s.31-.19.35-.22a.19.19,0,0,1,0,.09s-.09,0-.09.08S8.06,28.62,8,28.62Zm.83,0-.09,0h0l0-.11V28.3h.06c.11.06.08.18.07.3Zm-.44-5.93H10s1.66,0,1.71.88c0,0-.12.32-.53,0a1.65,1.65,0,0,0-.45-.32s-.19-.05-.1.11l.09.07a.29.29,0,0,0,.05.19.26.26,0,0,0,.33.13h.11v.07a2.49,2.49,0,0,0,.35.11c.09,0,.29-.18.36-.13s.28.32.24.56c0,0,.1.26-.48.6,0,0-.2,0-.07-.17a.52.52,0,0,0-.06-.54l-.5-.29s-.1-.09-.19,0-.1.07.12.18c0,0,.68.37.61.45s-.09.11-.26,0a6.11,6.11,0,0,1-.6-.3,5.08,5.08,0,0,0-.59.41s-.87.71-.92.77v-.28H9V25a.83.83,0,0,1,.1-.23c-.11,0-.23-.05-.23-.14s.12-.12.12-.21-.1-.05-.16-.05.06-.19.08-.27-.15,0-.15-.1.09-.12.1-.16v-.08l-.18,0c0-.15.09-.15.09-.28s-.12-.11-.12-.2,0-.12,0-.19-.09,0-.12,0-.06-.2-.15-.21v-.13Zm.88,2.23a.24.24,0,0,1,0-.09l0-.09c-.05-.08-.1-.05-.1-.14a1.1,1.1,0,0,1,.31-.07h.09v-.11a.54.54,0,0,0,.28-.05s0-.15,0-.18.13,0,.18-.05,0-.12.08-.16a1.77,1.77,0,0,1,.32-.09c.09,0,.16.11.18.16-.19.09-.29.29-.44.26,0,.16-.32.21-.45.31a2.22,2.22,0,0,1-.49.3Zm-.3,5c.1,0,.15.14.26.14s.18-.06.17-.18c0-.28-.33-.27-.58-.3H8.25a.55.55,0,0,1-.31-.08H7.85a.66.66,0,0,0,0,.14c0,.1.07.15.07.22s-.17.11-.2.19c-.21,0-.29,0-.29.21a.16.16,0,0,0,.16.16l.32-.15.19.06,0,.29a.28.28,0,0,0,.26.2c.07,0,.12-.09.12-.17s-.06-.16-.09-.23a.34.34,0,0,1,0-.1c0-.14-.05-.26,0-.37s.19,0,.27,0H8.9Zm-1.57.48a.25.25,0,0,0,0,.09c0,.09.14.22.14.22s0-.08,0-.1S7.4,30.38,7.37,30.36Zm1,.81s0-.05,0-.09a1.4,1.4,0,0,0-.16-.2l0,.13A.19.19,0,0,0,8.32,31.17Zm1.11-.49c.06.15,0,.26.05.3s.08-.1.08-.18a.15.15,0,0,0-.11-.14Zm.21-.41a.72.72,0,0,0,0-.24s-.18-.13-.13,0a.45.45,0,0,0,.15.22ZM7,28.16c-.17.08-.15.38-.49.27H6.34v.25c0,.07.19.21.19.22a3.89,3.89,0,0,0,.52.64s0,0,0,.08a.11.11,0,0,0,.09.11s.06,0,.11,0l.17.11c.07,0,.08-.1.17-.1s.11,0,.11.08-.13.08-.21.09a.34.34,0,0,0-.27.33v.28a.37.37,0,0,0,.35.3.69.69,0,0,0,0-.24l.28-.09c.07.15.16.22.14.37v.23a.49.49,0,0,0,.41.27.17.17,0,0,0,.11-.1l-.14-.31c.07-.12.21-.08.18-.35a2,2,0,0,0-.06-.28h.05c.17,0,.32.24.39.33s.33.07.4.25l-.07.21.16,0a.34.34,0,0,0,.23-.35c0-.2-.27-.33-.32-.48v-.12h.09c.09,0,.06.24.19.24s.15-.15.15-.27-.13-.19-.18-.24a1.49,1.49,0,0,1-.2-.31c-.13-.17-.32-.18-.53-.21H8c-.16-.07-.15-.31-.19-.42a1.07,1.07,0,0,1-.52-.12A.66.66,0,0,1,7,28.16Zm2.1,2.11c-.06,0-.1-.13-.11-.15S8.82,30,8.72,30s-.06,0-.06.08.07.05.1.1.29.27.45.38h.11v-.11C9.27,30.35,9.21,30.27,9.09,30.27ZM4.15,20.5a2.19,2.19,0,0,1,.13-.27c-.26-.07-.52.19-.63.31l-.31.21-.63,0c-.06,0-.17,0-.15.2v.25h.49l.22-.15c.13-.32.35-.31.6-.46Zm1.5-6.79s-.26-.8,1.12-1.21a4,4,0,0,0,0,.78,1,1,0,0,0-.62.55C6.06,14,5.65,13.71,5.65,13.71ZM3.87,21.18a1.23,1.23,0,0,0,0-.38.67.67,0,0,0-.41.3,3.69,3.69,0,0,1-.9.34.53.53,0,0,0-.3.38,2.11,2.11,0,0,0,.19.23c.25-.3.64-.31.9-.53.14-.06.31-.24.44-.3Zm-.22.35c-.6.41-1.5.88-1.23.88.1,0,.12.13,1-.43.17-.1.1-.2.28-.35Zm-.22.69c-.25.07-.33.09-.46.24s-.33.16-.52.23a.84.84,0,0,0-.15.18l.07.19a2,2,0,0,0,.53-.15.57.57,0,0,0,.36-.41l.11-.14ZM3.19,23v.35c-.22.11-.4.18-.55.27H2.42l0-.21c0-.26.23-.23.4-.31L3.05,23ZM2.9,24.2c.13-.09.17-.05.27-.16h.07v-.31s0,0,0-.08l-.1-.06a.22.22,0,0,0-.07.06.2.2,0,0,0-.14.14c-.12.11-.15.07-.21.21s-.17.12-.26.13v.09c0,.11.09.15.13.18s.17-.11.24-.15Zm.62.22v-.14c-.11,0-.12,0-.21,0s-.2.14-.39.25l0,.08c-.09.05-.12,0-.12.13v.17h.15a.41.41,0,0,0,.31-.22l.31-.22v0Zm.25.16-.09,0s-.06,0-.09.05a1.78,1.78,0,0,0-.52.44v.09a.84.84,0,0,1,.18.05h.18s0-.06.06-.09.26-.12.31-.28l0-.09a.14.14,0,0,0,0-.09Zm.29,0H4c0-.27-.26-.21-.26-.47a.11.11,0,0,1,0-.09,1.52,1.52,0,0,1,.4-.4c.06,0,.09-.16.16-.16h.07v.19c0,.19-.16.28-.16.46l0,.28c0,.09-.1.11-.15.2Zm-.63-.51H3.35a2.79,2.79,0,0,0,0-.29c0-.16.5-.67.71-.77h.08v.19a.57.57,0,0,1,0,.13.55.55,0,0,1-.09.14C3.92,23.6,3.62,24.07,3.43,24.07ZM5,13.9l0,.38c.08,0,0,.09.08.09s.4-.33.38-.41a2.91,2.91,0,0,1,0-.4c0-.11,0-.26,0-.33C5,13.32,5.15,13.57,5,13.9Zm-.59.82.09.53s.35-.6.43-.53a4.9,4.9,0,0,1-.11-1,1.11,1.11,0,0,0-.41,1C4.5,15.25,4.39,14.72,4.39,14.72Zm-.3.12a1.29,1.29,0,0,0-.37.71l.21.37.33-.57a.6.6,0,0,0-.13-.55C3.9,14.61,4.09,14.84,4.09,14.84Zm-.15,2a1.67,1.67,0,0,0,.69.52,5,5,0,0,1-.46-.68,1.29,1.29,0,0,0-.56-.77l-.1.12-.06.24c0,.08,0,.26,0,.34a3.15,3.15,0,0,1,.29.22ZM3.82,17a1.3,1.3,0,0,0-.43-.21c-.08,0-.08.15-.08.23s0,.1.11.18a1.52,1.52,0,0,0,.49.35h.47c-.18-.16-.27-.37-.49-.51Zm-.66.7c.07.07.06.24.34.34h.26a3.87,3.87,0,0,1,.74-.15c.39,0,.22.1.51.1a.19.19,0,0,0,.18-.15,1.11,1.11,0,0,0-.47-.12.58.58,0,0,0-.41,0l-.48-.05c-.28-.1,0,.08-.23,0s-.13-.11-.39,0ZM4.54,18c-.16,0-.21.11-.38.11l-.86.08c-.19,0-.19.05-.29.19.15.09.2.24.37.26l.6-.16a1.81,1.81,0,0,0,.52-.21c.21,0,.26.09.4.09s.13-.06.2-.14Zm-.19,2c0-.08,0-.33,0-.41s.12-.1.12-.23v-.23c0-.31.49-.33.52-.64a1.6,1.6,0,0,1-.42-.07c-.41,0-.37.19-.77.22a1.54,1.54,0,0,1-.6,0,2.87,2.87,0,0,0-.44.38.88.88,0,0,0,.34.19,2.73,2.73,0,0,0,.73-.22,3.61,3.61,0,0,1,.64-.2c-.13.14-.17.19-.18.18s.26-.32-.05.14a1,1,0,0,1-.59.22,1.76,1.76,0,0,1-.58.11c-.2.09-.36.27-.27.44l.56,0c.15-.1.21-.16.37-.25s.28-.24.46-.27l.09.1-.37.26-.51.36a1.56,1.56,0,0,1-.57,0c-.11.05-.15.18-.19.23s-.14.14.49.19a.92.92,0,0,0,.61-.42A1,1,0,0,1,4.13,20h.11Zm1.77-4.34S6,14.34,6.5,13.94a.71.71,0,0,1,.12-.38s-.56.24-.64.7a5,5,0,0,0-.1,1.51s0,.23.18.19.09,0,.06-.23S6.12,15.71,6.12,15.71Zm-.4-1.66a1.1,1.1,0,0,0-.51.95,3.36,3.36,0,0,0,.37,1.29s.22.13.18-.17a4.58,4.58,0,0,1,.17-2s0-.14-.18,0S5.72,14.05,5.72,14.05Zm-.4,2.13a7.89,7.89,0,0,1-.38-1.33s-.27,0-.24.71a1.64,1.64,0,0,0,.47,1.28l.09-.11.11,0,.09-.19a.59.59,0,0,0-.13-.31Zm-.13,1.19-.13-.2s0-.28-.12-.32a5.67,5.67,0,0,1-.54-1.38.82.82,0,0,0-.22.8,3,3,0,0,0,.68,1,.57.57,0,0,1,.13.33s.17.16.25.06.13-.06,0-.23S5.19,17.37,5.19,17.37Zm-1.3,5.54s0-.05,0-.08l0-.4H3.8c-.22.18-.45.2-.45.46,0,0,0,.09,0,.13s0,.35.13.35.07-.11.13-.13.21-.27.36-.34Z"/></g></svg>