<svg id="Layer_1" data-name="Layer 1" xmlns="http://www.w3.org/2000/svg" viewBox="0 0 60 45"><defs><style>.cls-1{fill:#2b3130;}</style></defs><path class="cls-1" d="M52.65,16.37l.69-1.29a.5.5,0,0,0,0-.21V7.51h2.93V22.26H53.39V18.18h0c-.07.2-.14.4-.2.6a.94.94,0,0,1-.22.46l0,0c-.06.2-.13.4-.2.59l-.15.38c0,.1-.1.21-.14.31-.16.38-.32.76-.46,1.15-.07.19-.11.39-.17.59s-.09.17-.12.26c-.16.42-.32.85-.47,1.28,0,.11,0,.24-.06.34a3.16,3.16,0,0,1-.16.43c0,.06-.07.12-.1.19a3,3,0,0,0-.21.54,4.43,4.43,0,0,0-.17.72,1,1,0,0,1-.17.44c0,.05-.06.1-.09.16a11.13,11.13,0,0,0-.58,1.86,8.79,8.79,0,0,1-.32,1,14.53,14.53,0,0,0-.45,1.69c-.16.76-.36,1.51-.51,2.27S48.11,35,48,35.76a2,2,0,0,0,.11,1,1.48,1.48,0,0,0,.13.21,1.24,1.24,0,0,1,.1.2l.07.16a.57.57,0,0,1-.52.19,2.55,2.55,0,0,1-.54-.15,1,1,0,0,1-.62-.58,3.11,3.11,0,0,1-.08-1.57c.22-1.2.45-2.41.73-3.59s.62-2.37.94-3.56.83-2.61,1.28-3.89c.29-.83.58-1.64.87-2.46a.59.59,0,0,0,.05-.13c-.19.13-.37.2-.45.41a2.32,2.32,0,0,1-.24.53c-.19.29-.2.67-.49.9-.06,0-.07.13-.11.19s-.16.27-.24.39l-.14.25-.35.69a1.37,1.37,0,0,1-.15.21.51.51,0,0,0-.13.31,1.35,1.35,0,0,1-.18.36,2.79,2.79,0,0,1-.18.34c-.25.4-.49.81-.76,1.21a14.19,14.19,0,0,0-.88,1.39,8,8,0,0,1-.5.74l0,0c-.08.16-.17.31-.25.46l-.66,1.23c-.14.27-.3.52-.46.78l-.45.73a13.11,13.11,0,0,1-1.26,1.79.77.77,0,0,1-.84.3l-.42-.15a2.47,2.47,0,0,1-.86-.75l0,0,.07,0c-.06-.23-.1-.45-.15-.66a9.92,9.92,0,0,1-.24-1.05,2.68,2.68,0,0,1,.05-.75,13.8,13.8,0,0,1,1.25-3.92c.24-.48.53-.93.81-1.38a5,5,0,0,1,1.43-1.45l0,0c.28,0,.5-.25.8-.2a3.69,3.69,0,0,1,.81.2,6.06,6.06,0,0,1,1.15.62,4.06,4.06,0,0,1,.49.44,1.14,1.14,0,0,1,.11.11c.11.09.18.06.24-.06s.19-.32.26-.49a1.55,1.55,0,0,0,0-.23c.11,0,.15-.06.18-.16a.33.33,0,0,0,0-.14.33.33,0,0,1,0-.1s0,0,.07,0,.1,0,.11-.05a1.79,1.79,0,0,0,.12-.24l-.1,0,.26-.14.06,0v0a.37.37,0,0,1,.06-.32c.27-.48.53-1,.8-1.43a2,2,0,0,1,.19-.22.21.21,0,0,0,0-.06c-.42.1-.83.23-1.25.3a6.38,6.38,0,0,1-3.27-.27,4.71,4.71,0,0,1-3-3,6.67,6.67,0,0,1,0-4.68,4.8,4.8,0,0,1,3.67-3.14,6.35,6.35,0,0,1,3.61.21,4.85,4.85,0,0,1,3.17,3.59C52.53,15.62,52.58,16,52.65,16.37Zm-2.95.56a5.68,5.68,0,0,0-.16-1.42A2.72,2.72,0,0,0,48.7,14a2.46,2.46,0,0,0-2.15-.49A2.13,2.13,0,0,0,44.85,15a5.3,5.3,0,0,0,0,3.78A2.21,2.21,0,0,0,47,20.35a2.31,2.31,0,0,0,2.37-1.55A4.9,4.9,0,0,0,49.7,16.93ZM46.49,27.34a.27.27,0,0,1,.15-.36c.07,0,.15,0,.06-.12a.07.07,0,0,1,0-.05c0-.11-.07-.16-.14-.21s-.13-.1-.15-.16a2.34,2.34,0,0,0-.53-.79s-.09-.07-.13-.06a.77.77,0,0,0-.33.12,7.29,7.29,0,0,0-.81.66,6.05,6.05,0,0,0-1,1.4c-.31.57-.63,1.13-.89,1.73a16,16,0,0,0-.87,3.13,3,3,0,0,0-.05,1c0,.13.07.15.16.07a5.68,5.68,0,0,0,.87-.9c.29-.41.55-.81.83-1.23l1.23-1.89c0-.07.08-.15.13-.22l.53-.78c.14-.2.35-.35.38-.63l.09.06a.6.6,0,0,0,.08-.21.32.32,0,0,1,.13-.21c.06,0,.15-.15.14-.2S46.41,27.38,46.49,27.34ZM48,34.51h0l0-.15c0-.12,0-.24,0-.35l.18-.74c.18-.8.36-1.6.56-2.4.11-.42.26-.84.39-1.26l.33-1.12a.51.51,0,0,0,0-.18,1.69,1.69,0,0,0-.17.27c-.1.33-.18.66-.29,1s-.16.48-.25.72a.6.6,0,0,1-.09.13l0,0,.13-.48,0,0-.24.86a0,0,0,0,0,0,0,.6.6,0,0,1,0,.49,5.39,5.39,0,0,1-.18.66,1.62,1.62,0,0,1-.1.18l0,0a2.5,2.5,0,0,0,.09-.25l.06-.25a2.34,2.34,0,0,0,0-.26h0c-.08.31-.16.62-.23.94,0,0,0,.09,0,.1s.07.1,0,.13,0,0-.07,0c.19.08,0,.25.14.35l0,0-.13,0c0,.08.11.17,0,.2,0,.07.11.16,0,.19s-.09.07-.07.15a.37.37,0,0,1,0,.18c0,.19,0,.39,0,.59A1.77,1.77,0,0,0,48,34.51ZM51.3,22.38C51.19,22.5,50,25.93,50,26,50.51,24.84,50.89,23.6,51.3,22.38Zm-1.51,2.29,0,0c-.07.18-.16.36-.23.54s-.11.4-.17.6-.13.38-.2.56l.06,0C49.39,25.8,49.59,25.24,49.79,24.67Zm-.92,2.87,0,0c-.24.21-.16.52-.24.77l.06,0C48.71,28.06,48.79,27.79,48.87,27.54Zm1.07-1.13,0,0-.36,1.05,0,0Zm-1.88,3.88h0a2.42,2.42,0,0,0,.1-.36,2.2,2.2,0,0,0,0-.36h-.07C48.06,29.8,48.11,30.05,48.06,30.29Zm-.82,2.49h0c.18-.14.07-.34.09-.52C47.33,32.45,47.29,32.62,47.24,32.78Zm1-1.31a.56.56,0,0,0-.12.4C48.24,31.76,48.22,31.61,48.23,31.47ZM48,32.92l-.05,0c0,.1,0,.2-.07.3h.06Zm1.27-4.48h0c0-.14.09-.26.13-.4h0C49.32,28.17,49.28,28.3,49.23,28.44Zm-.61,1.48-.07,0,0,.19h.06A1.16,1.16,0,0,1,48.62,29.92Z"/><path class="cls-1" d="M15.23,33l-.15.17h0l.05,0c.67-.49,1.35-1,2-1.49a3.15,3.15,0,0,0,.49-.54s0-.12.05-.18a20.16,20.16,0,0,1,.72-2.49,10.79,10.79,0,0,1,2.13-3.74,2.4,2.4,0,0,1,1.12-.62s.06,0,.09,0a3,3,0,0,1,1.64.79,1,1,0,0,1,.33.84c0,.44-.1.89-.15,1.34,0,.13-.11.16-.25.1a1.22,1.22,0,0,1-.64-.78c-.09-.3-.16-.62-.23-.93,0-.15-.13-.2-.25-.11s-.34.32-.51.49a1.7,1.7,0,0,0-.15.22c-.29.44-.62.87-.87,1.33s-.52,1.15-.79,1.72a1.83,1.83,0,0,0-.11.8.24.24,0,0,1,0,.09l-.2.29a2.22,2.22,0,0,0-.37.93c-.07.46-.18.92-.23,1.38a4.42,4.42,0,0,0,0,.89c0,.29.18.39.45.31a4,4,0,0,0,1.05-.42l2.23-1.51c.07,0,.17-.06.24-.11a1.42,1.42,0,0,0,.25-.24.4.4,0,0,1,.24-.16c.05,0,.09-.06.17-.11,0,.11,0,.18-.06.28l.41-.29s0,0,0,0l-.22.25c-.05.05-.11.08-.15.13s-.16.09-.21,0l-.43.25s-.06,0-.08.06a.21.21,0,0,0,0,.11l.11,0,.12-.05,0,0-.16.17c-.07.06-.14.12,0,.22l0,0a.8.8,0,0,1-.16-.08c-.05.08,0,.14.08.14a.67.67,0,0,0,.52-.28,1,1,0,0,1,.38-.26s0,0,0,0l-.24.25,0,0a1.05,1.05,0,0,0,.28-.31.33.33,0,0,1,.11-.09,2,2,0,0,0,.58-.41l0,0-.28.17s0,0,0,0a.41.41,0,0,1,.28-.23.1.1,0,0,0,.09-.12l0-.29-.45.21,0-.05.39-.25c.17-.09.15-.26.2-.41l0,0a.54.54,0,0,1-.09.12l-.69.67a.21.21,0,0,1-.1.06h-.08a.27.27,0,0,1,0-.09.09.09,0,0,1,0-.07c.24-.06.29-.31.46-.44s.34-.28.5-.42a.21.21,0,0,0,.07-.12c.05-.19.09-.39.14-.58,0,0,0,0,0,0,.21-.24.21-.57.35-.84l.18-.4A1.66,1.66,0,0,1,25.5,28s0-.07,0-.09l.57-1c.08-.13.18-.26.26-.4s.05-.16.09-.25,0-.1.07-.13l1-1a.2.2,0,0,0,.08-.12.24.24,0,0,1,.34-.15c.05,0,.1,0,.15,0l.3.13a.78.78,0,0,1,.21.09l.47.32a.76.76,0,0,0,.26.06c.34,0,.67,0,1,.1A2.54,2.54,0,0,1,32,26.62a1.48,1.48,0,0,1,.24.82c0,.41,0,.82.06,1.19l.08-.24.09-.28c.25-.72.48-1.45.74-2.17.15-.43.34-.86.5-1.29a.56.56,0,0,1,.45-.37,1.06,1.06,0,0,1,1,.24.26.26,0,0,1,.11.28c-.09.3-.16.61-.27.91-.32.9-.65,1.78-1,2.66-.07.22-.12.45-.18.67a.61.61,0,0,1-.07.14l-.2.47-.15.46a.29.29,0,0,0,0,.16,7.28,7.28,0,0,0,.7-1.25,1.49,1.49,0,0,0,.21-.22L35.61,27c.17-.25.31-.53.5-.77a6.93,6.93,0,0,1,.73-.8c.06-.07.15-.09.16-.19s.08-.07.12-.11l.15-.14,0-.06c-.06,0-.14,0-.19.1s-.39.37-.59.54-.26.2-.39.3l-.05.05a1.18,1.18,0,0,1-.13.3c-.26.36-.53.71-.79,1.06a.78.78,0,0,1-.26.21,1.22,1.22,0,0,0-.3.3c-.08.09-.14.18-.21.27l0,0a1.81,1.81,0,0,1,.19-.29l.43-.45a.25.25,0,0,0,.06-.17.5.5,0,0,1,.19-.37v.18l0,0,.63-.8,0,0-.44.47,0,0a4.49,4.49,0,0,1,1-1.09c0-.1,0-.17.1-.25a1.59,1.59,0,0,1,1.93-.35,1.56,1.56,0,0,1,.71.68,4,4,0,0,1,.47,1.54,1,1,0,0,0,.43.83c.05,0,.07.12.09.18a.57.57,0,0,1,0,.13c0,.32-.16.43-.46.32a2.19,2.19,0,0,1-.54-.3,3.13,3.13,0,0,1-.42-.47,3.93,3.93,0,0,1-.56-1.37L38,25.86a.29.29,0,0,0,0-.13.7.7,0,0,0-.14-.16l-.11.14a.69.69,0,0,0-.17.05c-.16.15-.32.29-.46.45a29,29,0,0,0-2.58,3.65,21.09,21.09,0,0,0-2,4.36,4.18,4.18,0,0,0-.1.51.29.29,0,0,0,0,.09c0,.1,0,.19,0,.31l-.31,0-.06,0c0-.14-.17-.11-.28-.15a1,1,0,0,1-.75-.95,2.89,2.89,0,0,1,.08-.58c.2-.85.41-1.7.62-2.55.06-.21.13-.4.18-.61l0,.05A14.28,14.28,0,0,1,30,33,3.46,3.46,0,0,1,28,34.15a6.08,6.08,0,0,1-.67.18,6.94,6.94,0,0,1-.79,0,1.22,1.22,0,0,1-.93-.46,2.74,2.74,0,0,0-.51-.45,1.53,1.53,0,0,1-.69-1.15.13.13,0,0,0,0-.05l-.05,0-.77.73a1.66,1.66,0,0,1-.3.22l-2,1.32a1.55,1.55,0,0,1-.75.27,4.64,4.64,0,0,1-.65,0,1.64,1.64,0,0,1-.44-.09,3.49,3.49,0,0,1-.7-.34,2.75,2.75,0,0,1-.44-.46c-.09-.11-.16-.24-.26-.37l-.07.12a2.2,2.2,0,0,1-.4-.83l-.49.42a8.13,8.13,0,0,1-2.58,1.45,1,1,0,0,1-.8,0,1.51,1.51,0,0,0-.32-.11,2.9,2.9,0,0,1-1.16-.65l-.29-.26A2.71,2.71,0,0,1,11,31.9a7.59,7.59,0,0,1,.51-4,8,8,0,0,1,.85-1.57c.16-.24.34-.48.52-.7a3,3,0,0,1,.34-.25c.09-.08.16-.17.26-.25.28-.21.56-.44.87-.63a1,1,0,0,1,.41-.14,1,1,0,0,1,.75.18,4.15,4.15,0,0,0,.57.35,3,3,0,0,1,.71.51,1.46,1.46,0,0,1,.38,1.47,5,5,0,0,1-.8,1.59l-.76,1-.26.43c-.08.11-.16.24-.25.34l-1.2,1.24a1.77,1.77,0,0,1-.55.37,3.83,3.83,0,0,0-.67.4.21.21,0,0,0-.05.13l.21,1a.18.18,0,0,0,.19.15,2.43,2.43,0,0,0,1.87-.38l.31-.21Zm14.44-1.16c.16.06.2,0,.29-.11a2.72,2.72,0,0,1,.16-.25c.28-.37.57-.72.83-1.11a10.37,10.37,0,0,0,.53-1l-.13-.07a1.27,1.27,0,0,0,.38-1l-.14,0a.69.69,0,0,1,.05-.17.43.43,0,0,0,0-.45,2,2,0,0,1-.05-.24c0-.24,0-.48-.08-.73s-.08-.17-.24-.16c0,.26.2.51,0,.77.13.08.11.52,0,.66.11.05.11.15.09.24-.08.28-.12.56-.2.83a5.17,5.17,0,0,1-.4,1s0,0,0,0L30.71,30a.39.39,0,0,0,0,.15.34.34,0,0,1,0,.14,4.48,4.48,0,0,1-.28.47l-.67,1a.24.24,0,0,0,0,.1.93.93,0,0,0-.33.45l.31-.31,0,0A1,1,0,0,1,29.67,31.82Zm-2.39-3.74c0,.05,0,.06,0,.07-.1.24-.34.4-.42.65l0,0a1.13,1.13,0,0,0-.1.13c-.14.34-.29.68-.4,1a13.06,13.06,0,0,0-.42,1.48,5.42,5.42,0,0,0,0,1.14,3.85,3.85,0,0,0,.1.68c0,.15.11.18.25.17a3.81,3.81,0,0,0,.95-.19,4.4,4.4,0,0,0,1.52-.82,8.64,8.64,0,0,0,1.6-2A5.61,5.61,0,0,0,31,29a3.13,3.13,0,0,0,.16-1.09.65.65,0,0,1,0-.15l.11.06c-.15-.15-.12-.35-.14-.53a2.64,2.64,0,0,0-.21-.87.15.15,0,0,0-.17-.1c-.8,0-1.59.06-2.39.11a.39.39,0,0,0-.25.1,2.8,2.8,0,0,0-.39.45c-.22.35-.42.71-.62,1.06a1.62,1.62,0,0,0-.06.17A.42.42,0,0,0,27.28,28.08ZM15.84,25.32a.91.91,0,0,0-.1.1,8.55,8.55,0,0,1-1.16,1.09,1,1,0,0,0-.18.17c-.07.09-.12.21-.2.31a3.74,3.74,0,0,0-.73,1.25c-.2.56-.47,1.09-.68,1.65a3.28,3.28,0,0,0-.17,1.43s0,.05.06.07,0-.06,0-.09,0-.12.07-.16a.86.86,0,0,0,.46-.38c0-.09.17-.13.14-.25s0,0,0,0,.13-.1.18-.16.32-.37.47-.56.22-.35.34-.52c.31-.45.64-.89,1-1.35.11-.16.21-.34.31-.51a.67.67,0,0,0,.06-.17h-.09a4.6,4.6,0,0,0,.37-1.3A.79.79,0,0,0,15.84,25.32Zm21.36.05-.24.27a19.26,19.26,0,0,0-1.72,2.21,6.48,6.48,0,0,0-.33.57.23.23,0,0,1-.08.11.7.7,0,0,0-.34.42,1.64,1.64,0,0,0,0,.22.59.59,0,0,1,0,.13l-.11-.06c-.15.19-.33.36-.23.64a.5.5,0,0,0-.43.42s0,.05,0,.06,0,.19,0,.24a.85.85,0,0,0-.39.52c-.06.18-.15.35-.22.53a.94.94,0,0,0-.07.22,2.09,2.09,0,0,0-.07.33,1.54,1.54,0,0,0,.25-.27c.14-.23.24-.47.36-.7.54-1,1.07-1.91,1.63-2.84.28-.48.61-.94.93-1.41a.58.58,0,0,1,.13-.14.54.54,0,0,0,.24-.35,1.88,1.88,0,0,1,.76-.89C37.29,25.54,37.31,25.49,37.2,25.37Zm-8.62,8c.08.14.19.1.28,0a2,2,0,0,0,.33-.24,8.35,8.35,0,0,0,2-2.45,6.18,6.18,0,0,0,.79-2,3.91,3.91,0,0,0,0-1.32l0-.08a.7.7,0,0,0,0,.14c0,.23,0,.47,0,.71a5,5,0,0,1-.18,1,9.41,9.41,0,0,1-1,1.88c-.34.48-.76.91-1.15,1.36-.07.08-.12.14-.09.25l0,0c-.21,0-.29,0-.39.27a1,1,0,0,0-.7.46Zm2.87-.2h0a1,1,0,0,0,.08-.18c.13-.44.25-.88.39-1.32.3-1,.59-2,.9-3,.19-.63.4-1.26.59-1.89l.09-.3a.36.36,0,0,0-.1.15c-.15.36-.29.71-.43,1.08s-.28.8-.42,1.2c0,.15-.1.3-.14.46s-.07.33-.12.5l-.78,2.77C31.5,32.82,31.48,33,31.45,33.17ZM18.17,30.45a.13.13,0,0,0,0-.06c0-.16.17-.27.19-.45a1.92,1.92,0,0,1,.17-.43,19,19,0,0,1,1.27-3l.21-.44c.07-.15.16-.31.24-.47s0-.06,0-.09-.09,0-.11,0-.1.16-.15.23a6.16,6.16,0,0,0-.85,1.55c-.11.29-.24.56-.36.84a0,0,0,0,1,0,0c-.11,0-.1.11-.11.18s0,.16-.05.23c0,.23-.24.39-.18.64l0,0a.37.37,0,0,0,0,.14.78.78,0,0,1-.21.56.22.22,0,0,0-.05.08C18.35,30.21,18.11,30.32,18.17,30.45ZM33.5,28.52l0,0c0,.05,0,.09-.07.13l-.33,1-.81,2.56a1,1,0,0,0,0,.17s.09-.08.11-.13l.27-.92c.19-.64.38-1.29.58-1.93C33.31,29.11,33.41,28.82,33.5,28.52Zm-7.34-.61-.05,0c-.07.06-.17.1-.2.16-.17.35-.32.71-.47,1.07a3.91,3.91,0,0,0-.18.49l.18-.16a.82.82,0,0,0,.16-.22c.09-.23.17-.47.26-.7a.14.14,0,0,1,0-.06,3.17,3.17,0,0,0,.23-.36A.32.32,0,0,0,26.16,27.91Zm-.05-.12.07,0,.46-.89a.05.05,0,0,1,0,0l-.34.48a1.51,1.51,0,0,0-.15.28S26.11,27.75,26.11,27.79Zm-7.83,2.68h0a.91.91,0,0,1-.07.14s0,.12-.05.16a.63.63,0,0,0-.15.57.87.87,0,0,0,.16-.23C18.19,30.89,18.23,30.68,18.28,30.47ZM25,30.28a1,1,0,0,0,.38-.7A1,1,0,0,0,25,30.28ZM17.36,32a.51.51,0,0,0,.22-.51C17.32,31.76,17.25,31.85,17.36,32ZM28,33.34l0,0a.91.91,0,0,0,.52-.31l0,0ZM25.62,29.7a.46.46,0,0,0,.17-.37A.36.36,0,0,0,25.62,29.7Zm12-4.43,0-.07-.28.13s0,0,0,.05ZM25.25,31a1.81,1.81,0,0,1-.15.19C25.26,31.18,25.29,31.15,25.25,31Zm-.32-.45.06.05.21-.22h0Z"/><path class="cls-1" d="M0,7.51H2.92v5.37L3,12.82a3.6,3.6,0,0,1,2.28-1.43,4.18,4.18,0,0,1,3.27.54,4.62,4.62,0,0,1,1.86,2.5,8.14,8.14,0,0,1,.36,3,6.93,6.93,0,0,1-.55,2.46,4.38,4.38,0,0,1-2.37,2.41A4.16,4.16,0,0,1,6,22.56a5.05,5.05,0,0,1-1.8-.39A2.88,2.88,0,0,1,2.87,21l-.08-.1v1.37H0Zm7.83,9.43c0-.14,0-.28,0-.42a4.6,4.6,0,0,0-.5-1.85A2.28,2.28,0,0,0,4,13.92,2.82,2.82,0,0,0,3.1,15.2a5.28,5.28,0,0,0-.24,2.4,4,4,0,0,0,.47,1.55,2.21,2.21,0,0,0,2.38,1.17,2.14,2.14,0,0,0,1.61-1.16A4.3,4.3,0,0,0,7.83,16.94Z"/><path class="cls-1" d="M24.15,22.57A5.91,5.91,0,0,1,21.58,22,4.8,4.8,0,0,1,19,19.11a6.75,6.75,0,0,1,0-4.48,4.8,4.8,0,0,1,3.7-3.2,6.49,6.49,0,0,1,3.47.15,4.76,4.76,0,0,1,3.14,3.09,6.69,6.69,0,0,1,0,4.5,4.86,4.86,0,0,1-3.72,3.24A6.11,6.11,0,0,1,24.15,22.57Zm2.67-5.63a5.76,5.76,0,0,0-.16-1.43A2.8,2.8,0,0,0,25.81,14a2.5,2.5,0,0,0-2.14-.48A2.1,2.1,0,0,0,22,15a5.35,5.35,0,0,0,0,3.86,2.19,2.19,0,0,0,2.18,1.53,2.3,2.3,0,0,0,2.37-1.56A4.87,4.87,0,0,0,26.82,16.94Z"/><path class="cls-1" d="M41,15.33H38.14c0-.14-.06-.27-.1-.4a1.92,1.92,0,0,0-1.77-1.43,2.21,2.21,0,0,0-1.88.62,2.77,2.77,0,0,0-.66,1.15,5.19,5.19,0,0,0,.11,3.66,2.16,2.16,0,0,0,1.27,1.29,2.27,2.27,0,0,0,3-1.64l.09-.4h2.83q0,.27-.09.51a4.6,4.6,0,0,1-3.81,3.76,6.26,6.26,0,0,1-3.35-.25,4.71,4.71,0,0,1-2.91-2.9,6.54,6.54,0,0,1,.33-5.37,4.68,4.68,0,0,1,3.55-2.55,6.27,6.27,0,0,1,3.63.37,4,4,0,0,1,2.47,2.82C41,14.82,41,15.07,41,15.33Z"/><path class="cls-1" d="M11.8,11.58h2.79v2l0,0a3.66,3.66,0,0,1,1.66-1.81,3.2,3.2,0,0,1,2.4-.38v2.72c-.27,0-.54-.06-.81-.07a3.17,3.17,0,0,0-1.43.19A2.42,2.42,0,0,0,15,15.85a4.52,4.52,0,0,0-.23,1.5c0,1.58,0,3.17,0,4.75v.16H11.81C11.8,18.7,11.8,15.15,11.8,11.58Z"/><path class="cls-1" d="M57.08,11.58H60V22.27H57.08Z"/><path class="cls-1" d="M3.89,30.3a4.55,4.55,0,0,0,.7-1.24,1.81,1.81,0,0,0,.24-.24c.42-.59.85-1.19,1.26-1.79.18-.26.33-.55.53-.8a7.86,7.86,0,0,1,.73-.8c.06-.06.14-.09.16-.19s.08-.07.12-.11L7.78,25l0,0a.42.42,0,0,0-.19.09c-.2.16-.38.34-.57.52a1.14,1.14,0,0,1-.42.33s0,0,0,.05a1.56,1.56,0,0,1-.11.26l-.87,1.16c-.06.07-.17.1-.24.17s-.21.23-.32.34a.81.81,0,0,1-.18.19l.12-.2a1.88,1.88,0,0,1,.5-.55c.05,0,.06-.12.07-.18a.44.44,0,0,1,.19-.36v.1a.38.38,0,0,0,0,.1,4.18,4.18,0,0,0,.63-.81l-.44.46,0,0a5.37,5.37,0,0,1,1-1.08c0-.09,0-.16.1-.24a1.64,1.64,0,0,1,2.54.14,3.54,3.54,0,0,1,.56,1.54c0,.12,0,.24,0,.35a.94.94,0,0,0,.39.63.59.59,0,0,1,.08.6.16.16,0,0,1-.09,0c-.14,0-.28.06-.41-.07s-.23-.07-.33-.13a1.94,1.94,0,0,1-.55-.59,4.3,4.3,0,0,1-.6-1.57c0-.16-.07-.31-.11-.46a1,1,0,0,0-.13-.16l-.13.14c-.06,0-.13,0-.16.05a4,4,0,0,0-.47.45c-.6.75-1.2,1.51-1.74,2.31A26,26,0,0,0,3.42,33c-.19.49-.35,1-.52,1.49a2.49,2.49,0,0,0-.09.46.72.72,0,0,0,0,.19l-.35,0s0,0,0,0-.19-.11-.29-.15A1.07,1.07,0,0,1,1.41,34a3.43,3.43,0,0,1,.07-.56c.16-.7.31-1.39.5-2.07.25-.85.53-1.69.79-2.54.18-.55.33-1.1.52-1.64.3-.83.62-1.64.92-2.47a.61.61,0,0,1,.51-.41,1,1,0,0,1,1,.26.24.24,0,0,1,.09.26c-.08.31-.16.63-.26.94-.32.89-.65,1.77-1,2.65-.08.22-.11.45-.18.68l-.07.14c-.07.15-.13.3-.19.45S4,30,4,30.12A.27.27,0,0,0,3.89,30.3Zm.72-.42a.5.5,0,0,0-.43.39s0,.08,0,.1,0,.18-.06.23a.87.87,0,0,0-.39.53c-.06.18-.15.35-.22.53a.65.65,0,0,0-.07.21,2.24,2.24,0,0,0-.07.34,2.05,2.05,0,0,0,.25-.27c.13-.23.23-.48.36-.71.54-1,1.08-1.93,1.65-2.88.28-.47.6-.92.91-1.37a.29.29,0,0,1,.13-.14c.15-.07.19-.22.24-.35a1.94,1.94,0,0,1,.76-.89c.12-.08.13-.07,0-.25a3,3,0,0,1-.21.26A19.82,19.82,0,0,0,5.62,28c-.08.12-.13.26-.2.39a.27.27,0,0,1-.09.12A.77.77,0,0,0,5,29c0,.05,0,.1,0,.15a.53.53,0,0,1,0,.13l-.12-.06C4.69,29.43,4.5,29.6,4.61,29.88ZM1.94,33.17H2A.56.56,0,0,0,2.05,33c.14-.44.26-.88.39-1.32l.9-3c.2-.63.4-1.26.59-1.88,0-.11.06-.21.09-.31a.49.49,0,0,0-.1.15c-.15.38-.3.76-.44,1.14s-.28.77-.41,1.15c0,.15-.1.29-.14.45s-.07.33-.11.5c-.26.92-.53,1.85-.78,2.77A4.18,4.18,0,0,0,1.94,33.17ZM4,28.48s0,0,0,.05a.31.31,0,0,0-.05.1c-.12.35-.23.69-.34,1-.26.85-.53,1.69-.8,2.53a1.33,1.33,0,0,0,0,.2s.11-.1.12-.15c.1-.34.19-.68.29-1l.63-2.05C3.86,29,3.92,28.73,4,28.48Zm4.07-3.21,0,0c-.12,0-.2.05-.28.12s0,0,0,0A2.52,2.52,0,0,1,8.07,25.27Z"/><path class="cls-1" d="M53.5,33.5l.57-.26s.07-.06.06-.09,0-.12.12-.16c.27-.11.55-.23.82-.36,0,0,.12-.05,0-.13a.09.09,0,0,1,0-.09c.08-.1.18-.18.26-.29s.2-.26.3-.39a.12.12,0,0,0-.05-.19,12.38,12.38,0,0,0-1.56-.74c-.73-.26-1.44-.55-2.15-.84a5.71,5.71,0,0,1-.64-.35,2.62,2.62,0,0,1-1-1.12,2.21,2.21,0,0,1-.13-.59,1,1,0,0,1,.13-.75,2.31,2.31,0,0,1,.14-.19.05.05,0,0,0,0,0l-.06.12a.61.61,0,0,0,.23-.37.18.18,0,0,1,.05-.12,4.55,4.55,0,0,1,.35-.4,12.83,12.83,0,0,1,2.47-2,12.1,12.1,0,0,1,1.52-.78,4.47,4.47,0,0,1,1.62-.22l.08,0,.5.43a1.61,1.61,0,0,1,.49,1.22c0,.14-.05.18-.19.13s-.09,0-.11-.06a.5.5,0,0,0-.37-.11.65.65,0,0,1-.45-.25l.1-.09v0l-.47,0v0l.26,0v.05l-.35,0-.16,0a3,3,0,0,0-1.33.57,4.41,4.41,0,0,1-.64.36,1,1,0,0,0-.17.1A14.33,14.33,0,0,0,52.1,27c-.15.14-.32.27-.49.4l0,.05a1.42,1.42,0,0,1-.27.48,3.18,3.18,0,0,0-.31.61.18.18,0,0,0,.12.24c.37.17.72.36,1.11.5A16.07,16.07,0,0,1,55,30.43a3.55,3.55,0,0,1,1.14,1,1.67,1.67,0,0,0,.28.25s0,.09,0,.13a1.61,1.61,0,0,1,.09.87,1.39,1.39,0,0,1-.75,1.14c-.33.19-.67.38-1,.54s-.78.35-1.18.51a3.44,3.44,0,0,1-1,.28c-.3,0-.61.12-.92.14a3.42,3.42,0,0,1-1,0,3.57,3.57,0,0,1-1.28-.56,1.29,1.29,0,0,1-.29-1.86.72.72,0,0,1,.19-.14c0,.07,0,.15,0,.22,0,.3-.08.6-.09.9s.13.27.28.32a7.54,7.54,0,0,0,.82.2,3.21,3.21,0,0,0,1.07-.05,8.13,8.13,0,0,0,1.85-.59,1,1,0,0,1,.18-.06C53.51,33.63,53.53,33.57,53.5,33.5Zm-4.36.61a1.21,1.21,0,0,0,.77.53,4.61,4.61,0,0,0,2.3-.12A6.8,6.8,0,0,0,53.56,34l.18-.07V34a7.2,7.2,0,0,1-3.09.91.17.17,0,0,0,0,.07,2.38,2.38,0,0,0,.26.05,3.54,3.54,0,0,0,1.25-.22,14.77,14.77,0,0,0,1.61-.6,11.77,11.77,0,0,0,1.48-1,.81.81,0,0,0,.24-.28,1.28,1.28,0,0,0,.07-.28.12.12,0,0,0-.1,0c-.12.13-.24.24-.34.37s0,.08,0,.14l-.34.18-.48.29a.49.49,0,0,1-.16.05l0-.05.6-.45,0,0-.45.22a8.59,8.59,0,0,1-1.37.65l-.32.09c-.11,0-.23,0-.34.09l-.6.19-.11.08v0c-.05,0-.11-.08-.16-.08s-.1.05-.16.08-.09,0-.23,0h-.52a2.21,2.21,0,0,1-1-.28Zm2.43-7.76s0,0,0,0L53,25.23l0,0A11.87,11.87,0,0,0,51.57,26.35Zm0,0-.05,0-.39.46s0,0,0,0l.36-.37S51.54,26.43,51.56,26.4Zm-.93,1.14a.05.05,0,0,0,0,0l.29-.4,0,0Zm.62-1.44,0,0,.25-.21,0,0Z"/><path class="cls-1" d="M57.07,9.92V7.51H60V9.92Z"/><path class="cls-1" d="M4.4,29c0-.13.08-.2.19-.27L4.45,29Z"/><path class="cls-1" d="M34.1,28.69c-.06.11-.1.21-.15.32C33.88,28.9,33.93,28.79,34.1,28.69Z"/><path class="cls-1" d="M34.34,29.54l-.17.21C34.13,29.58,34.19,29.52,34.34,29.54Z"/><path class="cls-1" d="M4.84,29.54a1.73,1.73,0,0,0-.17.21C4.63,29.58,4.68,29.52,4.84,29.54Z"/></svg>