<svg id="Layer_1" data-name="Layer 1" xmlns="http://www.w3.org/2000/svg" xmlns:xlink="http://www.w3.org/1999/xlink" viewBox="0 0 60 45"><defs><style>.cls-1{fill:none;}.cls-2{clip-path:url(#clip-path);}.cls-3{fill:#2b3130;}</style><clipPath id="clip-path"><rect class="cls-1" x="0.04" y="7.52" width="59.93" height="29.96"/></clipPath></defs><g class="cls-2"><path class="cls-3" d="M60,22.08,0,22.15v.33L60,22.4Z"/><path class="cls-3" d="M8.29,25.62A1.19,1.19,0,0,0,8.5,25a.17.17,0,0,0-.05-.12l0,0h0s0,0,0,0h0a2.12,2.12,0,0,0-.67.48,11.27,11.27,0,0,0-.94,1c-.13.15-.5.56-1.11,1.22l-.64.7-.54.58c.64-.36,1.14-.67,1.51-.93a11.26,11.26,0,0,0,1.56-1.33A5,5,0,0,0,8.29,25.62Zm.25-.95a.35.35,0,0,1,.22.41,2,2,0,0,1-.33.76,6.59,6.59,0,0,1-.92,1,12.47,12.47,0,0,1-1.63,1.27,15.2,15.2,0,0,1-1.71,1l-.2.21-.27.28-.44.46-.41.42a13.62,13.62,0,0,0-1,1.18,4.08,4.08,0,0,0-.44.7,1.34,1.34,0,0,0-.07.18c-.06.25,0,.4.19.44A1,1,0,0,0,2,33a3.43,3.43,0,0,0,.57-.26,9.6,9.6,0,0,0,1.14-.79.09.09,0,0,1,.12,0c.05,0,.05.07,0,.1a10.42,10.42,0,0,1-1.44,1,1.33,1.33,0,0,1-1.06.21A.57.57,0,0,1,1,32.62a2.48,2.48,0,0,1,.38-1.11,7.67,7.67,0,0,1,1-1.27h0L3.79,28.7c.84-.91,1.44-1.53,1.79-1.88s.77-.72,1.28-1.15l.24-.2.26-.21a1.83,1.83,0,0,1,.24-.19c.09-.08.18-.14.26-.2a1.31,1.31,0,0,1,.47-.22A.3.3,0,0,1,8.54,24.67Z"/><path class="cls-3" d="M4.63,32.89A5.45,5.45,0,0,0,6,32.08a3.55,3.55,0,0,1,.29-.64c.09-.14.15-.24.2-.3a1.32,1.32,0,0,0,0-.31.62.62,0,0,0-.17-.48l-.17,0a1,1,0,0,0-.25,0l-.18,0h0l-.08,0-.05,0h0l-.06,0,0,0a2.43,2.43,0,0,0-.25.2A1.81,1.81,0,0,0,5,31a3.2,3.2,0,0,0-.32.36,2.1,2.1,0,0,1-.16.2v0h0l-.1.15c-.06.07-.09.12-.12.16a1.36,1.36,0,0,0-.1.14,1,1,0,0,0-.1.16,1,1,0,0,0-.08.15l-.06.17c-.06.23,0,.38.1.45A.81.81,0,0,0,4.63,32.89Zm4-1a.09.09,0,0,1,.12,0c.05,0,.05.06,0,.1a9,9,0,0,1-1.44,1,1.3,1.3,0,0,1-1.06.22.57.57,0,0,1-.38-.61,1.94,1.94,0,0,1,0-.22c-.22.16-.41.29-.56.38a3.66,3.66,0,0,1-.83.43.8.8,0,0,1-.78-.07.66.66,0,0,1-.18-.68A2.87,2.87,0,0,1,4,31.34s0,0,0,0l0-.06a.35.35,0,0,1,.05-.08l0-.06c.13-.16.24-.29.34-.39a2.44,2.44,0,0,1,1-.66,1.28,1.28,0,0,1,.56,0,.65.65,0,0,1,.4.18l0,0a.71.71,0,0,1,.21.58v0c.17-.21.39-.47.67-.76A.34.34,0,0,1,7.54,30a.33.33,0,0,1,.24,0,.28.28,0,0,1,.15.15.18.18,0,0,1,0,.19,15,15,0,0,0-1.09,1.3,3.71,3.71,0,0,0-.45.7,1.34,1.34,0,0,0-.07.18c-.06.26,0,.41.2.45a1.06,1.06,0,0,0,.45-.07,3.56,3.56,0,0,0,.57-.27A10.69,10.69,0,0,0,8.65,31.86Z"/><path class="cls-3" d="M17.36,31.82a.12.12,0,0,1,.1,0,.13.13,0,0,1,0,.08.1.1,0,0,1-.08.06,1.79,1.79,0,0,1-1.25-.14,1.46,1.46,0,0,1-.33-.24h0a3.5,3.5,0,0,1-.71.75,4,4,0,0,1-1.79.92,1.05,1.05,0,0,1-.74-.1.6.6,0,0,1-.29-.63,2,2,0,0,1,.14-.63,2.69,2.69,0,0,1,.35-.64c.15-.21.29-.4.42-.55s.3-.34.5-.54a.36.36,0,0,1,.44-.1.27.27,0,0,1,.14.16.17.17,0,0,1,0,.19c-.2.22-.51.59-.93,1.12a4,4,0,0,0-.56.83,1.19,1.19,0,0,0-.07.23.55.55,0,0,0,0,.22.26.26,0,0,0,.12.19.55.55,0,0,0,.28.07,2.64,2.64,0,0,0,1.33-.45,3.69,3.69,0,0,0,1.2-1.06,1.18,1.18,0,0,1,.08-.12,2.68,2.68,0,0,1-.28-.38,1,1,0,0,1-.19-.36.43.43,0,0,1,.17-.55.5.5,0,0,1,.44-.06.44.44,0,0,1,.3.26.65.65,0,0,1,0,.46l0,.1a.51.51,0,0,0,0,.09,1,1,0,0,1-.06.2,1.2,1.2,0,0,1-.12.23,2.27,2.27,0,0,0,.31.25A1.56,1.56,0,0,0,17.36,31.82Z"/><path class="cls-3" d="M21.6,30.38a.31.31,0,0,0-.2.19.21.21,0,0,0,0,.25l0,0a1,1,0,0,0,.23-.21.27.27,0,0,0,.05-.22C21.72,30.36,21.68,30.35,21.6,30.38ZM18.86,31a5.74,5.74,0,0,0-.78.7l-.29.32h.07l.1,0,.35-.09a3.93,3.93,0,0,0,.7-.28,2.68,2.68,0,0,0,.65-.46c.27-.24.36-.41.26-.5a.36.36,0,0,0-.2-.06l-.16,0-.09,0-.08,0-.08,0-.07,0h0l-.2.12-.14.09A.1.1,0,0,1,18.86,31ZM25,32a.09.09,0,0,1,.12,0c.05,0,.05.06,0,.1a9.85,9.85,0,0,1-1.44,1,1.33,1.33,0,0,1-1.06.21.57.57,0,0,1-.38-.61,2.48,2.48,0,0,1,.38-1.11,5.52,5.52,0,0,1,.62-.85l-.46.13a4.64,4.64,0,0,1-1.14.17H21.5a2.17,2.17,0,0,1-.35.44,8.67,8.67,0,0,1-1.14.93c-.36.26-.66.45-.88.58a6.27,6.27,0,0,1-.64.3,2,2,0,0,1-.34.12h0a1.51,1.51,0,0,1-.34.08,1.48,1.48,0,0,1-.57,0,.59.59,0,0,1-.35-.25.52.52,0,0,1-.08-.43,2.27,2.27,0,0,1,.07-.22,1.38,1.38,0,0,1,.11-.22h0v0a6.44,6.44,0,0,1,1.43-1.62.23.23,0,0,1,.11-.05,2.38,2.38,0,0,1,.36-.2,1.68,1.68,0,0,1,.65-.11.77.77,0,0,1,.38.11.38.38,0,0,1,.21.2c.06.15-.06.36-.34.63a3,3,0,0,1-.78.52,4.33,4.33,0,0,1-.71.27,2.37,2.37,0,0,1-.61.11c-.12.15-.21.26-.26.34h0l0,.08,0,.08-.07.2h0V33h0l0,0s0,0,0,0h0v0h0v0a0,0,0,0,1,0,0h0s0,0,0,0l0,0h0l.06,0h.05a.88.88,0,0,0,.24,0,1.7,1.7,0,0,0,.28,0l.07,0,.08,0h0l.05,0,.06,0a4.75,4.75,0,0,0,.62-.3c.34-.2.73-.46,1.18-.78a6.2,6.2,0,0,0,.69-.58,2.68,2.68,0,0,0,.45-.52l-.1-.07a.45.45,0,0,1-.08-.22.34.34,0,0,1,.07-.22.46.46,0,0,1,.17-.17.4.4,0,0,1,.23-.08.25.25,0,0,1,.21.08.24.24,0,0,1,.06.2.51.51,0,0,1-.28.38h.21a4,4,0,0,0,1.08-.3,5.29,5.29,0,0,0,.51-.22l.2-.1a1.31,1.31,0,0,1,.24-.12.28.28,0,0,1,.2,0l.07,0a.28.28,0,0,1,.15.15.18.18,0,0,1,0,.19,15.44,15.44,0,0,0-1.09,1.31,3.74,3.74,0,0,0-.44.69c0,.06-.05.13-.07.18-.06.26,0,.41.19.45a1,1,0,0,0,.46-.07,4.51,4.51,0,0,0,.57-.26A12.77,12.77,0,0,0,25,32Z"/><path class="cls-3" d="M26.05,32.89a5.49,5.49,0,0,0,1.37-.81,3,3,0,0,1,.29-.64l.19-.31a1.17,1.17,0,0,0,.05-.3.62.62,0,0,0-.17-.48l-.17,0a.85.85,0,0,0-.24,0l-.19,0h0l-.07,0,0,0h0l-.05,0,0,0-.26.2-.24.23-.32.37-.15.2v0h0a1.27,1.27,0,0,1-.11.15l-.11.15a1.28,1.28,0,0,0-.1.15.59.59,0,0,0-.1.16,1,1,0,0,0-.08.15.64.64,0,0,0-.06.16c-.06.24,0,.39.1.46A.78.78,0,0,0,26.05,32.89Zm4-1a.11.11,0,0,1,.13,0s0,.06,0,.1a10.22,10.22,0,0,1-1.43,1,1.3,1.3,0,0,1-1.06.22.56.56,0,0,1-.38-.61,1.94,1.94,0,0,1,0-.22,6.21,6.21,0,0,1-.57.38,3.64,3.64,0,0,1-.82.43.8.8,0,0,1-.78-.07.67.67,0,0,1-.19-.68,3.18,3.18,0,0,1,.41-1.06l0,0a.43.43,0,0,0,0-.07l.06-.07.05-.06c.13-.16.24-.29.34-.39a2.35,2.35,0,0,1,1-.66,1.34,1.34,0,0,1,.57,0,.6.6,0,0,1,.39.18l0,0a.71.71,0,0,1,.2.58v0c.18-.22.4-.47.68-.76A.39.39,0,0,1,29,30a.51.51,0,0,1,.24,0,.33.33,0,0,1,.15.16.19.19,0,0,1,0,.19c-.38.41-.75.85-1.09,1.3a5.19,5.19,0,0,0-.45.7l-.06.18c-.06.25,0,.4.19.44a1.06,1.06,0,0,0,.46-.06,3.14,3.14,0,0,0,.56-.27A10.69,10.69,0,0,0,30.07,31.86Z"/><path class="cls-3" d="M39,31.92a.09.09,0,0,1,.13,0s0,.06,0,.1a12.56,12.56,0,0,1-1.35,1l-.13.07-.14.07-.16.08-.15,0-.17,0h-.33a.53.53,0,0,1-.43-.61,1.77,1.77,0,0,1,.43-.84l.27-.3.08-.08.08-.08v0h0l.13-.15.14-.15a2.19,2.19,0,0,0,.32-.41,0,0,0,0,0,0,0s0,0,0,0a0,0,0,0,0,0,0,.1.1,0,0,0,0-.1l0,0a.37.37,0,0,0-.21,0,2.06,2.06,0,0,0-.45.16c-.15.08-.3.16-.44.25l-.45.32-.38.28-.42.34-.38.3c-.36.29-.63.51-.82.65-.48.6-.9,1.11-1.25,1.53l-.66.78c-.17.19-.38.42-.64.69a10,10,0,0,1-.76.72.27.27,0,0,1-.24,0,.27.27,0,0,1-.19-.12.14.14,0,0,1,0-.18L31.48,35c.44-.5,1.1-1.29,2-2.37s1.55-1.89,2-2.43a.35.35,0,0,1,.19-.12.4.4,0,0,1,.24,0,.33.33,0,0,1,.15.16.17.17,0,0,1,0,.19q-.51.57-1.08,1.26l-.15.18-.14.18.36-.3.39-.33.36-.29.4-.3a5.38,5.38,0,0,1,1-.61.87.87,0,0,1,.78-.05.15.15,0,0,1,.06,0,.47.47,0,0,1,.22.33.83.83,0,0,1-.08.41,1.3,1.3,0,0,1-.26.43l-.53.57,0,0,0,0,0,0c0,.05-.13.16-.25.32a1.4,1.4,0,0,0-.13.18s0,0,0,0l0,0h0a0,0,0,0,0,0,0s0,0,0,0,0,0,0,0a.09.09,0,0,0,0,0v0h0l0,0h0l.12,0h.17a.7.7,0,0,0,.24-.06,3.49,3.49,0,0,0,.55-.26A8.26,8.26,0,0,0,39,31.92Z"/><path class="cls-3" d="M41.42,29.61a.36.36,0,0,0,.24.08.41.41,0,0,0,.24-.08.25.25,0,0,0,0-.38.41.41,0,0,0-.24-.08.36.36,0,0,0-.24.08.23.23,0,0,0,0,.38Zm0-.41a.44.44,0,0,1,.56,0,.26.26,0,0,1,0,.44.48.48,0,0,1-.56,0,.26.26,0,0,1,0-.44Zm.22,2.72a.09.09,0,0,1,.09,0,.1.1,0,0,1,.06.05.06.06,0,0,1,0,.07,12.9,12.9,0,0,1-1.48,1l-.15.08-.16.08-.18.08-.18,0a.43.43,0,0,1-.19,0l-.18,0a.62.62,0,0,1-.35-.26.69.69,0,0,1-.12-.39,2.11,2.11,0,0,1,.45-1.09,8.52,8.52,0,0,1,1.23-1.33.3.3,0,0,1,.23-.07.32.32,0,0,1,.22.07.21.21,0,0,1,.1.18.28.28,0,0,1-.1.17,16.85,16.85,0,0,0-1.21,1.25.48.48,0,0,0-.09.1l-.1.12-.09.11a.77.77,0,0,0-.09.13l-.07.11-.07.13,0,.13a.6.6,0,0,0,0,.19.42.42,0,0,0,.1.17.29.29,0,0,0,.19.09,1.42,1.42,0,0,0,.46-.11,4.92,4.92,0,0,0,.57-.28C40.78,32.49,41.17,32.23,41.6,31.92Z"/><path class="cls-3" d="M43.42,34h0Zm-.06-.1,0,0h0Zm-1.68,2.32c.49-.51,1-1.08,1.54-1.73h0l.11-.16,0,0h0v0l0,0,0-.12h0V34h0v0h0v0a0,0,0,0,1,0,0h0l0,0h0l0,0h0l0,0,0,0h-.05s0,0,0,0h0a7.56,7.56,0,0,0-2,1l-.49.36-.44.36a2.84,2.84,0,0,0-.42.44,2,2,0,0,0-.27.46,1.3,1.3,0,0,0-.08.34.52.52,0,0,0,.09.33.43.43,0,0,0,.34.18,1,1,0,0,0,.53-.07,3.3,3.3,0,0,0,.53-.31A5.2,5.2,0,0,0,41.68,36.22ZM47.26,32a.1.1,0,0,1,.15,0,.06.06,0,0,1,0,.07,11,11,0,0,1-1.18.76,5.2,5.2,0,0,1-.66.34,3.53,3.53,0,0,1-.57.16l-.32.08-.34.08-.45.11,0,0a.74.74,0,0,1,0,1v0l0,0,0,0s0,0,0,0l0,0h0s0,0,0,0c-.25.3-.47.55-.64.73a7.82,7.82,0,0,1-.65.66,6.27,6.27,0,0,1-.78.64l-.32.23-.3.18a2.39,2.39,0,0,1-.38.16,1.34,1.34,0,0,1-1.06,0,.59.59,0,0,1-.31-.31.7.7,0,0,1-.06-.4,1.17,1.17,0,0,1,.12-.39,2.68,2.68,0,0,1,.69-.88,12,12,0,0,1,1.16-.87,7.6,7.6,0,0,1,1.69-.83l-.28,0h-.45a.4.4,0,0,1-.15,0,.28.28,0,0,1-.22-.2.22.22,0,0,1,.14-.26A10.87,10.87,0,0,0,43.83,32a3.53,3.53,0,0,0,1-1,.56.56,0,0,0,.06-.23.18.18,0,0,0-.08-.18.43.43,0,0,0-.28-.07,2.15,2.15,0,0,0-.68.19,7,7,0,0,0-.79.42,13.53,13.53,0,0,0-1.51,1.08l0,0h-.07l0,0,0,0a0,0,0,0,1,0,0l0,0a13.53,13.53,0,0,1,1.91-1.36l.18-.1.2-.1.21-.1.21-.08.24-.06h.22a.78.78,0,0,1,.22,0,.56.56,0,0,1,.31.18.46.46,0,0,1,.1.29,1.88,1.88,0,0,1-.06.31,3.83,3.83,0,0,1-1,1.3A7.13,7.13,0,0,1,43,33.2a2,2,0,0,1,.72.26L44,33.4l.28-.07.82-.19.4-.14c.22-.09.43-.2.64-.31S46.85,32.25,47.26,32Z"/><path class="cls-3" d="M49.12,34h0Zm-.06-.1,0,0h0Zm-1.67,2.32c.48-.51,1-1.08,1.53-1.73h0a1.42,1.42,0,0,0,.11-.16l0,0h0v0l0,0a.4.4,0,0,0,0-.12h0V34h0v0h0v-.06h0l0,0h0l0,0h0l0,0,0,0h0s0,0,0,0h0a7.49,7.49,0,0,0-2,1l-.5.36L46,35.5a2.84,2.84,0,0,0-.42.44,1.93,1.93,0,0,0-.26.46,1,1,0,0,0-.09.34.52.52,0,0,0,.09.33.46.46,0,0,0,.34.18,1,1,0,0,0,.53-.07,3.3,3.3,0,0,0,.53-.31A5.81,5.81,0,0,0,47.39,36.22ZM53,32a.08.08,0,0,1,.08,0,.08.08,0,0,1,.06.05.06.06,0,0,1,0,.07,12.07,12.07,0,0,1-1.17.76,6.06,6.06,0,0,1-.67.34,4.17,4.17,0,0,1-.56.16l-.33.08-.34.08-.44.1,0,0a.73.73,0,0,1,0,1v0s0,0,0,0l0,0,0,0,0,0h0s0,0,0,0c-.26.3-.47.55-.64.73s-.39.41-.65.66a8.18,8.18,0,0,1-.78.64l-.33.23-.3.18a2.3,2.3,0,0,1-.37.16,1.36,1.36,0,0,1-1.07,0,.59.59,0,0,1-.31-.31.8.8,0,0,1-.06-.4,1.46,1.46,0,0,1,.12-.39,2.68,2.68,0,0,1,.69-.88,10.58,10.58,0,0,1,1.16-.87,7.6,7.6,0,0,1,1.69-.83l-.28,0h-.45l-.15,0a.28.28,0,0,1-.22-.2c0-.11,0-.2.15-.26A11.9,11.9,0,0,0,49.53,32a3.28,3.28,0,0,0,1-1,.84.84,0,0,0,.07-.23.2.2,0,0,0-.09-.18.41.41,0,0,0-.27-.07,2,2,0,0,0-.68.19,5.23,5.23,0,0,0-.8.42,13.53,13.53,0,0,0-1.51,1.08l0,0h-.07l0,0a0,0,0,0,1,0,0,0,0,0,0,1,0,0l0,0A13,13,0,0,1,49,30.69l.18-.1.19-.1.21-.1.22-.08.23-.06h.22l.22,0a.53.53,0,0,1,.31.19.37.37,0,0,1,.1.28,1.88,1.88,0,0,1-.06.31,3.74,3.74,0,0,1-1,1.3,6.59,6.59,0,0,1-1.16.86,2,2,0,0,1,.72.26l.27-.06.28-.07.82-.19a2.35,2.35,0,0,0,.4-.14,5.38,5.38,0,0,0,.64-.31C52.18,32.49,52.55,32.25,53,32Z"/><path class="cls-3" d="M53.94,32.89a5.28,5.28,0,0,0,1.36-.81,3.63,3.63,0,0,1,.3-.64,2.34,2.34,0,0,1,.19-.3,1.32,1.32,0,0,0,.05-.31.62.62,0,0,0-.17-.48l-.17,0a1,1,0,0,0-.25,0l-.18,0h0l-.07,0,0,0h0l0,0-.06,0a2.43,2.43,0,0,0-.25.2c-.07.07-.15.14-.24.24a4.64,4.64,0,0,0-.32.36,1.16,1.16,0,0,1-.16.2v0h0l-.11.15-.12.15-.1.15-.1.16a1.07,1.07,0,0,0-.07.15,1.22,1.22,0,0,0-.07.17c-.06.23,0,.38.1.45A.81.81,0,0,0,53.94,32.89Zm4-1a.1.1,0,0,1,.13,0s0,.06,0,.09a9.85,9.85,0,0,1-1.44,1,1.28,1.28,0,0,1-1,.22.58.58,0,0,1-.39-.62s0-.09,0-.21c-.22.16-.41.29-.56.38a4.12,4.12,0,0,1-.82.43.8.8,0,0,1-.78-.07.67.67,0,0,1-.19-.68,3.18,3.18,0,0,1,.41-1.06l0,0,0-.07.06-.07,0-.06a3.64,3.64,0,0,1,.34-.39,2.35,2.35,0,0,1,1-.66,1.34,1.34,0,0,1,.57,0,.6.6,0,0,1,.39.18l0,0a.71.71,0,0,1,.2.58v0c.17-.22.4-.47.67-.76a.47.47,0,0,1,.2-.12.41.41,0,0,1,.24,0,.27.27,0,0,1,.14.16.17.17,0,0,1,0,.19,13.63,13.63,0,0,0-1.09,1.3,3.71,3.71,0,0,0-.45.7.64.64,0,0,0-.06.18c-.07.25,0,.4.19.44a1,1,0,0,0,.45-.06,3.2,3.2,0,0,0,.57-.27A10.69,10.69,0,0,0,58,31.86Z"/><path class="cls-3" d="M4.89,12.23c1.73,0,2.5-.58,2.5-1.76S6.74,8.91,4.78,8.91H1.53v3.32ZM0,7.78H4.8c3.12,0,4.17.9,4.17,2.69s-1.19,2.89-3.7,2.89H1.53v4.36H0Z"/><path class="cls-3" d="M13.22,12.16h3.41c1.58,0,2.54-.36,2.54-1.63s-.69-1.62-2.51-1.62H13.22v3.25Zm0,5.56H11.73V7.78h5.1c3.2,0,3.92,1,3.92,2.63a2.41,2.41,0,0,1-2.37,2.31v0c1.39.17,1.77.7,2,2.38A11,11,0,0,0,21,17.72H19.43c-.28-.7-.43-2.09-.71-3.2-.17-.72-.66-1.23-2.61-1.23H13.22Z"/><path class="cls-3" d="M29.31,16.86a4,4,0,0,0,4.25-4.11,4,4,0,0,0-4.25-4.1,4,4,0,0,0-4.25,4.1A4,4,0,0,0,29.31,16.86Zm0-9.34c4.35,0,5.83,2.86,5.83,5.23S33.66,18,29.31,18s-5.83-2.87-5.83-5.24S25,7.52,29.31,7.52Z"/><path class="cls-3" d="M36.32,7.78H38L42,16.51l4.05-8.73h1.58L42.9,17.72H41.07Z"/><path class="cls-3" d="M56.1,14,53.51,9l-2.6,5Zm.57,1.13H50.31L49,17.72H47.31l5.33-9.94h1.75l5.33,9.94H58Z"/></g></svg>