<svg id="Layer_1" data-name="Layer 1" xmlns="http://www.w3.org/2000/svg" xmlns:xlink="http://www.w3.org/1999/xlink" viewBox="0 0 60 45"><defs><style>.cls-1{fill:none;}.cls-2{clip-path:url(#clip-path);}.cls-3{fill:#2b3130;}</style><clipPath id="clip-path"><rect class="cls-1" x="2.5" width="55" height="45"/></clipPath></defs><g class="cls-2"><path class="cls-3" d="M13.73,0c1.43,0,2.06.81,2.06,2.16V15.65H9.53V5.94a.39.39,0,1,0-.77,0V15.8c0,.42.15.54.53.54h6.5v5.49H4.56A1.87,1.87,0,0,1,2.5,19.7V2.13A1.87,1.87,0,0,1,4.56,0Z"/><path class="cls-3" d="M22.64,19.7a1.87,1.87,0,0,1-2.05,2.13H16.38V0h4.21a1.87,1.87,0,0,1,2.05,2.13V9.78c0,.24.12.3.39.3s.39-.06.39-.3V2.13a1.86,1.86,0,0,1,2-2.13h4.2V21.83h-4.2a1.87,1.87,0,0,1-2.06-2.13V13c0-.3-.11-.42-.38-.42s-.39.1-.39.42V19.7Z"/><path class="cls-3" d="M43.59,16.34H28.36v5.49H43.59Z"/><path class="cls-3" d="M43.59,0V4.86H36.85a.27.27,0,0,0-.3.3v.36h7v4.65h-7v.36a.26.26,0,0,0,.29.3h6.74v4.85H32.35a1.85,1.85,0,0,1-2.05-2.12V2.13A1.86,1.86,0,0,1,32.35,0Z"/><path class="cls-3" d="M57.5,16.34H42.28v5.49H57.5Z"/><path class="cls-3" d="M57.5,0V4.86H50.77a.27.27,0,0,0-.3.3v.36h7v4.65h-7v.36a.27.27,0,0,0,.3.3H57.5v4.85H46.27a1.86,1.86,0,0,1-2.06-2.12V2.13A1.87,1.87,0,0,1,46.27,0Z"/><path class="cls-3" d="M36.67,39.51V36.63a1.86,1.86,0,0,0-2.05-2.13h0v-.42h0A1.86,1.86,0,0,0,36.67,32V23.17h-4.2a1.87,1.87,0,0,0-2.06,2.13v7.64c0,.24-.17.3-.41.3h-.36V23.17H23.38V45h6.26V35.76H30c.3,0,.41.09.41.42v6.69A1.87,1.87,0,0,0,32.47,45H43.53V39.51Z"/><path class="cls-3" d="M43.52,23.2H37.27v4.86h6.25Z"/><path class="cls-3" d="M43.52,28.69H37.27V38.85h6.25Z"/><path class="cls-3" d="M50.82,28.69h-.44V45H44.12V23.17H55.35a1.87,1.87,0,0,1,2.06,2.13V45h-4.2a1.87,1.87,0,0,1-2.06-2.13V29C51.12,28.78,51,28.72,50.82,28.69Z"/><path class="cls-3" d="M12.37,37.8a3.65,3.65,0,1,0-3.62-3.65A3.63,3.63,0,0,0,12.37,37.8Z"/></g></svg>