<svg id="Layer_1" data-name="Layer 1" xmlns="http://www.w3.org/2000/svg" xmlns:xlink="http://www.w3.org/1999/xlink" viewBox="0 0 60 45"><defs><style>.cls-1{fill:none;}.cls-2{clip-path:url(#clip-path);}.cls-3{fill:#2b3130;}</style><clipPath id="clip-path"><rect class="cls-1" x="-0.11" y="0.49" width="60.21" height="44.02"/></clipPath></defs><g class="cls-2"><path class="cls-3" d="M-.1,1H6.43c3.76,0,5.64,2.09,5.64,6.24v8.94a4.28,4.28,0,0,1-2.32,4.13,4.3,4.3,0,0,1,2.32,4.13q0,6.23-5.91,6.24H-.1ZM4.14,5.18v13H5.47A4.06,4.06,0,0,0,6.68,18a1.84,1.84,0,0,0,1.16-1.89V7.2c0-1.35-.62-2-1.85-2Zm0,17.21v4H6c1.23,0,1.85-.67,1.85-2a1.81,1.81,0,0,0-1.16-1.87,3.59,3.59,0,0,0-1.21-.14Z"/><path class="cls-3" d="M27.38,24.87q0,6.24-6.1,6.25t-6.07-6.25V6.72q0-6.24,6.07-6.23t6.1,6.23ZM23.14,6.72c0-1.33-.61-2-1.84-2h0q-1.83,0-1.83,2V24.87c0,1.34.62,2,1.84,2s1.86-.67,1.86-2Z"/><path class="cls-3" d="M42.83,24.87q0,6.24-6.09,6.25t-6.07-6.25V6.72q0-6.24,6.07-6.23t6.1,6.23V14H38.6V6.72c0-1.33-.62-2-1.84-2h0q-1.83,0-1.83,2V24.87c0,1.34.61,2,1.84,2s1.86-.67,1.86-2V20.05h4.23Z"/><path class="cls-3" d="M50,24.58l-.77,6.05H44.93L49.3,1h5.81l4.35,29.67H55.18l-.76-6.05Zm3.95-4.08L52.19,6.7,50.46,20.5Z"/><path class="cls-3" d="M7.59,41.38a2.83,2.83,0,0,1-.28,1.26,3,3,0,0,1-.73,1,3.29,3.29,0,0,1-1.06.65,3.35,3.35,0,0,1-1.26.23H-.11V33.59H3.78a4,4,0,0,1,1.31.21,3,3,0,0,1,1,.61,2.73,2.73,0,0,1,.69,1,3.22,3.22,0,0,1,.25,1.31,2.79,2.79,0,0,1-.27,1.19,3,3,0,0,1-.71,1,2.79,2.79,0,0,1,.63.45,3.1,3.1,0,0,1,.47.61,2.72,2.72,0,0,1,.29.71A2.85,2.85,0,0,1,7.59,41.38ZM5,36.74a1.42,1.42,0,0,0-.15-.68,1.53,1.53,0,0,0-.39-.48,1.86,1.86,0,0,0-.58-.29,2.46,2.46,0,0,0-.67-.09H2v3H3.21a3,3,0,0,0,.68-.08,1.75,1.75,0,0,0,.57-.26,1.27,1.27,0,0,0,.4-.46A1.41,1.41,0,0,0,5,36.74Zm.41,4.51a1.56,1.56,0,0,0-.13-.62,1.48,1.48,0,0,0-.36-.49,1.53,1.53,0,0,0-.51-.3,1.81,1.81,0,0,0-.63-.11H2v3H3.55a3.16,3.16,0,0,0,.68-.08,1.79,1.79,0,0,0,.6-.26,1.45,1.45,0,0,0,.42-.47A1.32,1.32,0,0,0,5.42,41.25Z"/><path class="cls-3" d="M20.3,44.5H18l-1-2.18H11.77l-1,2.18H8.46l5.11-10.91H15.2Zm-4.11-3.94-1.8-3.93-1.82,3.93Z"/><path class="cls-3" d="M30.86,44.5H28.13l-4.32-4.83V44.5H21.72V33.59h2.09v4.87l4.42-4.87h2.48L25.84,39Z"/><path class="cls-3" d="M39.27,44.5H32.14V33.6h7.13v1.74H34.19V38h5v1.71h-5v3h5.08Z"/><path class="cls-3" d="M49.34,44.5H47L46.26,42a4,4,0,0,0-.3-.76,2.34,2.34,0,0,0-.44-.58,2,2,0,0,0-.61-.39,2.39,2.39,0,0,0-.84-.13h-.78V44.5H41.22V33.59h4.26a3.35,3.35,0,0,1,1.28.24,3.06,3.06,0,0,1,1.7,1.66,3.15,3.15,0,0,1,.24,1.24,2.92,2.92,0,0,1-.15.93,3.21,3.21,0,0,1-.41.83,3.44,3.44,0,0,1-.64.68,2.77,2.77,0,0,1-.81.44,2,2,0,0,1,.83.55A2.5,2.5,0,0,1,48,41c.06.15.12.31.17.46s.12.32.17.49.12.34.19.54l.22.65c.1.3.19.56.28.77A3,3,0,0,0,49.34,44.5Zm-2.73-7.63a1.7,1.7,0,0,0-.14-.69,2,2,0,0,0-.39-.55,1.78,1.78,0,0,0-.57-.36,1.9,1.9,0,0,0-.71-.13H43.29v3.4H44.8a2.12,2.12,0,0,0,.71-.12,1.89,1.89,0,0,0,.57-.33,1.74,1.74,0,0,0,.39-.53A1.67,1.67,0,0,0,46.61,36.87Z"/><path class="cls-3" d="M60.11,33.6,55.7,40v4.48H53.59V40L49.42,33.6h2.43l2.8,4.59,2.93-4.59Z"/></g></svg>