<svg id="Layer_1" data-name="Layer 1" xmlns="http://www.w3.org/2000/svg" xmlns:xlink="http://www.w3.org/1999/xlink" viewBox="0 0 60 45"><defs><style>.cls-1{fill:none;}.cls-2{clip-path:url(#clip-path);}.cls-3{fill:#2b3130;}</style><clipPath id="clip-path"><rect class="cls-1" x="-0.03" y="18.91" width="60.06" height="7.18"/></clipPath></defs><g class="cls-2"><path class="cls-3" d="M12.61,18.91a3.31,3.31,0,0,0-3.35,3.62,3.3,3.3,0,0,0,3.35,3.56A3.3,3.3,0,0,0,16,22.53,3.31,3.31,0,0,0,12.61,18.91Zm0,5.91c-1.35,0-1.85-1.15-1.85-2.29s.5-2.35,1.85-2.35,1.85,1.15,1.85,2.35S14,24.82,12.61,24.82Z"/><path class="cls-3" d="M24.61,21H23.26v5h1.35Z"/><path class="cls-3" d="M24.61,19.07H23.26V20.2h1.35Z"/><path class="cls-3" d="M20.14,20.58V21H18.49v-.29c0-.42.15-.57.52-.57a3.91,3.91,0,0,1,.49,0v-1c-.22,0-.47,0-.71,0a1.45,1.45,0,0,0-1.65,1.51V21h-.82v.92h.82v4.05h1.35V21.88h1.65v4.05H21.5V21.88h.94V21H21.5v-.29c0-.42.15-.57.52-.57a3.91,3.91,0,0,1,.49,0v-1c-.23,0-.48,0-.71,0A1.46,1.46,0,0,0,20.14,20.58Z"/><path class="cls-3" d="M28,25c-.85,0-1.12-.85-1.12-1.56s.28-1.61,1.15-1.61a.91.91,0,0,1,1,.85h1.33a2.09,2.09,0,0,0-2.32-1.88,2.45,2.45,0,0,0-2.52,2.69A2.4,2.4,0,0,0,28,26.06a2.21,2.21,0,0,0,2.38-2H29.09A1,1,0,0,1,28,25Z"/><path class="cls-3" d="M33.45,20.83a2.48,2.48,0,0,0-2.52,2.62,2.41,2.41,0,0,0,2.52,2.61,2.22,2.22,0,0,0,2.31-1.67H34.57A1.12,1.12,0,0,1,33.5,25c-.76,0-1.18-.39-1.22-1.25h3.57C35.94,22.25,35.13,20.83,33.45,20.83Zm-1.17,2.08a1.07,1.07,0,0,1,1.13-1.05c.66,0,1,.36,1.08,1.05Z"/><path class="cls-3" d="M41,19.07H35.44v1.27h2v5.59H39V20.34h2Z"/><path class="cls-3" d="M45,22.24c0-1.19-1.18-1.41-2.16-1.41s-2.25.38-2.32,1.66H41.9c.05-.54.38-.75.9-.75s.88.09.88.67-.78.53-1.61.66-1.68.38-1.68,1.5a1.48,1.48,0,0,0,1.68,1.49,2.24,2.24,0,0,0,1.66-.61,2.05,2.05,0,0,0,.1.48h1.38A2.45,2.45,0,0,1,45,24.82V22.24ZM43.68,24a1,1,0,0,1-1.1,1.14c-.44,0-.83-.12-.83-.63s.38-.65.8-.73a2.78,2.78,0,0,0,1.13-.29Z"/><path class="cls-3" d="M47.48,19.07H46.12V20.2h1.36Z"/><path class="cls-3" d="M47.48,21H46.12v5h1.36Z"/><path class="cls-3" d="M49.94,19.07H48.59v6.86h1.35Z"/><path class="cls-3" d="M53.41,20.83a2.43,2.43,0,0,0-2.55,2.62,2.56,2.56,0,1,0,5.11,0A2.43,2.43,0,0,0,53.41,20.83Zm0,4.2c-.92,0-1.19-.79-1.19-1.58s.27-1.59,1.19-1.59,1.2.79,1.2,1.59S54.34,25,53.41,25Z"/><path class="cls-3" d="M59.73,20.83a1.72,1.72,0,0,0-1.57,1.06h0V21H56.85v5H58.2V23.69c0-.87.35-1.59,1.34-1.59a3.6,3.6,0,0,1,.49,0V20.88A1,1,0,0,0,59.73,20.83Z"/><path class="cls-3" d="M2,19,0,21.07v4.86H6.8v-.15H4.91v-2H6.8V19Zm-.08,2H.22L1.93,19.3Zm-1.81.14H1.93v4.61H.12Zm4.64,2.51H2.08V21.17H4.76Zm0,2.1H2.08v-2H4.76Zm1.89-2.1H4.91V21H2.08V19.16H6.65Z"/></g></svg>