<svg id="Layer_1" data-name="Layer 1" xmlns="http://www.w3.org/2000/svg" xmlns:xlink="http://www.w3.org/1999/xlink" viewBox="0 0 60 45"><defs><style>.cls-1{fill:none;}.cls-2{clip-path:url(#clip-path);}.cls-3{fill:#243e95;}.cls-4{fill:#2b3130;}</style><clipPath id="clip-path"><rect class="cls-1" x="0.02" y="4.18" width="59.97" height="36.65"/></clipPath></defs><g class="cls-2"><path class="cls-3" d="M33,21a1.56,1.56,0,0,1-.1-.57H33a1.62,1.62,0,0,0,.1.54Z"/><path class="cls-4" d="M35.53,15.32h-.1V14.19h.1Z"/><path class="cls-4" d="M37.25,20A.81.81,0,0,1,36,20a1.64,1.64,0,0,1-.43-.79,2.73,2.73,0,0,1-.05-.5V13.61L33.85,13l-1,1a7,7,0,0,0-1.55,3.18V13.61L29.2,13l-1.82,2.4,1.22.32V21l1.31,1.08,0,0h0a7,7,0,0,0,2.74-2.29l.16-.28v.9A1.56,1.56,0,0,0,33,21a1.57,1.57,0,0,0,2.26.88h0a4.58,4.58,0,0,0,1.9-1.54l.2-.25Zm-4.39-.5-.24.23A.89.89,0,0,1,32,20a.86.86,0,0,1-.71-.34V18.43a7.17,7.17,0,0,1,.84-3.1l.74.71Z"/><path class="cls-4" d="M20.21,21h0s0,0,0,0h0s0,0,0,0h0l.07-.08Z"/><path class="cls-4" d="M27.58,20a1.06,1.06,0,0,1-.4-.08.62.62,0,0,1-.36-.58V16.89h.65v-.31h-.65V14.19h-.75L21.64,13l-.9,1.63-.38.69-.2.38.17,0,.2-.37,3.71,1v.21H20.08v.31h2.08l-2.08,1.54v1.95a1.69,1.69,0,0,0,.1.56h.13l-.07.08h0a1.65,1.65,0,0,0,1.5,1,1.59,1.59,0,0,0,.76-.19h0a8,8,0,0,0,1.74-1.25v.38L25.53,22a7,7,0,0,0,2.72-2.26A1,1,0,0,1,27.58,20Zm-3.34.28a1.46,1.46,0,0,1-.52.1,1.49,1.49,0,0,1-.36-.05,1.27,1.27,0,0,1-.95-1.21v-.23l0-.46,0-1.54h1.83Z"/><path class="cls-4" d="M43.26,19.55l-.3.35a6.09,6.09,0,0,1-2,1.74h0a4,4,0,0,1-.51.23h0a2.82,2.82,0,0,1-.81.11,2.58,2.58,0,0,1-2.48-2.51V14.75h0l1-.72,1.33-1h0l2.07,1.15a1.16,1.16,0,0,0,.63.18,1.13,1.13,0,0,0,.45-.09,1,1,0,0,0,.31-.2h0l.12.1h0c-.34.37-.66.73-.94,1.08s-.29.39-.42.58a2.76,2.76,0,0,0-.33.61v0l-.09,0v0a2.47,2.47,0,0,1,.3-.66c.13-.23.27-.44.39-.61l0,0h0a6.35,6.35,0,0,1-2.15.55v2.67a1.88,1.88,0,0,0,1.92,1.86,2.72,2.72,0,0,0,.42,0,2.15,2.15,0,0,0,1.11-.57h0Z"/><path class="cls-4" d="M52.28,19.66l-.06.09A6.83,6.83,0,0,1,49.49,22h0L48.18,21h0v-4L47.1,15.23a12.55,12.55,0,0,0-.53,2.09c0,.26-.09.52-.12.77s0,.27-.05.4l0,.28c0,.29,0,.59-.07.89,0,.11,0,.23,0,.34,0,.27,0,.55,0,.83V22H45.9l0-1.21c0-.24,0-.48.05-.72s0-.21,0-.32A3.7,3.7,0,0,1,45.24,21,3.44,3.44,0,0,1,42.76,22l-.36,0h-.12l.11,0c.83-.17,1.44-1.48,1.44-3.07l0-10.19.2-.4C44.64,7.17,46.11,6,46.74,6h0v.2h0A4.56,4.56,0,0,0,44.2,8.33l2.25.33v8.22A13,13,0,0,1,47,15.07v0l0,0a7.2,7.2,0,0,1,.57-1.2,4.65,4.65,0,0,1,.65-.85h0l0,.06,2.49,2.31h0v4.3a.85.85,0,0,0,.74.36.93.93,0,0,0,.66-.25Z"/><path class="cls-4" d="M54.57,18.21h0v0Zm.13.13,0,0,0,0Zm1.61-1.81h0l0,0Zm.15.09v0l0,0Zm0,0v0l0,0Zm-.15-.09h0l0,0ZM54.7,18.34l0,0,0,0Zm-.13-.13h0v0Zm0,0h0v0Zm.13.13,0,0,0,0Zm1.61-1.81h0l0,0Zm.15.09v0l0,0Zm0,0v0l0,0Zm-.15-.09h0l0,0ZM54.7,18.34l0,0,0,0Zm-.13-.13h0v0Zm1.89-1.59v0l0,0Zm-.15-.09h0l0,0ZM54.7,18.34l0,0,0,0Zm-.13-.13h0v0Zm0,0h0v0Zm.13.13,0,0,0,0Zm1.61-1.81h0l0,0Zm.15.09v0l0,0Zm0,0v0l0,0Zm-.15-.09h0l0,0ZM54.7,18.34l0,0,0,0Zm-.13-.13h0v0Z"/><path class="cls-4" d="M54.7,18.34l0,0,0,0Zm1.76-1.72v0l0,0Zm-.15-.09h0l0,0Zm-1.74,1.68h0v0Zm.13.13,0,0,0,0Zm1.76-1.72v0l0,0Zm-.15-.09h0l0,0Zm-1.74,1.68h0v0Zm0,0h0v0Zm.13.13,0,0,0,0Zm1.61-1.81h0l0,0Zm.15.09v0l0,0Zm0,0v0l0,0Zm-.15-.09h0l0,0ZM54.7,18.34l0,0,0,0Zm-.13-.13h0v0Zm1.89-1.59v0l0,0Zm-.15-.09h0l0,0ZM54.7,18.34l0,0,0,0Zm-.13-.13h0v0Zm0,0h0v0Zm.13.13,0,0,0,0Zm1.61-1.81h0l0,0Zm.15.09v0l0,0Zm-.15-.09h0l0,0ZM54.7,18.34l0,0,0,0Zm1.76-1.72v0l0,0Zm-1.89,1.59h0v0Zm1.74-1.68h0l0,0Zm-1.74,1.68h0v0Zm.13.13,0,0,0,0Zm1.76-1.72v0l0,0ZM54.7,18.34l0,0,0,0Zm1.76-1.72v0l0,0Zm-.15-.09h0l0,0Zm-1.74,1.68h0v0Z"/><path class="cls-4" d="M55.23,13l-2.3,1.89a2.15,2.15,0,0,0-.78,1.65V19.8L55.57,22h0a11,11,0,0,0,2.71-2.39,2.12,2.12,0,0,0,.46-1.32V15Zm-.63,5.22h0l0,0V15.27l1.71,1.26,0,0,0,0h0L54.6,18.18Zm1.86-1.55v3l-1.75-1.3,0,0,0,0h0l1.75-1.68v0h0Z"/><path class="cls-4" d="M10.51,16.29Z"/><path class="cls-4" d="M10.51,16.29Zm.19,0,0,.22Z"/><path class="cls-4" d="M9.53,12.52a7.52,7.52,0,0,1-1.43,2L8,14.67a9.68,9.68,0,0,1-2.84,2.06l0-.09a4.61,4.61,0,0,0,1.64-1.49,4.5,4.5,0,0,0,.61-1.29,4.55,4.55,0,0,0,.18-1.28C7.52,9.92,5.63,7,3.1,7H3a1,1,0,0,0-.53.1.64.64,0,0,0-.26.4.57.57,0,0,0,0,.13A.62.62,0,0,0,2.38,8l.14.13c.17.14.43.32.7.52a11.63,11.63,0,0,1,1.39,1.1l0,0,.07.08a1.12,1.12,0,0,1,0,1.36l-.07.08a14.11,14.11,0,0,1-2.53,1.91l-.7.43-.06-.08,1.31-1.13.11-.1a.32.32,0,0,0,.08-.21.28.28,0,0,0,0-.15v0l-.05-.06v0a5.38,5.38,0,0,0-.91-.8L1.71,11l-.2-.14c-.42-.31-.85-.62-.85-1.21a.76.76,0,0,1,0-.15v0A3.65,3.65,0,0,1,2,7.08L2.12,7a8,8,0,0,1,.66-.48,5.51,5.51,0,0,1,2.46-1,4.66,4.66,0,0,1,2.09.38A4.48,4.48,0,0,1,9.45,7.93,5.78,5.78,0,0,1,9.53,12.52Z"/><path class="cls-4" d="M9.09,15.89Z"/><path class="cls-4" d="M20.21,21h0a3.45,3.45,0,0,1-2.33-1.25,5.82,5.82,0,0,1-1-2.54c-.09-.46-.25-.9-.38-1.34A3.71,3.71,0,0,0,16,14.54a2.68,2.68,0,0,0-.53-.48,4.45,4.45,0,0,0-.58-.38,2.14,2.14,0,0,0-1.24-.23,3.93,3.93,0,0,1,1-.69c.41-.22.85-.41,1.25-.66a2.17,2.17,0,0,0,1-1,2.37,2.37,0,0,0,.05-1.42,3.87,3.87,0,0,0-.67-1.25,3.35,3.35,0,0,1-.63-1.23,2.69,2.69,0,0,1-.06-.69c0-.22.08-.46.12-.69a3.16,3.16,0,0,1,.21-.66.81.81,0,0,1,.46-.45l.41-.14-.43,0a4.1,4.1,0,0,0-.7.12c.42-.2.81-.38.89-.43l-.05-.08c-.12.07-1,.47-1.58.73h0a6.41,6.41,0,0,0-2,1.2A6,6,0,0,0,10.9,9h0a16.14,16.14,0,0,0-.54,2.92A25,25,0,0,0,10.22,15v0c-.41.27-.74.53-1.16.79l0,.09.81-.39.31-.14c0,.35,0,.71.06,1.07a4.85,4.85,0,0,1-.06,1.7,3.63,3.63,0,0,1-.81,1.54,1.38,1.38,0,0,1-1.55.42C7.3,19.91,7,19.36,6.43,19a3.63,3.63,0,0,0-3.58-.24,5.4,5.4,0,0,0-1.5,1.09L0,21.14l0,0a3,3,0,0,1,2.16-.66,3.61,3.61,0,0,1,2.15.72,9.46,9.46,0,0,0,.91.74,2.44,2.44,0,0,0,1.11.37,3.21,3.21,0,0,0,2.22-.67,5.14,5.14,0,0,0,1.79-2.45,6.43,6.43,0,0,0,.34-1.68,8.35,8.35,0,0,0,0-1l-.06-.72v-.07l0-.47a2,2,0,0,1,.35-.1,1.18,1.18,0,0,1,.84.14,3.79,3.79,0,0,1,.77.56,3.46,3.46,0,0,1,.95,1.63c.18.62.28,1.26.44,1.88h0a3.84,3.84,0,0,0,.88,1.71,3.14,3.14,0,0,0,1.7.92,4.29,4.29,0,0,0,2-.13,6.32,6.32,0,0,0,.92-.33,2.55,2.55,0,0,0,.79-.55h0l.07-.08ZM16.32,4.62ZM10.51,16.29Zm2.35-2.86-2.23,1.42c0-.26,0-.53,0-.79a18.89,18.89,0,0,1,.28-3.36,13.86,13.86,0,0,1,.32-1.42,3.18,3.18,0,0,1,1.09-1.69,2.34,2.34,0,0,0,.24,1.14,2.77,2.77,0,0,0,.31.56,3.81,3.81,0,0,0,.4.5,2.53,2.53,0,0,1,.64.89,2.49,2.49,0,0,1,.19,1.08,1.64,1.64,0,0,1-.34,1A3.43,3.43,0,0,1,12.86,13.43ZM20.2,21h-.11l.05,0,0,0,0,0h0l0,0Z"/><path class="cls-4" d="M16.32,4.62Z"/><path class="cls-4" d="M20.2,21l0,0,0,0h-.07l.05,0h.06Z"/><path class="cls-4" d="M20.18,21v0l0,0ZM16.32,4.62Z"/><path class="cls-4" d="M10.51,16.29Z"/><path class="cls-4" d="M18,19.45l0,0H18Zm0,0h0Z"/><path class="cls-4" d="M14,19.45l0,0H14Zm0,0h0Z"/><path class="cls-4" d="M32.05,31.69l-.2.32a7.08,7.08,0,0,1-2.73,2.27l0,0-1.33-1.1V28.93l.83-.81-2.05-.54,1.82-2.4,2.53.67-.45.6v5.13a.63.63,0,0,0,.71.6,1,1,0,0,0,.63-.23Z"/><path class="cls-4" d="M38.67,27.55v0a3.71,3.71,0,0,1-.77,1,3.79,3.79,0,0,1-1,.71h0a2.8,2.8,0,0,1-1.29-1.94A4.63,4.63,0,0,0,35,29.44c0,.39,0,.84,0,1.35v.79a.64.64,0,0,0,.72.6.93.93,0,0,0,.62-.23l.27-.26-.19.32a7.25,7.25,0,0,1-2.73,2.28h0l-1.34-1.1V27.9l-1.22-.32,1.82-2.4h0l2,.64v2.54A3.47,3.47,0,0,1,35.5,27a3.66,3.66,0,0,1,.66-.75l1.41-1.16.08.1v0a.13.13,0,0,0,0,.06,2.45,2.45,0,0,0,0,.27,2.86,2.86,0,0,0,1,2Z"/><path class="cls-4" d="M46.25,32.23a1,1,0,0,1-.4-.08.61.61,0,0,1-.36-.58V29.12h.64v-.31h-.64V26.42h-.75L40.3,25.24l-.89,1.63-.38.69-.21.38L39,28l.21-.37,3.71,1v.21H38.75v.31h2.08l-2.08,1.54v1.95a1.64,1.64,0,0,0,2.4,1.44h0a8.12,8.12,0,0,0,1.74-1.24v.37l1.29,1.07A7,7,0,0,0,46.92,32,1,1,0,0,1,46.25,32.23Zm-3.34.28a1.5,1.5,0,0,1-.52.1,1.36,1.36,0,0,1-.36,0,1.27,1.27,0,0,1-1-1.21v-.23l0-.46,0-1.54h1.84Z"/><path class="cls-4" d="M59.32,32.23a1.07,1.07,0,0,1-.41-.08.62.62,0,0,1-.36-.58V29.12h.65v-.31h-.65V26.42h-.74l-4.44-1.18-.9,1.63-.38.69-.2.38.17,0,.2-.37,3.71,1v.21H51.81v.31h2.08l-2.08,1.54v1.95a1.63,1.63,0,0,0,1.64,1.63,1.59,1.59,0,0,0,.76-.19h0A8.22,8.22,0,0,0,56,32.8v.37l1.29,1.07A7,7,0,0,0,60,32,.94.94,0,0,1,59.32,32.23ZM56,32.51a1.46,1.46,0,0,1-.52.1,1.49,1.49,0,0,1-.36,0,1.27,1.27,0,0,1-1-1.21v-.23l0-.46,0-1.54H56Z"/><path class="cls-4" d="M49.92,29.12V25.29h2c-.14.2-.24.37-.34.54a2.83,2.83,0,0,0-.3.66v.05l.15.05v-.05a3.25,3.25,0,0,1,.33-.61,7.1,7.1,0,0,1,.43-.57c.27-.34.58-.7.93-1.07l0,0L53,24.11l0,0a1.13,1.13,0,0,1-.31.19,1.92,1.92,0,0,1-1,.15,3.41,3.41,0,0,1-.81-.29l-.11-.05c-.4-.18-.8-.39-1.18-.59-.23-.13-.48-.25-.72-.37l0,0,0,0a7.7,7.7,0,0,1-2.6,1.61l-.54.25v.27h1.61V33.2l1.34,1.1h0A7.25,7.25,0,0,0,51.33,32l.19-.32-.27.26a.93.93,0,0,1-.62.23.63.63,0,0,1-.71-.6V29.12Z"/><path class="cls-3" d="M23.86,34.47h0v0Z"/><path class="cls-4" d="M26,26.06v0h0a3.89,3.89,0,0,1-2.07-3.42v-.09l-.45.24,0,0,0,0-.1.07-.2.18a3,3,0,0,0-.37.44,4.05,4.05,0,0,0-.35.53c-.1.16-.19.34-.29.54l0,.07a11.06,11.06,0,0,0-.59,6.84c.06.37.12.75.18,1.15l-.32,0-.8-.09a14.45,14.45,0,0,1-.23-2.57,12.83,12.83,0,0,1,.64-4.13,8.23,8.23,0,0,1,.66-1.43l.24-.35-.07,0a1.91,1.91,0,0,0-.64-.1,1.94,1.94,0,0,0-1,.26,4.7,4.7,0,0,1-.82.29,5.89,5.89,0,0,1-1.45.19,5.76,5.76,0,0,1-1.56-.21c-.38-.08-1-.29-1.71-.51s-1.25-.4-1.73-.52l-.18,0a1.92,1.92,0,0,0-.79,0l-.21.06a2,2,0,0,0-.83.57l-.07.09A21.67,21.67,0,0,0,8.91,27L9,27a1.73,1.73,0,0,1,1-.81,1.81,1.81,0,0,1,1-.07c.29.07.73.21,1.24.37.83.25,1.87.58,2.55.71l.18,0h.1a5.27,5.27,0,0,0,.82.06,5.08,5.08,0,0,0,2.75-.77,10.47,10.47,0,0,0-.78,2.72,15.19,15.19,0,0,0-.14,2c0,.24,0,.48,0,.72l-1.27-.28c-.62-.14-1.26-.31-1.91-.49l-.07,0-.37-.11c-.95-.27-1.95-.59-2.95-.95L11,30.13l.12.14a23.31,23.31,0,0,0,2.35,1.54l.28.17A37.26,37.26,0,0,0,18,34.11a7.56,7.56,0,0,1,.41,2.49A7.06,7.06,0,0,1,17.54,40h-.92v.31h.74c-.09.13-.18.26-.29.39l-.07.08h.11a2.85,2.85,0,0,0,1.38-.47H23.1V40H18.88a5.31,5.31,0,0,0,1.35-2,8.47,8.47,0,0,0,.56-2.76v-.17l.77.17.34.07a14.43,14.43,0,0,1-.55,3.78l.3,0a14.44,14.44,0,0,0,.55-3.79,5.74,5.74,0,0,0,.65.1l.38,0h.36v0a4,4,0,0,0,.8-.9A11.63,11.63,0,0,0,26,29.1c0-.29,0-.59,0-.89A15.08,15.08,0,0,0,26,26.06Zm-1.76,6.62a17.52,17.52,0,0,1-2.14,0H22c-.05-.41-.11-.8-.18-1.19a11.78,11.78,0,0,1,.25-5.91,4.69,4.69,0,0,0,2.14,3.27Z"/></g></svg>