<svg id="Layer_1" data-name="Layer 1" xmlns="http://www.w3.org/2000/svg" xmlns:xlink="http://www.w3.org/1999/xlink" viewBox="0 0 60 45"><defs><style>.cls-1{fill:none;}.cls-2{clip-path:url(#clip-path);}.cls-3{fill:#3a3938;}</style><clipPath id="clip-path"><rect class="cls-1" x="-0.28" y="0.53" width="60.56" height="43.94"/></clipPath></defs><g class="cls-2"><path class="cls-3" d="M9.38,3.21H5.88v9.24H3.23V3.21H-.28V.86H9.38Z"/><path class="cls-3" d="M18.64,12.45H16.05V7.63a1.87,1.87,0,0,0-.32-1.22A1.08,1.08,0,0,0,14.84,6a1.34,1.34,0,0,0-.49.1,2.17,2.17,0,0,0-.52.31,2.69,2.69,0,0,0-.46.49,2,2,0,0,0-.32.61v4.92H10.46V.53h2.59V5.31a3.24,3.24,0,0,1,1.23-1.18A3.49,3.49,0,0,1,16,3.72a2.78,2.78,0,0,1,1.39.3,2.2,2.2,0,0,1,.81.76,3.2,3.2,0,0,1,.38,1A7.37,7.37,0,0,1,18.64,7Z"/><path class="cls-3" d="M24.42,12.61a4.9,4.9,0,0,1-1.92-.35,4.16,4.16,0,0,1-1.44-.95,4.31,4.31,0,0,1-.9-1.4,4.65,4.65,0,0,1-.3-1.66,5.07,5.07,0,0,1,.3-1.75,4.4,4.4,0,0,1,.89-1.45,4.28,4.28,0,0,1,1.43-1,4.94,4.94,0,0,1,1.94-.35,4.84,4.84,0,0,1,1.92.35,4.26,4.26,0,0,1,1.42,1,4.11,4.11,0,0,1,.89,1.42,4.94,4.94,0,0,1,.29,1.68c0,.15,0,.3,0,.45a3.53,3.53,0,0,1-.05.38H22.6a1.81,1.81,0,0,0,.63,1.32,1.94,1.94,0,0,0,1.27.44,2.37,2.37,0,0,0,1.09-.27,1.45,1.45,0,0,0,.7-.75l2.2.62A4,4,0,0,1,26.94,12,4.81,4.81,0,0,1,24.42,12.61Zm1.79-5.25a2,2,0,0,0-.58-1.29,1.87,1.87,0,0,0-2.5,0,2,2,0,0,0-.57,1.29Z"/><path class="cls-3" d="M5.08,25.79V21.22H.84V19H5.08V16.55H-.06V14.2H7.73V25.79Z"/><path class="cls-3" d="M12,26a3.42,3.42,0,0,1-1.17-.2,2.79,2.79,0,0,1-1.55-1.44,2.59,2.59,0,0,1-.22-1.09,2.5,2.5,0,0,1,.26-1.16,2.77,2.77,0,0,1,.75-.89,3.79,3.79,0,0,1,1.15-.59,4.9,4.9,0,0,1,1.48-.21,5.8,5.8,0,0,1,1,.09,3.3,3.3,0,0,1,.87.27v-.4c0-1-.56-1.48-1.69-1.48a3.91,3.91,0,0,0-1.33.23,6.52,6.52,0,0,0-1.33.72l-.76-1.64a7,7,0,0,1,1.75-.83,6.65,6.65,0,0,1,1.92-.28,4.39,4.39,0,0,1,3,.92,3.35,3.35,0,0,1,1,2.67v2.21a1,1,0,0,0,.12.55.62.62,0,0,0,.43.18v2.21a4,4,0,0,1-.61.1l-.5,0a1.76,1.76,0,0,1-1.1-.29,1.24,1.24,0,0,1-.47-.81L15,24.43a3.93,3.93,0,0,1-1.35,1.13A3.71,3.71,0,0,1,12,26Zm.76-1.88a2.57,2.57,0,0,0,.82-.14,1.84,1.84,0,0,0,.65-.4.79.79,0,0,0,.37-.62V22.1a3.89,3.89,0,0,0-.73-.21,4,4,0,0,0-.74-.07,2,2,0,0,0-1.17.33,1,1,0,0,0-.46.84,1,1,0,0,0,.35.78A1.37,1.37,0,0,0,12.79,24.07Z"/><path class="cls-3" d="M22.45,26a6.8,6.8,0,0,1-2.14-.35,5.1,5.1,0,0,1-1.78-1l.92-1.6a7.42,7.42,0,0,0,1.52.83,3.73,3.73,0,0,0,1.41.3,1.43,1.43,0,0,0,.78-.18.6.6,0,0,0,.27-.53.59.59,0,0,0-.35-.54,5.23,5.23,0,0,0-1.22-.44c-.57-.16-1.05-.32-1.44-.47a3.8,3.8,0,0,1-1-.51,1.57,1.57,0,0,1-.53-.63,2,2,0,0,1-.16-.85A2.6,2.6,0,0,1,19,18.77a2.68,2.68,0,0,1,.71-.92,3.56,3.56,0,0,1,1.07-.59,4.24,4.24,0,0,1,1.35-.21,6,6,0,0,1,1.79.26,4.5,4.5,0,0,1,1.61,1l-1,1.57a7.27,7.27,0,0,0-1.3-.74,2.93,2.93,0,0,0-1.1-.23,1.34,1.34,0,0,0-.71.18.58.58,0,0,0-.29.54.59.59,0,0,0,.32.54,5.12,5.12,0,0,0,1.17.39c.6.17,1.11.33,1.53.49a4.49,4.49,0,0,1,1,.55,1.73,1.73,0,0,1,.56.69,2.28,2.28,0,0,1,.18.94,2.45,2.45,0,0,1-.94,2A3.93,3.93,0,0,1,22.45,26Z"/><path class="cls-3" d="M35.35,25.79H32.76V21a1.87,1.87,0,0,0-.32-1.22,1.08,1.08,0,0,0-.89-.39,1.34,1.34,0,0,0-.49.1,2.17,2.17,0,0,0-.52.31,3,3,0,0,0-.46.48,2,2,0,0,0-.32.62v4.92H27.17V13.87h2.59v4.78A3.24,3.24,0,0,1,31,17.47a3.47,3.47,0,0,1,1.69-.42,2.7,2.7,0,0,1,1.39.31,2.1,2.1,0,0,1,.8.76,3,3,0,0,1,.39,1.05,7.27,7.27,0,0,1,.09,1.13Z"/><path class="cls-3" d="M37.07,16.24V13.87h2.58v2.37Zm0,9.55V17.22h2.58v8.57Z"/><path class="cls-3" d="M45.48,26a4.93,4.93,0,0,1-1.94-.36,4.26,4.26,0,0,1-1.43-1,4.09,4.09,0,0,1-.88-1.42,4.91,4.91,0,0,1,0-3.38,4.09,4.09,0,0,1,.88-1.42,4.28,4.28,0,0,1,1.43-1,4.76,4.76,0,0,1,1.94-.37,4.67,4.67,0,0,1,1.92.37,4.21,4.21,0,0,1,2.31,2.4A4.61,4.61,0,0,1,50,21.51a4.81,4.81,0,0,1-.3,1.69,4.09,4.09,0,0,1-.88,1.42,4.16,4.16,0,0,1-1.43,1A4.92,4.92,0,0,1,45.48,26Z"/><path class="cls-3" d="M59.48,25.79H56.89V21a1.93,1.93,0,0,0-.31-1.23,1,1,0,0,0-.83-.39,1.33,1.33,0,0,0-.55.12,2,2,0,0,0-.54.32,2.34,2.34,0,0,0-.46.48,2.13,2.13,0,0,0-.31.6v4.92H51.3V17.22h2.33v1.43A3.09,3.09,0,0,1,55,17.47a4.47,4.47,0,0,1,2-.42,2.53,2.53,0,0,1,1.32.3,2.18,2.18,0,0,1,.78.79,3.11,3.11,0,0,1,.36,1.05,7.11,7.11,0,0,1,.09,1.11v5.49Z"/><path class="cls-3" d="M28,38.78V27.19h7.79v2.35H30.61V32h4.24v2.18H30.61v4.57Z"/><path class="cls-3" d="M41,38.94a5.09,5.09,0,0,1-1.92-.35,4.09,4.09,0,0,1-1.43-1,3.88,3.88,0,0,1-.9-1.39,4.45,4.45,0,0,1-.31-1.66,4.85,4.85,0,0,1,.31-1.75,4.24,4.24,0,0,1,.89-1.45,4.18,4.18,0,0,1,1.43-1,5.35,5.35,0,0,1,3.86,0,4.36,4.36,0,0,1,1.42,1,4.09,4.09,0,0,1,.88,1.42,4.72,4.72,0,0,1,.3,1.68c0,.15,0,.3,0,.45a2.06,2.06,0,0,1,0,.38H39.19a1.75,1.75,0,0,0,.62,1.31,2,2,0,0,0,1.27.45,2.24,2.24,0,0,0,1.09-.28,1.4,1.4,0,0,0,.71-.75l2.2.62a4,4,0,0,1-1.56,1.65A4.72,4.72,0,0,1,41,38.94Zm1.8-5.26a2,2,0,0,0-.59-1.29A1.76,1.76,0,0,0,41,31.92a1.7,1.7,0,0,0-1.25.48,2,2,0,0,0-.58,1.28Z"/><path class="cls-3" d="M50.06,38.94a6.85,6.85,0,0,1-2.14-.35,4.8,4.8,0,0,1-1.78-1l.93-1.6a7.12,7.12,0,0,0,1.51.83,3.73,3.73,0,0,0,1.41.3,1.41,1.41,0,0,0,.78-.18.6.6,0,0,0,.27-.53.59.59,0,0,0-.34-.54,5.62,5.62,0,0,0-1.22-.44c-.58-.16-1.06-.32-1.45-.47a3.56,3.56,0,0,1-1-.51,1.6,1.6,0,0,1-.54-.63,2,2,0,0,1-.16-.85,2.73,2.73,0,0,1,.26-1.19,2.68,2.68,0,0,1,.71-.92,3.5,3.5,0,0,1,1.08-.59A4.15,4.15,0,0,1,49.77,30a6,6,0,0,1,1.78.26,4.41,4.41,0,0,1,1.61.95l-1,1.57a7.23,7.23,0,0,0-1.29-.74,3,3,0,0,0-1.1-.22,1.31,1.31,0,0,0-.71.17.57.57,0,0,0-.3.54.59.59,0,0,0,.32.54,5.12,5.12,0,0,0,1.17.39c.61.17,1.12.33,1.53.49a4.28,4.28,0,0,1,1,.55,1.85,1.85,0,0,1,.57.69,2.29,2.29,0,0,1,.17.94,2.47,2.47,0,0,1-.93,2A4,4,0,0,1,50.06,38.94Z"/><path class="cls-3" d="M60.28,38.32a10.76,10.76,0,0,1-1.22.42,5.06,5.06,0,0,1-1.38.2,3.41,3.41,0,0,1-.92-.12,2.07,2.07,0,0,1-.75-.39,1.78,1.78,0,0,1-.51-.71,2.83,2.83,0,0,1-.19-1.06V32.18H54.23v-2h1.08V27.48H57.9v2.73h1.73v2H57.9v3.58a.78.78,0,0,0,.21.61.81.81,0,0,0,.54.19,2.21,2.21,0,0,0,.6-.1c.2-.07.38-.14.53-.21Z"/><path class="cls-3" d="M28.25,40.22h.29v3.6a.36.36,0,0,0,.09.26.34.34,0,0,0,.26.1H29l.16-.05.06.23a1,1,0,0,1-.24.07l-.24,0a.53.53,0,0,1-.39-.15.56.56,0,0,1-.14-.39Z"/><path class="cls-3" d="M32.66,44.47a1.27,1.27,0,0,1-.58-.13,1.39,1.39,0,0,1-.46-.33,1.83,1.83,0,0,1-.31-.5,1.69,1.69,0,0,1,0-1.2,1.77,1.77,0,0,1,.31-.49,1.35,1.35,0,0,1,.45-.33,1.4,1.4,0,0,1,.58-.12,1.29,1.29,0,0,1,.58.13,1.5,1.5,0,0,1,.46.33,1.44,1.44,0,0,1,.3.49,1.63,1.63,0,0,1,.11.59V43a.12.12,0,0,1,0,.05H31.5a1.21,1.21,0,0,0,.12.48,1.14,1.14,0,0,0,.25.38,1.18,1.18,0,0,0,.37.26,1,1,0,0,0,.43.09,1.55,1.55,0,0,0,.31,0,1.31,1.31,0,0,0,.27-.12,1,1,0,0,0,.23-.18,1.19,1.19,0,0,0,.16-.23l.25.06a1.17,1.17,0,0,1-.19.3,1.23,1.23,0,0,1-.28.23,1.14,1.14,0,0,1-.36.15A1.34,1.34,0,0,1,32.66,44.47Zm1.16-1.67a1.53,1.53,0,0,0-.11-.48,1.28,1.28,0,0,0-.26-.38,1.13,1.13,0,0,0-.36-.24,1.08,1.08,0,0,0-.44-.09,1.12,1.12,0,0,0-.44.09,1.41,1.41,0,0,0-.36.24,1.39,1.39,0,0,0-.25.38,1.53,1.53,0,0,0-.11.48Z"/><path class="cls-3" d="M36.22,42.91a1.73,1.73,0,0,1,.11-.6,1.44,1.44,0,0,1,.3-.49,1.5,1.5,0,0,1,.46-.33,1.45,1.45,0,0,1,.59-.12,1.28,1.28,0,0,1,.71.19,1.09,1.09,0,0,1,.46.51l-.28.09a.93.93,0,0,0-.37-.39,1.08,1.08,0,0,0-.53-.14,1,1,0,0,0-.46.1,1,1,0,0,0-.36.27,1.18,1.18,0,0,0-.25.4,1.44,1.44,0,0,0-.09.51,1.35,1.35,0,0,0,.09.5,1.46,1.46,0,0,0,.25.42,1.44,1.44,0,0,0,.37.28,1,1,0,0,0,.45.1,1.06,1.06,0,0,0,.31-.05,1.39,1.39,0,0,0,.28-.12,1.28,1.28,0,0,0,.22-.17.6.6,0,0,0,.13-.21l.28.08a1,1,0,0,1-.18.29,1.18,1.18,0,0,1-.27.23,1.14,1.14,0,0,1-.36.15,1.36,1.36,0,0,1-1-.07,1.5,1.5,0,0,1-.46-.33,1.83,1.83,0,0,1-.31-.5A1.73,1.73,0,0,1,36.22,42.91Z"/><path class="cls-3" d="M43.66,44.41h-.29V42.74c0-.73-.24-1.1-.73-1.1a.92.92,0,0,0-.36.07,1.18,1.18,0,0,0-.32.19,1.31,1.31,0,0,0-.27.3,1.49,1.49,0,0,0-.17.36v1.85h-.28V40.22h.28v1.92a1.43,1.43,0,0,1,.5-.56,1.27,1.27,0,0,1,.7-.21.78.78,0,0,1,.71.36,1.18,1.18,0,0,1,.17.41,2.39,2.39,0,0,1,0,.55v1.72Z"/><path class="cls-3" d="M47.48,44.47a1.27,1.27,0,0,1-.58-.13,1.54,1.54,0,0,1-.47-.33,1.59,1.59,0,0,1-.3-.5,1.69,1.69,0,0,1,0-1.2,1.54,1.54,0,0,1,.3-.49,1.39,1.39,0,0,1,1-.45,1.27,1.27,0,0,1,.58.13,1.39,1.39,0,0,1,.46.33,1.62,1.62,0,0,1,.41,1.08V43h-2.6a1.21,1.21,0,0,0,.12.48,1.34,1.34,0,0,0,.26.38,1.14,1.14,0,0,0,.36.26,1.08,1.08,0,0,0,.44.09,1.54,1.54,0,0,0,.3,0,1.39,1.39,0,0,0,.28-.12,1,1,0,0,0,.22-.18.87.87,0,0,0,.16-.23l.25.06a.92.92,0,0,1-.18.3,1.28,1.28,0,0,1-.29.23,1.09,1.09,0,0,1-.35.15A1.34,1.34,0,0,1,47.48,44.47Zm1.16-1.67a1.31,1.31,0,0,0-.12-.48,1.25,1.25,0,0,0-.25-.38,1.41,1.41,0,0,0-.36-.24,1.12,1.12,0,0,0-.44-.09,1.08,1.08,0,0,0-.44.09,1.13,1.13,0,0,0-.36.24,1.19,1.19,0,0,0-.25.38,1.53,1.53,0,0,0-.11.48Z"/><path class="cls-3" d="M52.64,41.68a1.17,1.17,0,0,0-1.11.86v1.87h-.28v-3h.27v.74a1.38,1.38,0,0,1,.41-.51,1,1,0,0,1,.54-.23h.18v.27Z"/><path class="cls-3" d="M55,40.8l-.2-.09.35-.49h.33Zm-.14,3.61v-3h.29v3Z"/><path class="cls-3" d="M58.51,44.47a1.23,1.23,0,0,1-.39-.07,1.27,1.27,0,0,1-.31-.2.84.84,0,0,1-.2-.29,1,1,0,0,1-.08-.37.68.68,0,0,1,.09-.35.86.86,0,0,1,.26-.28,1,1,0,0,1,.39-.18,1.55,1.55,0,0,1,.5-.07,2.59,2.59,0,0,1,.48,0,2.43,2.43,0,0,1,.43.12v-.29a.94.94,0,0,0-.24-.68.87.87,0,0,0-.65-.25,1.29,1.29,0,0,0-.45.09,2.75,2.75,0,0,0-.5.27l-.1-.2a1.93,1.93,0,0,1,1.08-.39,1.14,1.14,0,0,1,.84.32,1.17,1.17,0,0,1,.31.86V44c0,.09,0,.14.12.14v.26H60a.19.19,0,0,1-.18-.08.25.25,0,0,1-.08-.18v-.25a1.27,1.27,0,0,1-.53.41A1.57,1.57,0,0,1,58.51,44.47Zm.05-.23a1.39,1.39,0,0,0,.61-.13,1,1,0,0,0,.42-.33.4.4,0,0,0,.09-.23V43a2.9,2.9,0,0,0-.42-.12,2.38,2.38,0,0,0-.46,0,1.7,1.7,0,0,0-.41,0,1.26,1.26,0,0,0-.31.13.57.57,0,0,0-.2.21.55.55,0,0,0-.07.28.66.66,0,0,0,0,.28A.6.6,0,0,0,58,44a.61.61,0,0,0,.24.15A.8.8,0,0,0,58.56,44.24Z"/></g></svg>