<svg id="Layer_1" data-name="Layer 1" xmlns="http://www.w3.org/2000/svg" xmlns:xlink="http://www.w3.org/1999/xlink" viewBox="0 0 60 45"><defs><style>.cls-1{fill:none;}.cls-2{clip-path:url(#clip-path);}.cls-3{fill:#2b3130;}</style><clipPath id="clip-path"><rect class="cls-1" x="0.12" y="11.56" width="60.1" height="21.76"/></clipPath></defs><g class="cls-2"><path class="cls-3" d="M6.23,20.13l-2-.4c-1.75-.34-1.75-.74-1.75-1.25,0-.35,0-1.3,2.47-1.3,2.2,0,2.53,1,2.59,1.79l0,.62H9.54l0-.69c0-1.35-.72-3.61-4.75-3.61-3.21,0-4.35,1.64-4.35,3.18,0,2,1.39,2.76,3.48,3.2l1.81.38c2,.41,2,.8,2,1.33,0,1.22-1.4,1.48-2.58,1.48-2.69,0-3-1.18-3.05-2.21V22h-2v.67c0,1.53.66,4.09,5.09,4.09,4.25,0,4.58-2.61,4.58-3.41C9.79,21.12,8,20.47,6.23,20.13Z"/><path class="cls-3" d="M17.29,15.29A5.62,5.62,0,0,0,11.45,21a5.62,5.62,0,0,0,5.84,5.73A5.62,5.62,0,0,0,23.13,21,5.62,5.62,0,0,0,17.29,15.29ZM21.15,21a3.73,3.73,0,0,1-3.86,3.84A3.73,3.73,0,0,1,13.43,21a3.73,3.73,0,0,1,3.86-3.84A3.73,3.73,0,0,1,21.15,21Z"/><path class="cls-3" d="M27.09,15.5h-2v11h8.35V24.65H27.09Z"/><path class="cls-3" d="M35.44,26.54h2V21.79h6.07V19.9H37.42V17.39h6.42V15.5h-8.4Z"/><path class="cls-3" d="M47.8,15.5h-2v11h2Z"/><path class="cls-3" d="M59.83,11.56h-14v2h14Z"/><path class="cls-3" d="M57.85,15.5v7.64L51.57,15.5H49.78v11h2V18.9l6.29,7.64h1.78v-11Z"/><path class="cls-3" d="M2.74,31a.91.91,0,0,0-1-.7A1.19,1.19,0,0,0,.58,31.58C.58,32.33.94,33,1.77,33a1,1,0,0,0,1-.94h.46a1.39,1.39,0,0,1-1.51,1.31A1.54,1.54,0,0,1,.12,31.61a1.59,1.59,0,0,1,1.65-1.72A1.32,1.32,0,0,1,3.21,31Z"/><path class="cls-3" d="M6.6,30h.51l1.37,3.27H8l-.38-1H6.1l-.39,1H5.23Zm-.35,1.92H7.43l-.58-1.53h0Z"/><path class="cls-3" d="M12.67,30.93c-.06-.47-.39-.67-.87-.67s-.78.13-.78.56.56.46,1.12.58,1.11.3,1.11.94-.72,1-1.36,1-1.44-.36-1.44-1.16h.44c0,.55.49.79,1,.79s.88-.12.88-.59-.56-.53-1.11-.65-1.12-.26-1.12-.86.63-1,1.26-1,1.26.31,1.29,1Z"/><path class="cls-3" d="M16.6,30h.51l1.36,3.27H18l-.38-1H16.1l-.39,1h-.48Zm-.35,1.92h1.18l-.58-1.53h0Z"/><path class="cls-3" d="M23.84,30H25c1.07,0,1.67.5,1.67,1.56A1.49,1.49,0,0,1,25,33.24h-1.2Zm.46,2.9h.77c.32,0,1.18-.08,1.18-1.28,0-.78-.31-1.26-1.17-1.26H24.3v2.54Z"/><path class="cls-3" d="M29.11,30h2.41v.36H29.58v1.05h1.81v.36H29.58v1.14h2v.36H29.11Z"/><path class="cls-3" d="M37.12,30h1.27a2.21,2.21,0,0,1,.92.12.75.75,0,0,1,.41.68.74.74,0,0,1-.52.73h0a.77.77,0,0,1,.67.79,1,1,0,0,1-1.06.94H37.12V30Zm.47,1.4h.92c.53,0,.75-.17.75-.52s-.34-.52-.75-.52h-.92Zm0,1.5h1.16a.58.58,0,0,0,.65-.58c0-.43-.36-.55-.75-.55H37.59Z"/><path class="cls-3" d="M43.78,29.89a1.72,1.72,0,1,1-1.67,1.71A1.61,1.61,0,0,1,43.78,29.89Zm0,3.06a1.36,1.36,0,1,0-1.21-1.35A1.21,1.21,0,0,0,43.78,33Z"/><path class="cls-3" d="M47.85,30h.46v2.9h1.85v.37H47.85Z"/><path class="cls-3" d="M54.42,30.93c-.06-.47-.39-.67-.87-.67s-.78.13-.78.56.56.46,1.12.58,1.11.3,1.11.94-.73,1-1.36,1S52.2,33,52.2,32.16h.44c0,.55.49.79,1,.79s.89-.12.89-.59-.56-.53-1.12-.65-1.12-.26-1.12-.86.64-1,1.27-1,1.26.31,1.29,1Z"/><path class="cls-3" d="M58.35,30h.51l1.36,3.27h-.51l-.38-1H57.85l-.39,1H57ZM58,31.89h1.18l-.58-1.53h0Z"/></g></svg>