<svg id="Layer_1" data-name="Layer 1" xmlns="http://www.w3.org/2000/svg" xmlns:xlink="http://www.w3.org/1999/xlink" viewBox="0 0 60 45"><defs><style>.cls-1,.cls-4{fill:none;}.cls-2{clip-path:url(#clip-path);}.cls-3{fill:#2b3130;}.cls-3,.cls-6{fill-rule:evenodd;}.cls-4{stroke:#010101;stroke-miterlimit:22.93;stroke-width:0.5px;}.cls-5{fill:#010101;}.cls-6{fill:#fff;}</style><clipPath id="clip-path"><rect class="cls-1" y="16.07" width="60" height="12.86"/></clipPath></defs><g class="cls-2"><path class="cls-3" d="M3.09,26.45H0V16.58H7c4,.31,5.33,4.53,2,6.89a4,4,0,0,1,1.68,2.45v3H7.57V25.74A1.71,1.71,0,0,0,6.2,24.28H3.85V22.2H6.56c1.52,0,2.11-3.09,0-3.14H3.09Z"/><path class="cls-3" d="M20.43,26.58H15.17c-4.29-.21-4.95-6.69-.43-7.48H20.6V21l-1.54,2.67H16.15l1.42-2.46H15.72c-1.83.14-1.65,2.89-.23,2.92h4.94Z"/><path class="cls-3" d="M30.07,26.58H24.81c-4.3-.21-4.95-6.69-.43-7.48h5.86V21L28.7,23.69H25.79l1.42-2.46H25.36c-1.83.14-1.65,2.89-.23,2.92h4.94Z"/><path class="cls-3" d="M31.22,26.58h5.31c5.74-.31,4.45-7.56.81-7.6H35v2.16h1.58c1.7.07,1.58,2.94-.05,2.89H34.41V16.55H31.22Z"/><path class="cls-3" d="M45.93,26.66c-2.56,0-4.63-1.72-4.63-3.84S43.37,19,45.93,19s4.62,1.72,4.62,3.85S48.48,26.66,45.93,26.66Z"/><path class="cls-3" d="M51,26.58V16.89h3.33v4.27h.46a2.21,2.21,0,0,0,2-1.95H60v.38c0,1.34-1.25,2.09-2.16,2.66,1.45,0,1.74,1.34,1.73,2.24v2.09h-3V24.69a1.32,1.32,0,0,0-1.3-1.3h-1v3.2Z"/><path class="cls-4" d="M48.9,18.86a1.37,1.37,0,1,1,1.38-1.37A1.38,1.38,0,0,1,48.9,18.86Z"/><path class="cls-5" d="M48.33,18.3V16.56H49a.56.56,0,0,1,.29.05.34.34,0,0,1,.15.16.53.53,0,0,1,.06.26.47.47,0,0,1-.1.32.54.54,0,0,1-.3.16.41.41,0,0,1,.12.09.91.91,0,0,1,.15.23l.25.47h-.23l-.2-.36a2,2,0,0,0-.16-.29.47.47,0,0,0-.11-.1l-.15,0h-.22v.77Zm.19-1h.41a.53.53,0,0,0,.2,0,.29.29,0,0,0,.11-.11.25.25,0,0,0,0-.16.24.24,0,0,0-.08-.2.3.3,0,0,0-.23-.08h-.45Z"/><path class="cls-6" d="M45.93,24.31a1.62,1.62,0,0,1-1.73-1.49,1.74,1.74,0,0,1,3.45,0A1.62,1.62,0,0,1,45.93,24.31Z"/></g></svg>