<svg id="Layer_1" data-name="Layer 1" xmlns="http://www.w3.org/2000/svg" xmlns:xlink="http://www.w3.org/1999/xlink" viewBox="0 0 60 45"><defs><style>.cls-1{fill:none;}.cls-2{clip-path:url(#clip-path);}.cls-3{fill:#2b3130;}</style><clipPath id="clip-path"><rect class="cls-1" y="15.8" width="60" height="13.39"/></clipPath></defs><g class="cls-2"><path class="cls-3" d="M28.71,19.88v-.14h-3l-3.41,3.79V15.8h-2.5V29.18h2.5V24.91l4,4.27h3V29l-4.69-4.82Z"/><path class="cls-3" d="M32.64,20.84l-.19-1.1H30.13v9.44h2.51v-5a2.26,2.26,0,0,1,2.52-2.39,2.6,2.6,0,0,1,1.8.61l1.13-2a4,4,0,0,0-2.6-.9A3,3,0,0,0,32.64,20.84Z"/><path class="cls-3" d="M43.2,19.21c-3.28,0-5.37,2.07-5.37,4.93,0,3,2.07,5,5.56,5a6.45,6.45,0,0,0,4.34-1.53l-1.59-1.48a4.36,4.36,0,0,1-2.71.88c-1.76,0-2.85-.84-3-2h7.89C48.7,21.16,46.59,19.21,43.2,19.21Zm-2.74,3.9a2.72,2.72,0,0,1,2.82-1.84c1.44,0,2.46.62,2.63,1.84Z"/><path class="cls-3" d="M57.6,19.45l-.08,1.3a3.79,3.79,0,0,0-3.22-1.53C51.35,19.2,49,20.9,49,24.15s2.22,5,5.21,5a3.91,3.91,0,0,0,3.28-1.66l.15,1.7H60V19.45ZM54.53,27a2.86,2.86,0,1,1,0-5.72A2.86,2.86,0,1,1,54.53,27Z"/><path class="cls-3" d="M0,24.15c0,3.35,2.44,5,5.37,5a5.65,5.65,0,0,0,3.91-1.52h0l.06-.06.39-.36A5.19,5.19,0,0,0,14,29.07c3.28,0,5.27-2.2,5.27-4.92a5,5,0,0,0-5.29-4.92A4.89,4.89,0,0,0,8.7,24.15a5.05,5.05,0,0,0,.08.88L7.49,26.21a3.23,3.23,0,0,1-2.12.7A2.67,2.67,0,0,1,2.5,24.15a2.75,2.75,0,0,1,2.91-2.79,3.24,3.24,0,0,1,2,.74L9,20.55a5,5,0,0,0-3.65-1.39C2.44,19.16,0,20.8,0,24.15Z"/></g></svg>