<svg id="Layer_1" data-name="Layer 1" xmlns="http://www.w3.org/2000/svg" xmlns:xlink="http://www.w3.org/1999/xlink" viewBox="0 0 60 45"><defs><style>.cls-1{fill:none;}.cls-2{clip-path:url(#clip-path);}.cls-3{fill:#2b3130;}</style><clipPath id="clip-path"><rect class="cls-1" y="0.94" width="60" height="43.13"/></clipPath></defs><g class="cls-2"><path class="cls-3" d="M31.64,34.37V39A1.52,1.52,0,0,1,30,40.6v3a.46.46,0,0,0,.47.43H37a.76.76,0,0,0,.39-.1l2.91-1.7v1.37a.45.45,0,0,0,.46.43h3.44a1,1,0,0,0,.52-.16l4.7-3.3H47A1.59,1.59,0,0,1,45.47,39V35.35c-.53-1.33-2-4.81-3.38-8.5v7.2h1.53A1.38,1.38,0,0,1,45,35.55V39a1.57,1.57,0,0,1-1.54,1.58H36.66A1.63,1.63,0,0,1,35.05,39V34.37Z"/><path class="cls-3" d="M49.75,5.09a1.66,1.66,0,0,0,1.62-1.62,1.62,1.62,0,0,0-1.31-1.58,1.26,1.26,0,0,0-.39,0c-.1,0-.21,0-.24-.1a2.11,2.11,0,0,1,0-.26c0-.3-.25-.47-.54-.54-.59-.14-1.23.54-1.23.54s-.22.25-.35.2a.16.16,0,0,1-.11-.2c.08-.27-.17-.41-.38-.37a3.1,3.1,0,0,0-2,1.9c-.26.56-.08.57-.08.57s.33-.29.33-.29a2.29,2.29,0,0,1,4.08,1.43s-.07.39.62.35"/><path class="cls-3" d="M56.59,12s0,.56.42-.12a3.72,3.72,0,0,1,1.6-1.29s.79-.24.62-.8c0,0,0-.3-.47-.2s-.25-.14,0-.31,1.58-.84,1.19-1.72-1.84-.66-2.67,0a3.29,3.29,0,0,0-1,1.44,2.31,2.31,0,0,0,0,1.14s.31,1.31.36,1.85"/><path class="cls-3" d="M56.15,12a3.21,3.21,0,0,0-3.22-3.23H48.76a.47.47,0,0,0-.66.07l0,0c-.19.22-.5.29-.85-.06a.37.37,0,0,0-.61.06.72.72,0,0,1-1.18,0c-.08-.11,0-.29.16-.17s.52.48.8,0a.64.64,0,0,1,1-.11c.22.16.34.22.59-.07,0,0,.43-.44.78-.07V4.78a1.91,1.91,0,0,0-3.82-.12v.81l-.78.69s-.21.17-.17.31,0,.18.29.18h.55s.16,0,.17,0,0,.08-.08.09c-1.85.71-1.85,1.79-1.85,1.79a.59.59,0,0,0,.72.72,1.43,1.43,0,0,0,1-1.07A2.14,2.14,0,0,1,44.31,10a4.89,4.89,0,0,0-1,3A5,5,0,0,0,47.2,18a2,2,0,0,0,.6.08,1.13,1.13,0,0,0,.66,1l-.28,2h-1s-.25,0-.26.17c0,0,0,.13.25.13h2a.15.15,0,0,0,.17-.15v0s0-.14-.28-.12h-.52l.35-2a1.54,1.54,0,0,0,1-.94,5.29,5.29,0,0,0,2.21-1.27s.26-.22.2,0a2.5,2.5,0,0,1-1.75,1.28s-.25,0-.15.21A1.78,1.78,0,0,0,51,19l-.37,1.81h-.76a.14.14,0,0,0-.11.15s0,.12.12.12h2.2a.11.11,0,0,0,.13-.11v0s0-.11-.17-.11H51L51.41,19l.23-.05a2,2,0,0,0,.82-1,.73.73,0,0,1,.47-.45,3.81,3.81,0,0,0,1.58-1.18A7,7,0,0,0,56.15,12ZM46.38,4.43c.13,0,.24.23.24.51s-.11.51-.24.51-.24-.23-.24-.51S46.25,4.43,46.38,4.43ZM52,13.58c-.25,0-.42.21-.19.4a.4.4,0,0,1-.12.7c-.34.09-.06.53-.06.53.22.58-.57.73-.57.73a3.5,3.5,0,0,1-3.3-1c-.75-.78-.67-.85-.57-.92s.33.18.33.18a3.42,3.42,0,0,0,3.24,1.38c.52-.08.54-.38.38-.61a.36.36,0,0,1,.05-.51.19.19,0,0,1,.09-.05c.19,0,.36-.36.12-.51s-.21-.42,0-.49a.3.3,0,0,0,.22-.29.87.87,0,0,0-.14-.42c-.82-1.71-3.41-1.85-3.41-1.85-.24,0-.43,0-.43-.24s.39-.17.39-.17a4.64,4.64,0,0,1,4.07,2.25c.39.88-.14.85-.14.85"/><path class="cls-3" d="M30.56,38.74V33.15a.1.1,0,0,1,0-.09.11.11,0,0,1,.09,0h3.87a.49.49,0,0,0,.33-.13.41.41,0,0,0,.14-.31V30a.45.45,0,0,0-.47-.43H30.69a.13.13,0,0,1-.13-.13V27a.12.12,0,0,1,.13-.13h3.87a.46.46,0,0,0,.47-.44v-2.6a.41.41,0,0,0-.14-.31.49.49,0,0,0-.33-.13H26.37a.45.45,0,0,0-.46.44h0V38.74a.38.38,0,0,0,0,.18.46.46,0,0,0,.43.26h3.72a.46.46,0,0,0,.47-.43Z"/><path class="cls-3" d="M55.06,23.44a.54.54,0,0,0-.22-.05H50.9l-.13,0a.23.23,0,0,0-.12.06l-.09.07h0l0,0,0,0,0,.06s0,0,0,0l-1.54,4.06a.08.08,0,0,1,0,0h0l-.06,0h0l-.08,0,0-.06c-.06-.17-.12-.33-.19-.49l-.58-1.51-.79-2.06a.43.43,0,0,0-.2-.22.48.48,0,0,0-.24-.07h-4l-.09,0H42.5a.18.18,0,0,0-.09.06l0,0h0a0,0,0,0,0,0,0l0,.06a.42.42,0,0,0,0,.31c1.75,4.61,3.7,9.55,4.24,10.92v3.88a.38.38,0,0,0,0,.18.46.46,0,0,0,.43.26h3.85a.34.34,0,0,0,.18-.09h0v0s0,0,0,0h0v0a.12.12,0,0,0,0-.08l0,0v-4L55.28,24A.43.43,0,0,0,55.06,23.44Z"/><path class="cls-3" d="M33.49,15.93v3.86a.43.43,0,0,0,.46.43H37.8l0,0h.06l0,0,.09-.08a.43.43,0,0,0,0-.07s0,0,0-.05,0,0,0,0a.06.06,0,0,1,0-.05v-4L42.25,5A.43.43,0,0,0,42,4.47a.4.4,0,0,0-.15,0h-4l-.14,0-.06,0-.1.06,0,0a.26.26,0,0,0-.07.11s0,0,0,0L35.9,8.79l0,0a.08.08,0,0,1,0,0h-.06a.12.12,0,0,1-.08,0,.15.15,0,0,1,0-.06c-.25-.65-.51-1.32-.77-2s-.53-1.36-.79-2a.48.48,0,0,0-.44-.29H29.55l-.05,0-.1,0,0,0h0l-.05.07,0,.06a.4.4,0,0,0,0,.32C31,9.62,33,14.57,33.49,15.93Z"/><path class="cls-3" d="M40.44,23.39H36.62l0,0h0l-.07,0a.45.45,0,0,0-.16.2.32.32,0,0,0,0,.16V38.74a.39.39,0,0,0,0,.18l0,0a.61.61,0,0,0,.07.1.46.46,0,0,0,.33.12h6.69a.45.45,0,0,0,.47-.43V35.27a.46.46,0,0,0-.47-.43H41.05a.13.13,0,0,1-.14-.13V23.83a.41.41,0,0,0-.14-.31A.49.49,0,0,0,40.44,23.39Z"/><path class="cls-3" d="M52.27,21.14s0,0,0,0,0,0,0,0Z"/><path class="cls-3" d="M7.16,20.22H11a.46.46,0,0,0,.18-.1s0,0,.05-.05l0-.06s0,0,0-.06h0a.15.15,0,0,1,0-.06s0-.05,0-.07V14.2a.13.13,0,0,1,.14-.13h3.88a.44.44,0,0,0,.46-.44h0V11a.44.44,0,0,0-.13-.31.5.5,0,0,0-.33-.12H11.48a.18.18,0,0,1-.1,0,.15.15,0,0,1,0-.09V8a.11.11,0,0,1,0,0,.14.14,0,0,1,.13-.08h3.87a.42.42,0,0,0,.46-.43V4.88a.44.44,0,0,0-.46-.44H7l0,0-.07,0h0l-.08.06,0,.05h0l0,.07a.34.34,0,0,0,0,.17V19.77a.43.43,0,0,0,.44.45Z"/><path class="cls-3" d="M28.93,9.63A5.28,5.28,0,0,0,25.87,5a10.44,10.44,0,0,0-4.42-.58l-3,0a.74.74,0,0,0-.59.2.64.64,0,0,0-.09.41V19.68a.55.55,0,0,0,.07.34.63.63,0,0,0,.55.19h3.44a.76.76,0,0,0,.34-.05c.23-.12.26-.43.25-.69,0-1,0-2,0-2.94a.27.27,0,0,1,.08-.23c.12-.07.25.08.3.21l1.55,3.27a.82.82,0,0,0,.23.34.86.86,0,0,0,.5.11h3.64c.29,0,.67-.07.72-.36a.57.57,0,0,0-.1-.35q-1.07-2.18-2.15-4.35l.68-.72a5.33,5.33,0,0,0,.54-.88,5.23,5.23,0,0,0,.49-2.13Zm-4.65,1.81a.91.91,0,0,1-1.82,0V9.63a.91.91,0,0,1,1.82,0Z"/><path class="cls-3" d="M18.13,21.29a1.56,1.56,0,0,1-1.61-1.5V15.3H12.43v4.49a1.56,1.56,0,0,1-1.61,1.5H7.16a1.56,1.56,0,0,1-1.61-1.5V5.3l-5,5.41V25.94a.46.46,0,0,0,.47.43l4.8-2.25a7.37,7.37,0,0,0-1.13,6.12l-2,1.45A5.94,5.94,0,0,0,.39,35.07a8.34,8.34,0,0,0,.16,5.49,6.9,6.9,0,0,0,2.26,2.79h0A3.54,3.54,0,0,0,5,44.07h7.11a2,2,0,0,0,1.23-.43L15,42.27v1.8h4.63a1.14,1.14,0,0,0,.68-.23l2.12-1.57v1.29a.51.51,0,0,0,.51.51h2a1.48,1.48,0,0,0,1-.37l3.58-3.1H26.21c-.3,0-.56-.36-.76-.56a1.54,1.54,0,0,1-1.2.56H19a.1.1,0,0,1-.05,0c-.23-.17-.34-.35-.56-.54a.17.17,0,0,0-.19,0,9.88,9.88,0,0,1-4.87,1c-3.76,0-5.67-2.45-5.67-6.09a5.77,5.77,0,0,1,1.25-3.68,5.66,5.66,0,0,1,.92-.91,5.85,5.85,0,0,1-.48-2.4,6,6,0,0,1,3.3-5.22,4.82,4.82,0,0,1,2-.46h1.45a5.22,5.22,0,0,1,4.86,3,3.81,3.81,0,0,1,.25,1.33l3.44-3.79a1.58,1.58,0,0,1,1.23-.59h8.76a1.14,1.14,0,0,1,1.08.72l1.33-1.61H34a1.68,1.68,0,0,1-1.8-1.6V16.09l-2-5.19c0,2.83-.42,3.22-1.45,4.35l2.08,4.45a1.85,1.85,0,0,1-1.84,1.59H24.51c-.7,0-1.31-1-1.31-1s-.59,1-1.48,1H18.06"/><path class="cls-3" d="M23.11,33.84,23,33.71c-.69-.81-1.88-1.9-2.74-2.83l-1.47,1.4-.13-.16L18,31.36l0-.07.15-.16a2.88,2.88,0,0,0,.27-.22l.2-.18a1.58,1.58,0,0,0,.13-.13l.09-.09.12-.13a1.56,1.56,0,0,0,.16-.2c.07-.08.13-.18.2-.26a1.62,1.62,0,0,0,.13-.19,1.14,1.14,0,0,1,.09-.16,1.79,1.79,0,0,0,.12-.24.67.67,0,0,0,.06-.12l0-.11a4.56,4.56,0,0,0,.18-.52c0-.1,0-.2.07-.3a3.18,3.18,0,0,0,.07-.62c0-.11,0-.22,0-.33v-.25a4.6,4.6,0,0,0-.06-.52C19.66,24.32,17.68,23,15.2,23a3.71,3.71,0,0,0-.88.1,4.59,4.59,0,0,0-3.17,4.5,4.88,4.88,0,0,0,.72,2.65l0,.16a4.81,4.81,0,0,0-1.08.82,4.71,4.71,0,0,0-1.31,3.36,4.78,4.78,0,0,0,5.13,5c1.8,0,2.58-.61,4-1.26l.1,0,.79.92.11,0h.3c.39,0,.77,0,1.18,0h3.46l.05-.15c-1-1.23-2.17-2.35-3.06-3.63Zm-8.15,2a1.31,1.31,0,0,1-.45-2.54,7,7,0,0,0,1.63,1.84,1.33,1.33,0,0,1-1.18.7Zm.7-7.35c-.35,0-.63-.72-.63-1.22s.28-.88.63-.88.63.4.63.88-.28,1.22-.63,1.22Z"/><path class="cls-3" d="M24.08,34l-1.24,1.41,2.08,2.23V24.06l-3.6,3.85a3.63,3.63,0,0,1-.57,2.24l3.32,3.31A.43.43,0,0,1,24.08,34Z"/></g></svg>