<svg id="Layer_1" data-name="Layer 1" xmlns="http://www.w3.org/2000/svg" xmlns:xlink="http://www.w3.org/1999/xlink" viewBox="0 0 60 45"><defs><style>.cls-1{fill:none;}.cls-2{clip-path:url(#clip-path);}.cls-3{fill:#2b3130;}</style><clipPath id="clip-path"><rect class="cls-1" y="18.54" width="60" height="7.92"/></clipPath></defs><g class="cls-2"><path class="cls-3" d="M.68,24.5A2.5,2.5,0,0,1,0,22.6V18.75H.77v3.91a1.85,1.85,0,0,0,.48,1.39,2,2,0,0,0,1.43.48,1.91,1.91,0,0,0,1.41-.48,1.85,1.85,0,0,0,.48-1.39V18.75h.77V22.6a2.48,2.48,0,0,1-.68,1.9,2.76,2.76,0,0,1-2,.65A2.78,2.78,0,0,1,.68,24.5Z"/><path class="cls-3" d="M11,22.27v2.81h-.76V22.3a1.32,1.32,0,0,0-.27-.91,1.09,1.09,0,0,0-.83-.29A1.44,1.44,0,0,0,8,21.49a1.36,1.36,0,0,0-.4,1v2.56H6.87V21.86a9.38,9.38,0,0,0-.08-1.25h.73l.08.8a1.45,1.45,0,0,1,.65-.67,2,2,0,0,1,1-.24A1.54,1.54,0,0,1,11,22.27Z"/><path class="cls-3" d="M12.32,18.72h.94v.81h-.94Zm.08,1.89h.77v4.47H12.4Z"/><path class="cls-3" d="M15.44,24.85a1.8,1.8,0,0,1-.79-.8,2.84,2.84,0,0,1,0-2.46,1.9,1.9,0,0,1,.79-.8,2.55,2.55,0,0,1,2.36,0,2,2,0,0,1,.79.8,2.84,2.84,0,0,1,0,2.46,1.91,1.91,0,0,1-.79.8,2.55,2.55,0,0,1-2.36,0Zm2.26-.75a1.87,1.87,0,0,0,.38-1.28,1.94,1.94,0,0,0-.38-1.27,1.56,1.56,0,0,0-2.17,0,1.89,1.89,0,0,0-.39,1.27,1.87,1.87,0,0,0,.39,1.28,1.33,1.33,0,0,0,1.09.44A1.32,1.32,0,0,0,17.7,24.1Z"/><path class="cls-3" d="M24.15,22.27v2.81h-.77V22.3a1.32,1.32,0,0,0-.27-.91,1.07,1.07,0,0,0-.83-.29,1.46,1.46,0,0,0-1.06.39,1.36,1.36,0,0,0-.39,1v2.56h-.77V21.86A9.38,9.38,0,0,0,20,20.61h.73l.08.8a1.45,1.45,0,0,1,.65-.67,2,2,0,0,1,1-.24A1.54,1.54,0,0,1,24.15,22.27Z"/><path class="cls-3" d="M30.63,22.37a1.64,1.64,0,0,1-.29,2.25,2.84,2.84,0,0,1-1.7.46H25.58V18.75h3a2.73,2.73,0,0,1,1.64.44,1.42,1.42,0,0,1,.6,1.21,1.46,1.46,0,0,1-.28.87,1.74,1.74,0,0,1-.77.54A1.61,1.61,0,0,1,30.63,22.37Zm-3.85-.95h1.57c.84,0,1.26-.3,1.26-.89a.76.76,0,0,0-.31-.67,1.65,1.65,0,0,0-.95-.22H26.78ZM29.48,24a.83.83,0,0,0,.3-.71.87.87,0,0,0-.3-.72,1.67,1.67,0,0,0-1-.23H26.77v1.88h1.74A1.76,1.76,0,0,0,29.48,24Z"/><path class="cls-3" d="M33.2,18.54H32v6.54H33.2Z"/><path class="cls-3" d="M35.38,24.86a2,2,0,0,1-.85-.81,2.71,2.71,0,0,1,0-2.48,2,2,0,0,1,.85-.81,2.95,2.95,0,0,1,2.55,0,2,2,0,0,1,.84.81,2.71,2.71,0,0,1,0,2.48,2,2,0,0,1-.84.81,2.95,2.95,0,0,1-2.55,0Zm2.19-.95a1.66,1.66,0,0,0,.32-1.1,1.7,1.7,0,0,0-.32-1.1,1.32,1.32,0,0,0-1.83,0,1.7,1.7,0,0,0-.32,1.1,1.61,1.61,0,0,0,.32,1.1,1.15,1.15,0,0,0,.91.37A1.17,1.17,0,0,0,37.57,23.91Z"/><path class="cls-3" d="M41,24.86a2,2,0,0,1-.84-.8,2.4,2.4,0,0,1-.29-1.22,2.5,2.5,0,0,1,.3-1.24,2.2,2.2,0,0,1,.88-.83,2.68,2.68,0,0,1,1.3-.3,3.19,3.19,0,0,1,1,.15,2.09,2.09,0,0,1,.77.42l-.34.78a2.35,2.35,0,0,0-.64-.35,2,2,0,0,0-.67-.12,1.32,1.32,0,0,0-1,.38,1.52,1.52,0,0,0-.36,1.09,1.54,1.54,0,0,0,.35,1.08,1.34,1.34,0,0,0,1,.38,2,2,0,0,0,.67-.13,2.35,2.35,0,0,0,.64-.35l.34.78a2.2,2.2,0,0,1-.79.42,3.38,3.38,0,0,1-1,.15A2.8,2.8,0,0,1,41,24.86Z"/><path class="cls-3" d="M49.59,25.08H48.11L46,23v2.07H44.85V18.54H46v4l2-2h1.43l-2.15,2.14Z"/><path class="cls-3" d="M54.8,19.67l-1-1-4.14,3.89,4.14,3.89,1-1-3.09-2.9Z"/><path class="cls-3" d="M55.86,18.68l-1.06,1,.52.48-2.58,2.42L55.32,25l-.52.48,1.06,1L60,22.57Zm0,5.82-2.06-1.93,2.06-1.93,2,1.93Z"/></g></svg>