<svg id="Layer_1" data-name="Layer 1" xmlns="http://www.w3.org/2000/svg" xmlns:xlink="http://www.w3.org/1999/xlink" viewBox="0 0 60 45"><defs><style>.cls-1{fill:none;}.cls-2{clip-path:url(#clip-path);}.cls-3{fill:#2b3130;}.cls-4{fill:#fff;}</style><clipPath id="clip-path"><rect class="cls-1" y="14.65" width="60" height="15.69"/></clipPath></defs><g class="cls-2"><path class="cls-3" d="M19,14.65H0v15.7H19Z"/><path class="cls-4" d="M11,18.1c2.65,0,4,.75,4,2.27a2,2,0,0,1-1.68,2v.06c1.41.29,2.12,1,2.12,2.16,0,1.57-1.32,2.35-4,2.35H3.61V18.1Z"/><path class="cls-3" d="M4.8,20.38v3.27H6V20.38H9.43V19.23H4.8Z"/><path class="cls-3" d="M25.46,18.08c.91,0,1.36.26,1.37.77a.7.7,0,0,1-.58.68v0c.49.1.73.35.73.74s-.46.8-1.36.8H23v-3ZM24,19.29h1.13a.69.69,0,0,0,.38-.08.23.23,0,0,0,.13-.21.24.24,0,0,0-.14-.22.76.76,0,0,0-.37-.07H24Zm1.29,1.17a.68.68,0,0,0,.37-.09.25.25,0,0,0,.14-.23.26.26,0,0,0-.14-.24.66.66,0,0,0-.37-.08H24.05v.64Z"/><path class="cls-3" d="M28.74,18.08V20.4H31.3v.69H27.66v-3Z"/><path class="cls-3" d="M33.71,21.13a2.33,2.33,0,0,1-1.44-.38,1.26,1.26,0,0,1-.51-1.06V18.08h1.09v1.55a.79.79,0,0,0,.22.61.94.94,0,0,0,.65.21.93.93,0,0,0,.64-.21.79.79,0,0,0,.22-.61V18.08h1.09v1.59a1.26,1.26,0,0,1-.51,1.07,2.33,2.33,0,0,1-1.44.39Z"/><path class="cls-3" d="M40.33,21.09H36.52v-3h3.76v.69H37.6v.5H40v.6H37.6v.53h2.73Z"/><path class="cls-3" d="M46.51,20.53s0,.11,0,.19a.74.74,0,0,0,0,.16.22.22,0,0,0,0,.1.34.34,0,0,0,.06.12H45.53a1.34,1.34,0,0,1-.14-.58.34.34,0,0,0-.17-.31,1.11,1.11,0,0,0-.54-.08h-1v1H42.61v-3h2.21a2.72,2.72,0,0,1,1.29.23.74.74,0,0,1,.4.67.8.8,0,0,1-.64.77v0a.72.72,0,0,1,.47.23,1.13,1.13,0,0,1,.17.52Zm-1.7-1a1,1,0,0,0,.45-.09.31.31,0,0,0,.16-.28.29.29,0,0,0-.16-.27,1,1,0,0,0-.45-.09H43.69v.73Z"/><path class="cls-3" d="M51.1,21.09H47.29v-3h3.76v.69H48.37v.5h2.36v.6H48.37v.53h2.74v.69Z"/><path class="cls-3" d="M55.58,21.09H51.76v-3h3.76v.69H52.85v.5h2.36v.6H52.85v.53h2.73v.69Z"/><path class="cls-3" d="M57.33,21.09H56.24v-3H60v.69H57.33v.72H59.7v.66H57.33v.94Z"/><path class="cls-3" d="M28,26.86h-.6l-.53-.95H23.8l-.53.95h-.59L25,22.66h.72ZM26.7,25.51,25.37,23.1h0L24,25.51Z"/><path class="cls-3" d="M30.1,26.86l-2.26-4.2h.61l2,3.72h0l2-3.72h.61l-2.25,4.2Z"/><path class="cls-3" d="M34.09,22.66h.54v4.2h-.54Z"/><path class="cls-3" d="M41,26.86h-.6l-.53-.95H36.77l-.53.95h-.6L38,22.66h.73Zm-1.34-1.35L38.34,23.1h0L37,25.51Z"/><path class="cls-3" d="M40.82,22.66h4.8v.43H43.5v3.77h-.56V23.09H40.82Z"/><path class="cls-3" d="M46.65,22.66h.54v4.2h-.54Z"/><path class="cls-3" d="M53.08,23.19a2.15,2.15,0,0,1,0,3.16,3.6,3.6,0,0,1-3.92,0,2.15,2.15,0,0,1,0-3.16,3.6,3.6,0,0,1,3.92,0Zm-2,3.32a2.46,2.46,0,0,0,1.55-.44,1.79,1.79,0,0,0,0-2.6,2.89,2.89,0,0,0-3.1,0,1.78,1.78,0,0,0,0,2.59,2.4,2.4,0,0,0,1.55.45Z"/><path class="cls-3" d="M60,22.66v4.2h-.64l-3.72-3.57h0v3.57H55v-4.2h.65l3.71,3.57h0V22.66Z"/></g></svg>