<svg id="Layer_1" data-name="Layer 1" xmlns="http://www.w3.org/2000/svg" xmlns:xlink="http://www.w3.org/1999/xlink" viewBox="0 0 60 45"><defs><style>.cls-1{fill:none;}.cls-2{clip-path:url(#clip-path);}.cls-3{fill:#2b3130;}</style><clipPath id="clip-path"><rect class="cls-1" x="0.02" y="14.41" width="59.96" height="16.18"/></clipPath></defs><g class="cls-2"><path class="cls-3" d="M54.74,29.11a.88.88,0,0,1,.34-.35,1,1,0,0,1,.49-.12.93.93,0,0,1,.58.18.83.83,0,0,1,.32.49H56a.4.4,0,0,0-.16-.18.44.44,0,0,0-.23-.06.48.48,0,0,0-.35.14.64.64,0,0,0-.13.4.62.62,0,0,0,.13.4.45.45,0,0,0,.35.15.37.37,0,0,0,.23-.07.4.4,0,0,0,.16-.18h.51a.83.83,0,0,1-.32.49.93.93,0,0,1-.58.18,1,1,0,0,1-.49-.12.88.88,0,0,1-.34-.35,1.1,1.1,0,0,1,0-1Z"/><path class="cls-3" d="M56.77,30.52a.24.24,0,0,1,0-.36.28.28,0,0,1,.2-.08.26.26,0,0,1,.19.08.25.25,0,0,1-.19.43A.27.27,0,0,1,56.77,30.52Z"/><path class="cls-3" d="M58.69,30.23H58l-.11.34h-.48l.68-1.91h.53l.69,1.91H58.8Zm-.12-.35-.24-.71-.23.71Z"/><path class="cls-3" d="M59.51,30.52a.27.27,0,0,1,0-.36.28.28,0,0,1,.2-.08.3.3,0,0,1,.2.08.27.27,0,0,1,0,.36.29.29,0,0,1-.2.07A.27.27,0,0,1,59.51,30.52Z"/><path class="cls-3" d="M4.08,29.63v.85H0V25H4v.85H1v1.42H3.64v.84H1v1.51Z"/><path class="cls-3" d="M8.73,30.48,7.26,28.4,5.81,30.48H4.66l2-2.79L4.77,25H5.91L7.29,27,8.66,25H9.75L7.86,27.65l2,2.83Z"/><path class="cls-3" d="M14,25.24a1.78,1.78,0,0,1,.8.67A1.88,1.88,0,0,1,15,27a1.86,1.86,0,0,1-.28,1,1.79,1.79,0,0,1-.8.68,3.09,3.09,0,0,1-1.22.23H11.5v1.58h-1V25h2.23A3.09,3.09,0,0,1,14,25.24Zm-.27,2.52a1.12,1.12,0,0,0,0-1.61,1.53,1.53,0,0,0-1-.28H11.5V28h1.18A1.53,1.53,0,0,0,13.68,27.76Z"/><path class="cls-3" d="M17.15,30.19a2.66,2.66,0,0,1-1-1,2.85,2.85,0,0,1-.37-1.45,2.81,2.81,0,0,1,.37-1.44,2.76,2.76,0,0,1,1-1,3.26,3.26,0,0,1,3,0,2.89,2.89,0,0,1,1.05,3.9,2.73,2.73,0,0,1-1.05,1,3.19,3.19,0,0,1-3,0Zm2.46-.77a1.67,1.67,0,0,0,.68-.69,1.92,1.92,0,0,0,.25-1,2,2,0,0,0-.25-1,1.71,1.71,0,0,0-.68-.68,2,2,0,0,0-1.94,0,1.71,1.71,0,0,0-.68.68,2,2,0,0,0-.25,1,1.92,1.92,0,0,0,.25,1,1.67,1.67,0,0,0,.68.69,2,2,0,0,0,1.94,0Z"/><path class="cls-3" d="M27.39,30.48l0-2.94L26,29.93h-.69l-1.4-2.31v2.86H22.44V24.94h1.28l1.92,3.2,1.88-3.2h1.27l0,5.54Z"/><path class="cls-3" d="M31.11,30.22a2.71,2.71,0,0,1-1.09-1,2.94,2.94,0,0,1,0-3,2.71,2.71,0,0,1,1.09-1,3.33,3.33,0,0,1,1.56-.37,3.39,3.39,0,0,1,1.56.37,2.86,2.86,0,0,1,0,5,3.27,3.27,0,0,1-1.56.37A3.21,3.21,0,0,1,31.11,30.22Zm2.31-1.12a1.5,1.5,0,0,0,.53-.56,1.91,1.91,0,0,0,0-1.66,1.47,1.47,0,0,0-2.57,0,1.91,1.91,0,0,0,0,1.66,1.51,1.51,0,0,0,2,.56Z"/><path class="cls-3" d="M38.92,29h-.85v1.47H36.52V24.94H39a3.22,3.22,0,0,1,1.29.25A1.89,1.89,0,0,1,41.46,27,1.92,1.92,0,0,1,41.18,28a1.86,1.86,0,0,1-.79.7l1.18,1.74H39.91Zm.73-2.62a1.07,1.07,0,0,0-.72-.21h-.86V27.8h.86a1.07,1.07,0,0,0,.72-.21.87.87,0,0,0,0-1.2Z"/><path class="cls-3" d="M44.71,29h-.85v1.47H42.31V24.94h2.5a3.24,3.24,0,0,1,1.3.25A1.89,1.89,0,0,1,47.25,27,2,2,0,0,1,47,28a1.92,1.92,0,0,1-.79.7l1.18,1.74H45.7Zm.73-2.62a1.07,1.07,0,0,0-.72-.21h-.86V27.8h.86a1.07,1.07,0,0,0,.72-.21.87.87,0,0,0,0-1.2Z"/><path class="cls-3" d="M49.3,30.22a2.85,2.85,0,0,1,0-5,3.47,3.47,0,0,1,3.12,0,2.77,2.77,0,0,1,1.09,1,3,3,0,0,1,0,3,2.77,2.77,0,0,1-1.09,1,3.47,3.47,0,0,1-3.12,0Zm2.31-1.12a1.43,1.43,0,0,0,.53-.56,1.82,1.82,0,0,0,0-1.66,1.34,1.34,0,0,0-.53-.55,1.51,1.51,0,0,0-1.5,0,1.4,1.4,0,0,0-.53.55,1.82,1.82,0,0,0,0,1.66,1.5,1.5,0,0,0,.53.56,1.58,1.58,0,0,0,1.5,0Z"/><path class="cls-3" d="M33.55,16.41a.71.71,0,0,0-.43-.86l-2.3-1.1a.37.37,0,0,0-.18,0,.4.4,0,0,0-.22.06.25.25,0,0,0-.13.2l0,8.2,2-2.9Z"/><path class="cls-3" d="M30.65,22.89l3-1.44,2.81-2.06a.48.48,0,0,0,.21-.34.5.5,0,0,0-.11-.39l-1.44-1.82a.21.21,0,0,0-.18-.09h0a.24.24,0,0,0-.19.1l-2.88,4.23Z"/><path class="cls-3" d="M37.39,20.2a.28.28,0,0,0-.18-.06.31.31,0,0,0-.13,0l-4.71,2.24-1.86.89a.27.27,0,0,0-.16.19.33.33,0,0,0,0,.17.32.32,0,0,0,.31.25l6.28,0a.32.32,0,0,0,.31-.3l.29-3.09A.3.3,0,0,0,37.39,20.2Z"/><path class="cls-3" d="M26.37,16.41a.7.7,0,0,1,.42-.86l2.3-1.1a.39.39,0,0,1,.18,0,.46.46,0,0,1,.23.06.27.27,0,0,1,.12.2v8.2l-2-2.9Z"/><path class="cls-3" d="M29.26,22.89l-3-1.44-2.82-2.06a.5.5,0,0,1-.2-.34.54.54,0,0,1,.1-.39l1.44-1.82a.23.23,0,0,1,.19-.09h0a.23.23,0,0,1,.19.1L28,21.08Z"/><path class="cls-3" d="M22.52,20.2a.3.3,0,0,1,.18-.06.35.35,0,0,1,.14,0l4.71,2.24,1.85.89a.27.27,0,0,1,.17.19.25.25,0,0,1,0,.17.31.31,0,0,1-.31.25l-6.27,0a.33.33,0,0,1-.32-.3l-.28-3.09A.28.28,0,0,1,22.52,20.2Z"/></g></svg>