<svg id="Layer_1" data-name="Layer 1" xmlns="http://www.w3.org/2000/svg" viewBox="0 0 60 45"><defs><style>.cls-1{fill:#2b3130;}</style></defs><path class="cls-1" d="M21,21.75h.76l4-3.29L27,21.75h.64l-3.37-8.61Z"/><path class="cls-1" d="M21,40.81h.76l4-3.29,1.37,3.29h.64L24.37,32.2Z"/><path class="cls-1" d="M35.51,40.81h.76l4-3.29,1.36,3.29h.64L38.87,32.2Z"/><path class="cls-1" d="M19.34,13.14,17,17.09,14.7,13.14h-.64v8.61h.64V14.59l2,3.19v4h.64v-4l2-3.19v7.16H20V13.14Z"/><path class="cls-1" d="M43.82,32.3h-.64v8.41h.64Z"/><path class="cls-1" d="M17.34,40.05V32.3H16.7v8.41h3.38v-.66Z"/><path class="cls-1" d="M26.59,23.41v-.66H22.23v8.41h4.36V30.5H22.87V27.11h3.32v-.66H22.87v-3Z"/><path class="cls-1" d="M19.6,22.75l-2.58,4-2.58-4h-.69l2.95,4.58v3.83h.64V27.33l2.95-4.58Z"/><path class="cls-1" d="M45.3,32.3h-.63v8.41h.63V33.53l4.33,6.78h1.2V0H9.17V45H50.23V43.76H10.37V1.24H49.63V39Z"/><path class="cls-1" d="M32.2,41h-.26a3.35,3.35,0,0,1-2.45-1.9l.54-.28s.71,1.47,1.95,1.56a2,2,0,0,0,1.61-.48A1.3,1.3,0,0,0,34,39c0-.85-.3-1.48-1.83-2.19-1.06-.5-2.43-1.35-2-3a2,2,0,0,1,1.72-1.39,2.33,2.33,0,0,1,2.4,1.32l-.53.3A1.71,1.71,0,0,0,32,33a1.4,1.4,0,0,0-1.22.93c-.17.68-.1,1.49,1.68,2.32C34,37,34.59,37.73,34.59,39A1.92,1.92,0,0,1,34,40.37,2.56,2.56,0,0,1,32.2,41Z"/></svg>