<svg id="Layer_1" data-name="Layer 1" xmlns="http://www.w3.org/2000/svg" xmlns:xlink="http://www.w3.org/1999/xlink" viewBox="0 0 60 45"><defs><style>.cls-1{fill:none;}.cls-2{clip-path:url(#clip-path);}.cls-3{fill:#2b3130;}</style><clipPath id="clip-path"><rect class="cls-1" y="9.72" width="60" height="25.57"/></clipPath></defs><g class="cls-2"><path class="cls-3" d="M16,20.68h-.39V16.27h5.48v4.41h-.39v.93h1.72v-.93h-.39V11h.39v-.92H20.72V11h.39v4.34H15.63V11H16v-.92H14.3V11h.39v9.68H14.3v.93H16Z"/><path class="cls-3" d="M42,20.28h-.9v.4H37.47V11h.39v-.92H36.14V11h.39v9.68h-.39v.93H42Z"/><path class="cls-3" d="M43.82,17.61v3.07h-.39v.93h1.72v-.93h-.39V17.61L48,11h.69v-.92H47.43l-3.14,6.39-3.16-6.39H39.85V11h.69Z"/><path class="cls-3" d="M5.8,24.29a5.07,5.07,0,0,1,4,2.14l.07.11H11l-.25-.4a5.9,5.9,0,0,0-4.89-2.77A5.73,5.73,0,0,0,1.7,25.06a6.21,6.21,0,0,0,0,8.54,5.8,5.8,0,0,0,9-1l.23-.39H9.85l-.07.1a4.94,4.94,0,0,1-4,2.08,4.84,4.84,0,0,1-4.86-5A4.85,4.85,0,0,1,5.8,24.29Z"/><path class="cls-3" d="M17.91,34.17v.92h1.72v-.92h-.39V24.49h.39v-.93H17.91v.93h.39v4.34H12.83V24.49h.39v-.93H11.49v.93h.39v9.68h-.39v.92h1.73v-.92h-.39V29.75H18.3v4.42Z"/><path class="cls-3" d="M28.92,24.29a5.09,5.09,0,0,1,4,2.14l.07.11h1.1l-.25-.4a5.91,5.91,0,0,0-4.9-2.77,5.73,5.73,0,0,0-4.1,1.69,6.21,6.21,0,0,0,0,8.54,5.8,5.8,0,0,0,9-1l.23-.39H33l-.07.11a5,5,0,0,1-4,2.07,4.84,4.84,0,0,1-4.86-5A4.85,4.85,0,0,1,28.92,24.29Z"/><path class="cls-3" d="M22.3,24.49v-.93H20.57v.93H21v9.68h-.39v.92H22.3v-.92h-.4V24.49Z"/><path class="cls-3" d="M58.67,23.56v9.87l-6.9-9.76-.08-.11H50.27v.93h.39v9.68h-.39v.92H52v-.92H51.6v-9.1l7.08,10h.93V24.49H60v-.93Z"/><path class="cls-3" d="M24.81,19.74l.35-.59a2.83,2.83,0,0,0,.22-.46,3.75,3.75,0,0,0,.15-.55,3.28,3.28,0,0,1,.17-.58,6.7,6.7,0,0,1,2.94-3.3l.6-.31-.55-.41a.61.61,0,0,1-.2-.54.58.58,0,0,1,.26-.5.52.52,0,0,1,.5,0,.62.62,0,0,1,.39.4l.06.23.78-.14,0-.24a.3.3,0,0,1,.11-.23.21.21,0,0,1,.18-.07c.07,0,.13.09.16.19a.25.25,0,0,1,0,.24L29.73,14.1l1.49-.5a.87.87,0,0,1-.22.34l-.57.52.74.21a3.44,3.44,0,0,1,.66.28,1.71,1.71,0,0,0-.7.21,1.17,1.17,0,0,0-.29,1.12,1.39,1.39,0,0,1,0,.41.54.54,0,0,1-.43.35.32.32,0,0,1-.21-.1.24.24,0,0,1-.06-.14v-.26l-.81-.06,0,.26a3.18,3.18,0,0,0,.09,1A7.58,7.58,0,0,0,30,19.27l.07.17c.28.62.47,1.45.28,1.73l-.56.87,1-.21a6,6,0,0,0,4.72-6,5.91,5.91,0,0,0-6-6.12,6,6,0,0,0-6,6.12,6.35,6.35,0,0,0,.9,3.31Zm4.7-9.17a5.09,5.09,0,0,1,5.14,5.27,5.09,5.09,0,0,1-3.41,5,4.76,4.76,0,0,0-.43-1.73l-.07-.17a9.62,9.62,0,0,1-.42-1h.1a1.34,1.34,0,0,0,1.2-.91,1.81,1.81,0,0,0,.05-.79,1.11,1.11,0,0,1,0-.36,5.45,5.45,0,0,1,1.16-.09l.09,0,.13-.11.43-.4-.17-.19a4.13,4.13,0,0,0-1.36-1A1.64,1.64,0,0,0,32,12.9l-.11-.43-.19.06,0-.15a1.1,1.1,0,0,0-.77-.78,1,1,0,0,0-.91.26l-.07.07a1.41,1.41,0,0,0-.39-.24,1.38,1.38,0,0,0-1.24.06A1.5,1.5,0,0,0,27.66,13a1.56,1.56,0,0,0,.16.8,7.62,7.62,0,0,0-2.88,3.46,3.21,3.21,0,0,0-.19.63,5.71,5.71,0,0,1-.37-2A5.08,5.08,0,0,1,29.51,10.57Z"/><path class="cls-3" d="M43.86,23.56H42v0H40.77l-4.63,5.12V23.56H34.81v.92h.39v9.69h-.39v.92h1.33V30l5.07,5.1h7.92V33.76h-.9v.41H43.69V29.75h4.54v.4h.9V28.42h-.9v.41H43.69V24.49h4.54v.4h.9V23.56ZM42.75,34.17H41.59l-4.78-4.85,4.3-4.79h1.64v9.64Z"/></g></svg>