<svg id="Layer_1" data-name="Layer 1" xmlns="http://www.w3.org/2000/svg" xmlns:xlink="http://www.w3.org/1999/xlink" viewBox="0 0 60 45"><defs><style>.cls-1{fill:none;}.cls-2{clip-path:url(#clip-path);}.cls-3{fill:#2b3130;}</style><clipPath id="clip-path"><rect class="cls-1" y="18.73" width="60" height="7.54"/></clipPath></defs><g class="cls-2"><path class="cls-3" d="M0,18.87H4.55V20h-3v1H4.39v1.15H1.54v1.13H4.61V24.5H0Z"/><path class="cls-3" d="M7.88,20.64H9.72l2.75,5.63H10.74l-.5-1.11H7.17l-.52,1.11H5.07Zm.85,1.1L7.64,24.11H9.78Z"/><path class="cls-3" d="M14.24,22.68c0,.72.32.88,1,.88.91,0,1-.34,1-.59s-.37-.5-1-.62l-.75-.16c-.88-.18-1.79-.52-1.79-1.6,0-1.38,1.2-1.86,2.41-1.86,1.93,0,2.49.63,2.54,1.75h-1.5c0-.57-.48-.66-1-.66-.67,0-1,.24-1,.55s.48.49,1,.61l.71.16c1,.21,1.77.54,1.77,1.66,0,1.56-1.49,1.85-2.68,1.85-2.14,0-2.5-1-2.5-2Z"/><path class="cls-3" d="M21.31,24.27l-2.38-3.63h1.89l1.36,2.41,1.34-2.41h1.71l-2.38,3.63v2H21.31Z"/><path class="cls-3" d="M26,18.87H29.8v.64h-3v1.84h2.86V22H26.8V24.5H26Z"/><path class="cls-3" d="M31.7,26.27h-.77V20.64h2.61c1.63,0,2,.59,2,1.49a1.31,1.31,0,0,1-1.21,1.31v0c.71.09.9.4,1,1.35a6.85,6.85,0,0,0,.3,1.46h-.81c-.14-.39-.22-1.18-.36-1.81-.08-.41-.33-.7-1.33-.7H31.7Zm0-3.15h1.73c.81,0,1.3-.2,1.3-.91s-.35-.92-1.28-.92H31.7Z"/><path class="cls-3" d="M37.27,18.87h4v.64H38v1.78h3v.64H38v1.94h3.28v.63H37.26V18.87Z"/><path class="cls-3" d="M46.49,24.81H43.24l-.68,1.46h-.85l2.72-5.63h.9l2.72,5.63h-.88Zm-.29-.64-1.32-2.84-1.33,2.84Z"/><path class="cls-3" d="M48.4,23.77l4-4.26H48.56v-.64h4.62v.86l-3.84,4.13h4v.64H48.4Z"/><path class="cls-3" d="M56.72,26.27V23.93l-2.51-3.29h1l1.91,2.62L59,20.64h1l-2.52,3.29v2.34Z"/></g></svg>