<svg id="Layer_1" data-name="Layer 1" xmlns="http://www.w3.org/2000/svg" xmlns:xlink="http://www.w3.org/1999/xlink" viewBox="0 0 60 45"><defs><style>.cls-1{fill:none;}.cls-2{clip-path:url(#clip-path);}.cls-3{fill:#2b3130;}</style><clipPath id="clip-path"><rect class="cls-1" y="7.97" width="60" height="29.05"/></clipPath></defs><g class="cls-2"><path class="cls-3" d="M6.67,8V14H5.24V10.24L4,14H2.72L1.43,10.24V14H0V8H1.75l1.61,4.14L4.93,8Z"/><path class="cls-3" d="M13.64,8v6H12.21V8Z"/><path class="cls-3" d="M23.28,12.87H21.06L20.69,14H19.17L21.35,8H23L25.17,14H23.65Zm-.37-1.1-.74-2.2-.75,2.2Z"/><path class="cls-3" d="M4.12,24.35H1.9l-.38,1.09H0L2.19,19.5H3.84L6,25.44H4.49Zm-.37-1.1L3,21.05l-.74,2.2Z"/><path class="cls-3" d="M15.63,25.45H14.19l-2.4-3.68v3.68H10.36v-6h1.43l2.4,3.72V19.45h1.44Z"/><path class="cls-3" d="M24.45,24a2.6,2.6,0,0,1-1.07,1.06,3.37,3.37,0,0,1-1.66.39H19.48v-6h2.24a3.48,3.48,0,0,1,1.66.38,2.64,2.64,0,0,1,1.07,1.05,3.27,3.27,0,0,1,.37,1.56A3.18,3.18,0,0,1,24.45,24Zm-1.54-.3a1.67,1.67,0,0,0,.46-1.26,1.69,1.69,0,0,0-.46-1.27,1.86,1.86,0,0,0-1.31-.45h-.68v3.43h.68A1.83,1.83,0,0,0,22.91,23.7Z"/><path class="cls-3" d="M1.57,31,3,35.48,4.47,31H6L3.94,37H2.09L0,31Z"/><path class="cls-3" d="M12.6,32.13v1.25h2v1.09h-2V35.8h2.26V37h-3.7V31h3.69v1.15Z"/><path class="cls-3" d="M22.92,37,21.64,34.7h-.33V37H19.87V31h2.45a2.73,2.73,0,0,1,1.2.24,1.83,1.83,0,0,1,.73.67,2,2,0,0,1,.24,1A1.72,1.72,0,0,1,24.13,34a1.78,1.78,0,0,1-1,.63L24.51,37H22.92Zm-1.61-3.26h.89a.88.88,0,0,0,.63-.19A.73.73,0,0,0,23,33a.78.78,0,0,0-.2-.56.9.9,0,0,0-.63-.2h-.89Z"/><path class="cls-3" d="M33.59,36.15a1.68,1.68,0,0,1-.7.64,2.45,2.45,0,0,1-1.13.24,2.62,2.62,0,0,1-1.64-.5,1.77,1.77,0,0,1-.71-1.37h1.53a.76.76,0,0,0,.24.53.74.74,0,0,0,.53.2.56.56,0,0,0,.43-.16.51.51,0,0,0,.16-.4.5.5,0,0,0-.14-.38,1,1,0,0,0-.37-.25q-.22-.11-.6-.24a5.72,5.72,0,0,1-.92-.38,1.68,1.68,0,0,1-.62-.54,1.57,1.57,0,0,1-.25-.93,1.59,1.59,0,0,1,.27-.93,1.62,1.62,0,0,1,.74-.59,2.68,2.68,0,0,1,1.09-.21,2.45,2.45,0,0,1,1.57.47,1.82,1.82,0,0,1,.66,1.31H32.18a.77.77,0,0,0-.22-.47.67.67,0,0,0-.87,0,.48.48,0,0,0-.16.4.52.52,0,0,0,.14.36,1,1,0,0,0,.35.24l.61.24a5.37,5.37,0,0,1,.93.38,1.8,1.8,0,0,1,.62.55,1.64,1.64,0,0,1,.26,1A1.74,1.74,0,0,1,33.59,36.15Z"/><path class="cls-3" d="M42.63,36.15a1.7,1.7,0,0,1-.71.64A2.41,2.41,0,0,1,40.8,37a2.63,2.63,0,0,1-1.65-.5,1.76,1.76,0,0,1-.7-1.37H40a.76.76,0,0,0,.24.53.72.72,0,0,0,.52.2.6.6,0,0,0,.44-.16.54.54,0,0,0,.16-.4.5.5,0,0,0-.15-.38,1,1,0,0,0-.36-.25,6.51,6.51,0,0,0-.61-.24,6.61,6.61,0,0,1-.92-.38,1.65,1.65,0,0,1-.61-.54,1.57,1.57,0,0,1-.26-.93,1.59,1.59,0,0,1,.27-.93,1.64,1.64,0,0,1,.75-.59,2.6,2.6,0,0,1,1.08-.21,2.48,2.48,0,0,1,1.58.47,1.81,1.81,0,0,1,.65,1.31H41.21a.82.82,0,0,0-.21-.47.63.63,0,0,0-.47-.18.62.62,0,0,0-.41.14.51.51,0,0,0-.15.4.48.48,0,0,0,.14.36.91.91,0,0,0,.35.24l.6.24a5.37,5.37,0,0,1,.93.38,1.93,1.93,0,0,1,.63.55,1.64,1.64,0,0,1,.26,1A1.74,1.74,0,0,1,42.63,36.15Z"/><path class="cls-3" d="M48.81,32.13v1.25h2v1.09h-2V35.8h2.26V37h-3.7V31h3.7v1.15Z"/><path class="cls-3" d="M57.69,35.86H60V37H56.25V31h1.44Z"/><path class="cls-3" d="M51.07,22.78H29.39v2.66H51.07Z"/><path class="cls-3" d="M60,22.78H56.25v2.66H60Z"/></g></svg>